%TF.GenerationSoftware,KiCad,Pcbnew,7.0.9*%
%TF.CreationDate,2024-02-01T16:38:21+03:00*%
%TF.ProjectId,line_sensor,6c696e65-5f73-4656-9e73-6f722e6b6963,rev?*%
%TF.SameCoordinates,Original*%
%TF.FileFunction,Copper,L1,Top*%
%TF.FilePolarity,Positive*%
%FSLAX46Y46*%
G04 Gerber Fmt 4.6, Leading zero omitted, Abs format (unit mm)*
G04 Created by KiCad (PCBNEW 7.0.9) date 2024-02-01 16:38:21*
%MOMM*%
%LPD*%
G01*
G04 APERTURE LIST*
G04 Aperture macros list*
%AMRoundRect*
0 Rectangle with rounded corners*
0 $1 Rounding radius*
0 $2 $3 $4 $5 $6 $7 $8 $9 X,Y pos of 4 corners*
0 Add a 4 corners polygon primitive as box body*
4,1,4,$2,$3,$4,$5,$6,$7,$8,$9,$2,$3,0*
0 Add four circle primitives for the rounded corners*
1,1,$1+$1,$2,$3*
1,1,$1+$1,$4,$5*
1,1,$1+$1,$6,$7*
1,1,$1+$1,$8,$9*
0 Add four rect primitives between the rounded corners*
20,1,$1+$1,$2,$3,$4,$5,0*
20,1,$1+$1,$4,$5,$6,$7,0*
20,1,$1+$1,$6,$7,$8,$9,0*
20,1,$1+$1,$8,$9,$2,$3,0*%
G04 Aperture macros list end*
%TA.AperFunction,ComponentPad*%
%ADD10C,0.800000*%
%TD*%
%TA.AperFunction,ComponentPad*%
%ADD11C,6.000000*%
%TD*%
%TA.AperFunction,ComponentPad*%
%ADD12R,1.600000X1.600000*%
%TD*%
%TA.AperFunction,ComponentPad*%
%ADD13O,1.600000X1.600000*%
%TD*%
%TA.AperFunction,ComponentPad*%
%ADD14RoundRect,0.249600X0.550400X0.550400X-0.550400X0.550400X-0.550400X-0.550400X0.550400X-0.550400X0*%
%TD*%
%TA.AperFunction,ComponentPad*%
%ADD15C,1.600000*%
%TD*%
%TA.AperFunction,ComponentPad*%
%ADD16C,1.400000*%
%TD*%
%TA.AperFunction,ComponentPad*%
%ADD17O,1.400000X1.400000*%
%TD*%
%TA.AperFunction,ComponentPad*%
%ADD18O,1.700000X1.700000*%
%TD*%
%TA.AperFunction,ComponentPad*%
%ADD19R,1.700000X1.700000*%
%TD*%
%TA.AperFunction,ComponentPad*%
%ADD20RoundRect,0.250000X-0.620000X-0.845000X0.620000X-0.845000X0.620000X0.845000X-0.620000X0.845000X0*%
%TD*%
%TA.AperFunction,ComponentPad*%
%ADD21O,1.740000X2.190000*%
%TD*%
%TA.AperFunction,Conductor*%
%ADD22C,0.400000*%
%TD*%
G04 APERTURE END LIST*
D10*
%TO.P,REF\u002A\u002A,1*%
%TO.N,N/C*%
X98080000Y-65405000D03*
X98739010Y-63814010D03*
X98739010Y-66995990D03*
X100330000Y-63155000D03*
D11*
X100330000Y-65405000D03*
D10*
X100330000Y-67655000D03*
X101920990Y-63814010D03*
X101920990Y-66995990D03*
X102580000Y-65405000D03*
%TD*%
D11*
%TO.P,REF\u002A\u002A,1*%
%TO.N,N/C*%
X157480000Y-65405000D03*
D10*
X159070990Y-63814010D03*
X155889010Y-66995990D03*
X159070990Y-66995990D03*
X159730000Y-65405000D03*
X157480000Y-67655000D03*
X157480000Y-63155000D03*
X155230000Y-65405000D03*
X155889010Y-63814010D03*
%TD*%
D12*
%TO.P,U4,1*%
%TO.N,Net-(U1-C)*%
X123190000Y-62230000D03*
D13*
%TO.P,U4,2*%
%TO.N,SENSORLEFT*%
X125730000Y-62230000D03*
%TO.P,U4,3*%
%TO.N,Net-(U2-C)*%
X128270000Y-62230000D03*
%TO.P,U4,4*%
%TO.N,SENSORMIDDLE*%
X130810000Y-62230000D03*
%TO.P,U4,5*%
%TO.N,Net-(U3-C)*%
X133350000Y-62230000D03*
%TO.P,U4,6*%
%TO.N,SENSORRIGHT*%
X135890000Y-62230000D03*
%TO.P,U4,7*%
%TO.N,GND*%
X138430000Y-62230000D03*
%TO.P,U4,8*%
%TO.N,N/C*%
X138430000Y-54610000D03*
%TO.P,U4,9*%
X135890000Y-54610000D03*
%TO.P,U4,10*%
X133350000Y-54610000D03*
%TO.P,U4,11*%
X130810000Y-54610000D03*
%TO.P,U4,12*%
X128270000Y-54610000D03*
%TO.P,U4,13*%
X125730000Y-54610000D03*
%TO.P,U4,14*%
%TO.N,+5V*%
X123190000Y-54610000D03*
%TD*%
D14*
%TO.P,U3,1,A*%
%TO.N,Net-(U3-A)*%
X158750000Y-46437500D03*
D15*
%TO.P,U3,2,K*%
%TO.N,GND*%
X158750000Y-48977500D03*
%TO.P,U3,3,C*%
%TO.N,Net-(U3-C)*%
X155950000Y-48977500D03*
%TO.P,U3,4,E*%
%TO.N,GND*%
X155950000Y-46437500D03*
%TD*%
D14*
%TO.P,U2,1,A*%
%TO.N,Net-(U2-A)*%
X130810000Y-46437500D03*
D15*
%TO.P,U2,2,K*%
%TO.N,GND*%
X130810000Y-48977500D03*
%TO.P,U2,3,C*%
%TO.N,Net-(U2-C)*%
X128010000Y-48977500D03*
%TO.P,U2,4,E*%
%TO.N,GND*%
X128010000Y-46437500D03*
%TD*%
%TO.P,U1,4,E*%
%TO.N,GND*%
X99940000Y-46437500D03*
%TO.P,U1,3,C*%
%TO.N,Net-(U1-C)*%
X99940000Y-48977500D03*
%TO.P,U1,2,K*%
%TO.N,GND*%
X102740000Y-48977500D03*
D14*
%TO.P,U1,1,A*%
%TO.N,Net-(U1-A)*%
X102740000Y-46437500D03*
%TD*%
D16*
%TO.P,R6,1*%
%TO.N,+5V*%
X154940000Y-54610000D03*
D17*
%TO.P,R6,2*%
%TO.N,Net-(U3-C)*%
X160020000Y-54610000D03*
%TD*%
D16*
%TO.P,R5,1*%
%TO.N,+5V*%
X151765000Y-50165000D03*
D17*
%TO.P,R5,2*%
%TO.N,Net-(U3-A)*%
X151765000Y-45085000D03*
%TD*%
D16*
%TO.P,R4,1*%
%TO.N,+5V*%
X135255000Y-50165000D03*
D17*
%TO.P,R4,2*%
%TO.N,Net-(U2-C)*%
X135255000Y-45085000D03*
%TD*%
D16*
%TO.P,R3,1*%
%TO.N,+5V*%
X123825000Y-50165000D03*
D17*
%TO.P,R3,2*%
%TO.N,Net-(U2-A)*%
X123825000Y-45085000D03*
%TD*%
D16*
%TO.P,R2,1*%
%TO.N,+5V*%
X107315000Y-50165000D03*
D17*
%TO.P,R2,2*%
%TO.N,Net-(U1-C)*%
X107315000Y-45085000D03*
%TD*%
D16*
%TO.P,R1,1*%
%TO.N,+5V*%
X104140000Y-54610000D03*
D17*
%TO.P,R1,2*%
%TO.N,Net-(U1-A)*%
X99060000Y-54610000D03*
%TD*%
D18*
%TO.P,J2,3,Pin_3*%
%TO.N,SENSORRIGHT*%
X132715000Y-66675000D03*
%TO.P,J2,2,Pin_2*%
%TO.N,SENSORMIDDLE*%
X130175000Y-66675000D03*
D19*
%TO.P,J2,1,Pin_1*%
%TO.N,SENSORLEFT*%
X127635000Y-66675000D03*
%TD*%
D20*
%TO.P,J1,1,Pin_1*%
%TO.N,+5V*%
X109855000Y-58420000D03*
D21*
%TO.P,J1,2,Pin_2*%
%TO.N,GND*%
X112395000Y-58420000D03*
%TD*%
D22*
%TO.N,Net-(U1-C)*%
X123190000Y-57150000D02*
X123190000Y-62230000D01*
X107315000Y-45085000D02*
X111125000Y-45085000D01*
X111125000Y-45085000D02*
X123190000Y-57150000D01*
%TO.N,Net-(U2-C)*%
X129470000Y-61030000D02*
X128270000Y-62230000D01*
X128010000Y-48977500D02*
X129470000Y-50437500D01*
X129470000Y-50437500D02*
X129470000Y-61030000D01*
%TO.N,GND*%
X134690000Y-58490000D02*
X138430000Y-62230000D01*
X134690000Y-52857500D02*
X134690000Y-58490000D01*
X130810000Y-48977500D02*
X134690000Y-52857500D01*
X138430000Y-61098630D02*
X138430000Y-62230000D01*
X153091130Y-46437500D02*
X138430000Y-61098630D01*
X155950000Y-46437500D02*
X153091130Y-46437500D01*
%TD*%
%TA.AperFunction,Conductor*%
%TO.N,GND*%
G36*
X134687865Y-55153348D02*
G01*
X134732382Y-55204725D01*
X134759429Y-55262728D01*
X134759432Y-55262734D01*
X134889951Y-55449137D01*
X134889952Y-55449138D01*
X134889953Y-55449139D01*
X134955306Y-55514492D01*
X134988790Y-55575813D01*
X134983806Y-55645505D01*
X134980418Y-55653684D01*
X134925164Y-55774670D01*
X134905478Y-55841711D01*
X134905476Y-55841716D01*
X134885000Y-55984137D01*
X134885000Y-58162016D01*
X134886450Y-58189070D01*
X134886450Y-58189071D01*
X134890731Y-58228879D01*
X134899385Y-58282288D01*
X134899385Y-58282290D01*
X134949666Y-58417095D01*
X134949668Y-58417100D01*
X134983153Y-58478423D01*
X135069377Y-58593604D01*
X135069381Y-58593608D01*
X135069386Y-58593614D01*
X136835199Y-60359426D01*
X137419173Y-60943400D01*
X137490489Y-61002686D01*
X137527841Y-61028332D01*
X137527846Y-61028335D01*
X137527845Y-61028335D01*
X137546778Y-61038919D01*
X137554949Y-61043488D01*
X137603858Y-61093384D01*
X137618028Y-61161802D01*
X137592958Y-61227019D01*
X137582120Y-61239402D01*
X137430339Y-61391183D01*
X137299867Y-61577515D01*
X137272657Y-61635867D01*
X137226484Y-61688306D01*
X137159290Y-61707457D01*
X137092409Y-61687241D01*
X137047893Y-61635865D01*
X137020570Y-61577271D01*
X137020567Y-61577265D01*
X136972535Y-61508668D01*
X136922839Y-61437693D01*
X136890045Y-61390858D01*
X136729141Y-61229954D01*
X136622546Y-61155317D01*
X136542734Y-61099432D01*
X136513923Y-61085997D01*
X136461485Y-61039825D01*
X136442334Y-60972631D01*
X136445164Y-60947257D01*
X136445686Y-60944860D01*
X136458935Y-60883953D01*
X136463919Y-60814261D01*
X136453655Y-60670750D01*
X136403373Y-60535941D01*
X136369888Y-60474618D01*
X136283664Y-60359437D01*
X136283658Y-60359431D01*
X136283654Y-60359426D01*
X134563015Y-58638787D01*
X134551333Y-58627786D01*
X134536450Y-58610981D01*
X134527481Y-58598787D01*
X134512816Y-58572785D01*
X134506182Y-58556775D01*
X134498150Y-58527960D01*
X134495871Y-58512980D01*
X134494517Y-58490587D01*
X134495000Y-58474576D01*
X134495000Y-55941381D01*
X134489564Y-55867443D01*
X134489563Y-55867442D01*
X134484259Y-55831564D01*
X134484259Y-55831561D01*
X134474546Y-55788167D01*
X134468072Y-55759236D01*
X134407264Y-55628837D01*
X134382125Y-55590395D01*
X134369027Y-55570365D01*
X134369025Y-55570362D01*
X134369022Y-55570358D01*
X134369019Y-55570353D01*
X134369014Y-55570348D01*
X134368999Y-55570327D01*
X134368992Y-55570310D01*
X134366339Y-55566065D01*
X134367217Y-55565515D01*
X134344734Y-55504806D01*
X134359744Y-55436568D01*
X134366863Y-55425123D01*
X134480568Y-55262734D01*
X134507618Y-55204724D01*
X134553790Y-55152285D01*
X134620983Y-55133133D01*
X134687865Y-55153348D01*
G37*
%TD.AperFunction*%
%TA.AperFunction,Conductor*%
G36*
X152745347Y-46203811D02*
G01*
X152878440Y-46237395D01*
X152878443Y-46237395D01*
X152878446Y-46237396D01*
X152947926Y-46244674D01*
X152947929Y-46244674D01*
X152947936Y-46244675D01*
X153058007Y-46240441D01*
X153064094Y-46240507D01*
X153087544Y-46241926D01*
X153106553Y-46242500D01*
X154526772Y-46242500D01*
X154593811Y-46262185D01*
X154639566Y-46314989D01*
X154650300Y-46377307D01*
X154645034Y-46437497D01*
X154645034Y-46437502D01*
X154650300Y-46497693D01*
X154636533Y-46566193D01*
X154587918Y-46616376D01*
X154526772Y-46632500D01*
X153419110Y-46632500D01*
X153392071Y-46633949D01*
X153392063Y-46633949D01*
X153392060Y-46633950D01*
X153392059Y-46633950D01*
X153352251Y-46638231D01*
X153298841Y-46646885D01*
X153298839Y-46646885D01*
X153164034Y-46697166D01*
X153102706Y-46730653D01*
X153102704Y-46730654D01*
X152987533Y-46816869D01*
X152987515Y-46816885D01*
X151402130Y-48402271D01*
X151389959Y-48415344D01*
X151377905Y-48428762D01*
X151377904Y-48428763D01*
X151300116Y-48549804D01*
X151300107Y-48549822D01*
X151271135Y-48613264D01*
X151271091Y-48613356D01*
X151230555Y-48751418D01*
X151230555Y-48895293D01*
X151230556Y-48895297D01*
X151240500Y-48964455D01*
X151240501Y-48964458D01*
X151240502Y-48964465D01*
X151242039Y-48969699D01*
X151242039Y-49039569D01*
X151204264Y-49098347D01*
X151188340Y-49110060D01*
X151038436Y-49202877D01*
X150874020Y-49352761D01*
X150739943Y-49530308D01*
X150739940Y-49530313D01*
X150716536Y-49577315D01*
X150669032Y-49628551D01*
X150601369Y-49645972D01*
X150579179Y-49643208D01*
X150522730Y-49630928D01*
X150522719Y-49630927D01*
X150489495Y-49628551D01*
X150453029Y-49625943D01*
X150453026Y-49625943D01*
X150309523Y-49636206D01*
X150309521Y-49636206D01*
X150174711Y-49686485D01*
X150174709Y-49686486D01*
X150113396Y-49719964D01*
X150113389Y-49719969D01*
X149998207Y-49806194D01*
X149998195Y-49806204D01*
X145194404Y-54609997D01*
X139009480Y-60794920D01*
X139009464Y-60794938D01*
X138941668Y-60879066D01*
X138941654Y-60879084D01*
X138912669Y-60924186D01*
X138859865Y-60969940D01*
X138790706Y-60979883D01*
X138776262Y-60976920D01*
X138656610Y-60944860D01*
X138656600Y-60944858D01*
X138600946Y-60939989D01*
X138535878Y-60914536D01*
X138494900Y-60857944D01*
X138491023Y-60788182D01*
X138524071Y-60728784D01*
X152424715Y-46828141D01*
X152424715Y-46828140D01*
X152424722Y-46828134D01*
X152446102Y-46803822D01*
X152475365Y-46765906D01*
X152499134Y-46730653D01*
X152511535Y-46712262D01*
X152565756Y-46578989D01*
X152582032Y-46513498D01*
X152582336Y-46512453D01*
X152582608Y-46511182D01*
X152582609Y-46511179D01*
X152597086Y-46368029D01*
X152593123Y-46346831D01*
X152600152Y-46277317D01*
X152643648Y-46222637D01*
X152709802Y-46200153D01*
X152745347Y-46203811D01*
G37*
%TD.AperFunction*%
%TA.AperFunction,Conductor*%
G36*
X131622317Y-49436263D02*
G01*
X131650816Y-49480607D01*
X131653871Y-49488797D01*
X131653873Y-49488802D01*
X131653876Y-49488808D01*
X131687361Y-49550131D01*
X131773585Y-49665312D01*
X131773589Y-49665316D01*
X131773594Y-49665322D01*
X134817012Y-52708739D01*
X134828649Y-52719695D01*
X134843524Y-52736486D01*
X134852504Y-52748693D01*
X134867183Y-52774718D01*
X134873823Y-52790747D01*
X134881855Y-52819572D01*
X134884131Y-52834548D01*
X134885483Y-52856917D01*
X134885000Y-52872920D01*
X134885000Y-53243383D01*
X134885447Y-53258420D01*
X134886772Y-53280647D01*
X134889452Y-53310590D01*
X134889452Y-53310594D01*
X134926687Y-53449561D01*
X134926692Y-53449575D01*
X134954194Y-53513800D01*
X134954196Y-53513803D01*
X134976462Y-53550334D01*
X134994545Y-53617823D01*
X134973269Y-53684375D01*
X134958262Y-53702551D01*
X134889951Y-53770862D01*
X134759432Y-53957265D01*
X134759431Y-53957267D01*
X134732382Y-54015275D01*
X134686209Y-54067714D01*
X134619016Y-54086866D01*
X134552135Y-54066650D01*
X134507618Y-54015275D01*
X134480568Y-53957267D01*
X134480567Y-53957265D01*
X134366816Y-53794809D01*
X134344489Y-53728602D01*
X134361500Y-53660835D01*
X134374674Y-53642488D01*
X134395067Y-53618955D01*
X134454838Y-53488078D01*
X134474523Y-53421039D01*
X134474524Y-53421035D01*
X134495000Y-53278619D01*
X134495000Y-53185480D01*
X134493551Y-53158441D01*
X134489269Y-53118621D01*
X134480614Y-53065209D01*
X134430332Y-52930400D01*
X134396847Y-52869077D01*
X134310623Y-52753896D01*
X134310618Y-52753891D01*
X134310613Y-52753885D01*
X132904212Y-51347485D01*
X131497812Y-49941085D01*
X131457685Y-49906592D01*
X131440094Y-49891470D01*
X131410093Y-49869380D01*
X131410094Y-49869381D01*
X131345567Y-49828989D01*
X131313615Y-49817646D01*
X131267418Y-49788472D01*
X130854399Y-49375453D01*
X130935148Y-49362665D01*
X131048045Y-49305141D01*
X131137641Y-49215545D01*
X131195165Y-49102648D01*
X131207953Y-49021899D01*
X131622317Y-49436263D01*
G37*
%TD.AperFunction*%
%TD*%
%TA.AperFunction,Conductor*%
%TO.N,+5V*%
G36*
X123440000Y-55888872D02*
G01*
X123636317Y-55836269D01*
X123636326Y-55836265D01*
X123842482Y-55740134D01*
X124028820Y-55609657D01*
X124189657Y-55448820D01*
X124320132Y-55262484D01*
X124347341Y-55204134D01*
X124393513Y-55151695D01*
X124460707Y-55132542D01*
X124527588Y-55152757D01*
X124572106Y-55204133D01*
X124599431Y-55262732D01*
X124599432Y-55262734D01*
X124729954Y-55449141D01*
X124890858Y-55610045D01*
X124890861Y-55610047D01*
X125077266Y-55740568D01*
X125283504Y-55836739D01*
X125503308Y-55895635D01*
X125665230Y-55909801D01*
X125729998Y-55915468D01*
X125730000Y-55915468D01*
X125730002Y-55915468D01*
X125786673Y-55910509D01*
X125956692Y-55895635D01*
X126176496Y-55836739D01*
X126382734Y-55740568D01*
X126569139Y-55610047D01*
X126730047Y-55449139D01*
X126860568Y-55262734D01*
X126887618Y-55204724D01*
X126933790Y-55152285D01*
X127000983Y-55133133D01*
X127067865Y-55153348D01*
X127112382Y-55204725D01*
X127139429Y-55262728D01*
X127139432Y-55262734D01*
X127269954Y-55449141D01*
X127430858Y-55610045D01*
X127430861Y-55610047D01*
X127617266Y-55740568D01*
X127823504Y-55836739D01*
X128043308Y-55895635D01*
X128205230Y-55909801D01*
X128269998Y-55915468D01*
X128270000Y-55915468D01*
X128270002Y-55915468D01*
X128326673Y-55910509D01*
X128496692Y-55895635D01*
X128613408Y-55864361D01*
X128683256Y-55866024D01*
X128741119Y-55905186D01*
X128768623Y-55969415D01*
X128769500Y-55984136D01*
X128769500Y-60688480D01*
X128749815Y-60755519D01*
X128733181Y-60776162D01*
X128600369Y-60908973D01*
X128539046Y-60942457D01*
X128501881Y-60944819D01*
X128496680Y-60944364D01*
X128477171Y-60942657D01*
X128270002Y-60924532D01*
X128269998Y-60924532D01*
X128043313Y-60944364D01*
X128043302Y-60944366D01*
X127823511Y-61003258D01*
X127823502Y-61003261D01*
X127617267Y-61099431D01*
X127617265Y-61099432D01*
X127430858Y-61229954D01*
X127269954Y-61390858D01*
X127139432Y-61577265D01*
X127139431Y-61577267D01*
X127112382Y-61635275D01*
X127066209Y-61687714D01*
X126999016Y-61706866D01*
X126932135Y-61686650D01*
X126887618Y-61635275D01*
X126860568Y-61577267D01*
X126860567Y-61577265D01*
X126730045Y-61390858D01*
X126569141Y-61229954D01*
X126382734Y-61099432D01*
X126382732Y-61099431D01*
X126176497Y-61003261D01*
X126176488Y-61003258D01*
X125956697Y-60944366D01*
X125956693Y-60944365D01*
X125956692Y-60944365D01*
X125956691Y-60944364D01*
X125956686Y-60944364D01*
X125730002Y-60924532D01*
X125729998Y-60924532D01*
X125503313Y-60944364D01*
X125503302Y-60944366D01*
X125283511Y-61003258D01*
X125283502Y-61003261D01*
X125077267Y-61099431D01*
X125077265Y-61099432D01*
X124890858Y-61229954D01*
X124729954Y-61390858D01*
X124712725Y-61415464D01*
X124658147Y-61459088D01*
X124588648Y-61466280D01*
X124526294Y-61434757D01*
X124490882Y-61374526D01*
X124487861Y-61357591D01*
X124484091Y-61322516D01*
X124433797Y-61187671D01*
X124433793Y-61187664D01*
X124347547Y-61072455D01*
X124347544Y-61072452D01*
X124232335Y-60986206D01*
X124232328Y-60986202D01*
X124097482Y-60935908D01*
X124097483Y-60935908D01*
X124037883Y-60929501D01*
X124037881Y-60929500D01*
X124037873Y-60929500D01*
X124037865Y-60929500D01*
X124014500Y-60929500D01*
X123947461Y-60909815D01*
X123901706Y-60857011D01*
X123890500Y-60805500D01*
X123890500Y-57173047D01*
X123890613Y-57169302D01*
X123894358Y-57107394D01*
X123883175Y-57046371D01*
X123882613Y-57042674D01*
X123880316Y-57023760D01*
X123875140Y-56981128D01*
X123871548Y-56971656D01*
X123865521Y-56950034D01*
X123863695Y-56940071D01*
X123863695Y-56940069D01*
X123838224Y-56883476D01*
X123836817Y-56880079D01*
X123814818Y-56822070D01*
X123814816Y-56822068D01*
X123814816Y-56822066D01*
X123809062Y-56813731D01*
X123798034Y-56794177D01*
X123793880Y-56784947D01*
X123793878Y-56784944D01*
X123755621Y-56736112D01*
X123753427Y-56733130D01*
X123718183Y-56682071D01*
X123671750Y-56640935D01*
X123669056Y-56638399D01*
X122976319Y-55945662D01*
X122942834Y-55884339D01*
X122940000Y-55857981D01*
X122940000Y-54925686D01*
X122951955Y-54937641D01*
X123064852Y-54995165D01*
X123158519Y-55010000D01*
X123221481Y-55010000D01*
X123315148Y-54995165D01*
X123428045Y-54937641D01*
X123440000Y-54925686D01*
X123440000Y-55888872D01*
G37*
%TD.AperFunction*%
%TA.AperFunction,Conductor*%
G36*
X161867539Y-42565185D02*
G01*
X161913294Y-42617989D01*
X161924500Y-42669500D01*
X161924500Y-69090500D01*
X161904815Y-69157539D01*
X161852011Y-69203294D01*
X161800500Y-69214500D01*
X96644500Y-69214500D01*
X96577461Y-69194815D01*
X96531706Y-69142011D01*
X96520500Y-69090500D01*
X96520500Y-65405000D01*
X96824696Y-65405000D01*
X96843898Y-65771405D01*
X96901294Y-66133788D01*
X96901294Y-66133790D01*
X96996260Y-66488206D01*
X97127746Y-66830739D01*
X97294320Y-67157656D01*
X97494147Y-67465364D01*
X97695078Y-67713493D01*
X97725051Y-67750506D01*
X97984494Y-68009949D01*
X98003697Y-68025499D01*
X98269635Y-68240852D01*
X98577343Y-68440679D01*
X98577348Y-68440682D01*
X98904264Y-68607255D01*
X99246801Y-68738742D01*
X99601206Y-68833705D01*
X99963596Y-68891102D01*
X100309734Y-68909241D01*
X100329999Y-68910304D01*
X100330000Y-68910304D01*
X100330001Y-68910304D01*
X100349203Y-68909297D01*
X100696404Y-68891102D01*
X101058794Y-68833705D01*
X101413199Y-68738742D01*
X101755736Y-68607255D01*
X102082652Y-68440682D01*
X102390366Y-68240851D01*
X102675506Y-68009949D01*
X102934949Y-67750506D01*
X103078796Y-67572870D01*
X126284500Y-67572870D01*
X126284501Y-67572876D01*
X126290908Y-67632483D01*
X126341202Y-67767328D01*
X126341206Y-67767335D01*
X126427452Y-67882544D01*
X126427455Y-67882547D01*
X126542664Y-67968793D01*
X126542671Y-67968797D01*
X126677517Y-68019091D01*
X126677516Y-68019091D01*
X126684444Y-68019835D01*
X126737127Y-68025500D01*
X128532872Y-68025499D01*
X128592483Y-68019091D01*
X128727331Y-67968796D01*
X128842546Y-67882546D01*
X128928796Y-67767331D01*
X128977810Y-67635916D01*
X129019681Y-67579984D01*
X129085145Y-67555566D01*
X129153418Y-67570417D01*
X129181673Y-67591569D01*
X129303599Y-67713495D01*
X129400384Y-67781265D01*
X129497165Y-67849032D01*
X129497167Y-67849033D01*
X129497170Y-67849035D01*
X129711337Y-67948903D01*
X129939592Y-68010063D01*
X130116034Y-68025500D01*
X130174999Y-68030659D01*
X130175000Y-68030659D01*
X130175001Y-68030659D01*
X130233966Y-68025500D01*
X130410408Y-68010063D01*
X130638663Y-67948903D01*
X130852830Y-67849035D01*
X131046401Y-67713495D01*
X131213495Y-67546401D01*
X131343425Y-67360842D01*
X131398002Y-67317217D01*
X131467500Y-67310023D01*
X131529855Y-67341546D01*
X131546575Y-67360842D01*
X131676500Y-67546395D01*
X131676505Y-67546401D01*
X131843599Y-67713495D01*
X131940384Y-67781265D01*
X132037165Y-67849032D01*
X132037167Y-67849033D01*
X132037170Y-67849035D01*
X132251337Y-67948903D01*
X132479592Y-68010063D01*
X132656034Y-68025500D01*
X132714999Y-68030659D01*
X132715000Y-68030659D01*
X132715001Y-68030659D01*
X132773966Y-68025500D01*
X132950408Y-68010063D01*
X133178663Y-67948903D01*
X133392830Y-67849035D01*
X133586401Y-67713495D01*
X133753495Y-67546401D01*
X133889035Y-67352830D01*
X133988903Y-67138663D01*
X134050063Y-66910408D01*
X134070659Y-66675000D01*
X134050063Y-66439592D01*
X133988903Y-66211337D01*
X133889035Y-65997171D01*
X133883425Y-65989158D01*
X133753494Y-65803597D01*
X133586402Y-65636506D01*
X133586395Y-65636501D01*
X133392834Y-65500967D01*
X133392830Y-65500965D01*
X133392828Y-65500964D01*
X133187033Y-65405000D01*
X153974696Y-65405000D01*
X153993898Y-65771405D01*
X154051294Y-66133788D01*
X154051294Y-66133790D01*
X154146260Y-66488206D01*
X154277746Y-66830739D01*
X154444320Y-67157656D01*
X154644147Y-67465364D01*
X154845078Y-67713493D01*
X154875051Y-67750506D01*
X155134494Y-68009949D01*
X155153697Y-68025499D01*
X155419635Y-68240852D01*
X155727343Y-68440679D01*
X155727348Y-68440682D01*
X156054264Y-68607255D01*
X156396801Y-68738742D01*
X156751206Y-68833705D01*
X157113596Y-68891102D01*
X157459734Y-68909241D01*
X157479999Y-68910304D01*
X157480000Y-68910304D01*
X157480001Y-68910304D01*
X157499203Y-68909297D01*
X157846404Y-68891102D01*
X158208794Y-68833705D01*
X158563199Y-68738742D01*
X158905736Y-68607255D01*
X159232652Y-68440682D01*
X159540366Y-68240851D01*
X159825506Y-68009949D01*
X160084949Y-67750506D01*
X160315851Y-67465366D01*
X160515682Y-67157652D01*
X160682255Y-66830736D01*
X160813742Y-66488199D01*
X160908705Y-66133794D01*
X160966102Y-65771404D01*
X160985304Y-65405000D01*
X160966102Y-65038596D01*
X160908705Y-64676206D01*
X160813742Y-64321801D01*
X160682255Y-63979264D01*
X160515682Y-63652348D01*
X160439780Y-63535468D01*
X160315852Y-63344635D01*
X160099831Y-63077872D01*
X160084949Y-63059494D01*
X159825506Y-62800051D01*
X159672930Y-62676497D01*
X159540364Y-62569147D01*
X159232656Y-62369320D01*
X158905739Y-62202746D01*
X158563206Y-62071260D01*
X158563199Y-62071258D01*
X158208794Y-61976295D01*
X158208790Y-61976294D01*
X158208789Y-61976294D01*
X157846405Y-61918898D01*
X157480001Y-61899696D01*
X157479999Y-61899696D01*
X157113594Y-61918898D01*
X156751211Y-61976294D01*
X156751209Y-61976294D01*
X156396793Y-62071260D01*
X156054260Y-62202746D01*
X155727343Y-62369320D01*
X155419635Y-62569147D01*
X155134498Y-62800047D01*
X155134490Y-62800054D01*
X154875054Y-63059490D01*
X154875047Y-63059498D01*
X154644147Y-63344635D01*
X154444320Y-63652343D01*
X154277746Y-63979260D01*
X154146260Y-64321793D01*
X154051294Y-64676209D01*
X154051294Y-64676211D01*
X153993898Y-65038594D01*
X153974696Y-65404999D01*
X153974696Y-65405000D01*
X133187033Y-65405000D01*
X133178663Y-65401097D01*
X133178659Y-65401096D01*
X133178655Y-65401094D01*
X132950413Y-65339938D01*
X132950403Y-65339936D01*
X132715001Y-65319341D01*
X132714999Y-65319341D01*
X132479596Y-65339936D01*
X132479586Y-65339938D01*
X132251344Y-65401094D01*
X132251335Y-65401098D01*
X132037171Y-65500964D01*
X132037169Y-65500965D01*
X131843597Y-65636505D01*
X131676505Y-65803597D01*
X131546575Y-65989158D01*
X131491998Y-66032783D01*
X131422500Y-66039977D01*
X131360145Y-66008454D01*
X131343425Y-65989158D01*
X131213494Y-65803597D01*
X131046402Y-65636506D01*
X131046395Y-65636501D01*
X130852834Y-65500967D01*
X130852830Y-65500965D01*
X130852828Y-65500964D01*
X130638663Y-65401097D01*
X130638659Y-65401096D01*
X130638655Y-65401094D01*
X130410413Y-65339938D01*
X130410403Y-65339936D01*
X130175001Y-65319341D01*
X130174999Y-65319341D01*
X129939596Y-65339936D01*
X129939586Y-65339938D01*
X129711344Y-65401094D01*
X129711335Y-65401098D01*
X129497171Y-65500964D01*
X129497169Y-65500965D01*
X129303600Y-65636503D01*
X129181673Y-65758430D01*
X129120350Y-65791914D01*
X129050658Y-65786930D01*
X128994725Y-65745058D01*
X128977810Y-65714081D01*
X128928797Y-65582671D01*
X128928793Y-65582664D01*
X128842547Y-65467455D01*
X128842544Y-65467452D01*
X128727335Y-65381206D01*
X128727328Y-65381202D01*
X128592482Y-65330908D01*
X128592483Y-65330908D01*
X128532883Y-65324501D01*
X128532881Y-65324500D01*
X128532873Y-65324500D01*
X128532864Y-65324500D01*
X126737129Y-65324500D01*
X126737123Y-65324501D01*
X126677516Y-65330908D01*
X126542671Y-65381202D01*
X126542664Y-65381206D01*
X126427455Y-65467452D01*
X126427452Y-65467455D01*
X126341206Y-65582664D01*
X126341202Y-65582671D01*
X126290908Y-65717517D01*
X126284501Y-65777116D01*
X126284500Y-65777135D01*
X126284500Y-67572870D01*
X103078796Y-67572870D01*
X103165851Y-67465366D01*
X103365682Y-67157652D01*
X103532255Y-66830736D01*
X103663742Y-66488199D01*
X103758705Y-66133794D01*
X103816102Y-65771404D01*
X103835304Y-65405000D01*
X103816102Y-65038596D01*
X103758705Y-64676206D01*
X103663742Y-64321801D01*
X103532255Y-63979264D01*
X103365682Y-63652348D01*
X103289780Y-63535468D01*
X103165852Y-63344635D01*
X102949831Y-63077872D01*
X102934949Y-63059494D01*
X102675506Y-62800051D01*
X102522930Y-62676497D01*
X102390364Y-62569147D01*
X102082656Y-62369320D01*
X101755739Y-62202746D01*
X101413206Y-62071260D01*
X101413199Y-62071258D01*
X101058794Y-61976295D01*
X101058790Y-61976294D01*
X101058789Y-61976294D01*
X100696405Y-61918898D01*
X100330001Y-61899696D01*
X100329999Y-61899696D01*
X99963594Y-61918898D01*
X99601211Y-61976294D01*
X99601209Y-61976294D01*
X99246793Y-62071260D01*
X98904260Y-62202746D01*
X98577343Y-62369320D01*
X98269635Y-62569147D01*
X97984498Y-62800047D01*
X97984490Y-62800054D01*
X97725054Y-63059490D01*
X97725047Y-63059498D01*
X97494147Y-63344635D01*
X97294320Y-63652343D01*
X97127746Y-63979260D01*
X96996260Y-64321793D01*
X96901294Y-64676209D01*
X96901294Y-64676211D01*
X96843898Y-65038594D01*
X96824696Y-65404999D01*
X96824696Y-65405000D01*
X96520500Y-65405000D01*
X96520500Y-58170000D01*
X108485000Y-58170000D01*
X109314530Y-58170000D01*
X109275315Y-58264674D01*
X109254866Y-58420000D01*
X109275315Y-58575326D01*
X109314530Y-58670000D01*
X108485001Y-58670000D01*
X108485001Y-59314986D01*
X108495494Y-59417697D01*
X108550641Y-59584119D01*
X108550643Y-59584124D01*
X108642684Y-59733345D01*
X108766654Y-59857315D01*
X108915875Y-59949356D01*
X108915880Y-59949358D01*
X109082302Y-60004505D01*
X109082309Y-60004506D01*
X109185019Y-60014999D01*
X109604999Y-60014999D01*
X109605000Y-60014998D01*
X109605000Y-58960469D01*
X109699674Y-58999685D01*
X109816003Y-59015000D01*
X109893997Y-59015000D01*
X110010326Y-58999685D01*
X110105000Y-58960469D01*
X110105000Y-60014999D01*
X110524972Y-60014999D01*
X110524986Y-60014998D01*
X110627697Y-60004505D01*
X110794119Y-59949358D01*
X110794124Y-59949356D01*
X110943345Y-59857315D01*
X111067315Y-59733345D01*
X111159359Y-59584118D01*
X111160496Y-59581681D01*
X111161722Y-59580287D01*
X111163149Y-59577975D01*
X111163544Y-59578218D01*
X111206664Y-59529237D01*
X111273855Y-59510080D01*
X111340738Y-59530290D01*
X111362404Y-59548275D01*
X111486272Y-59677516D01*
X111486273Y-59677517D01*
X111673834Y-59816237D01*
X111673836Y-59816238D01*
X111673839Y-59816240D01*
X111882153Y-59921270D01*
X112105220Y-59989583D01*
X112336624Y-60019216D01*
X112569707Y-60009314D01*
X112797765Y-59960164D01*
X113014235Y-59873179D01*
X113212891Y-59750862D01*
X113388018Y-59596731D01*
X113534578Y-59415220D01*
X113648354Y-59211552D01*
X113726073Y-58991584D01*
X113765500Y-58761647D01*
X113765500Y-58136784D01*
X113750670Y-57962547D01*
X113691885Y-57736781D01*
X113595792Y-57524198D01*
X113465153Y-57330912D01*
X113303728Y-57162484D01*
X113303727Y-57162483D01*
X113303726Y-57162482D01*
X113116165Y-57023762D01*
X113109122Y-57020211D01*
X112907847Y-56918730D01*
X112684780Y-56850417D01*
X112684778Y-56850416D01*
X112684776Y-56850416D01*
X112453370Y-56820783D01*
X112220299Y-56830685D01*
X112220290Y-56830686D01*
X111992233Y-56879836D01*
X111992230Y-56879837D01*
X111775768Y-56966819D01*
X111577110Y-57089137D01*
X111401981Y-57243269D01*
X111369313Y-57283728D01*
X111311881Y-57323521D01*
X111242054Y-57325946D01*
X111182000Y-57290235D01*
X111160449Y-57258221D01*
X111159354Y-57255872D01*
X111067315Y-57106654D01*
X110943345Y-56982684D01*
X110794124Y-56890643D01*
X110794119Y-56890641D01*
X110627697Y-56835494D01*
X110627690Y-56835493D01*
X110524986Y-56825000D01*
X110105000Y-56825000D01*
X110105000Y-57879530D01*
X110010326Y-57840315D01*
X109893997Y-57825000D01*
X109816003Y-57825000D01*
X109699674Y-57840315D01*
X109605000Y-57879530D01*
X109605000Y-56825000D01*
X109185028Y-56825000D01*
X109185012Y-56825001D01*
X109082302Y-56835494D01*
X108915880Y-56890641D01*
X108915875Y-56890643D01*
X108766654Y-56982684D01*
X108642684Y-57106654D01*
X108550643Y-57255875D01*
X108550641Y-57255880D01*
X108495494Y-57422302D01*
X108495493Y-57422309D01*
X108485000Y-57525013D01*
X108485000Y-58170000D01*
X96520500Y-58170000D01*
X96520500Y-54610000D01*
X97854357Y-54610000D01*
X97874884Y-54831535D01*
X97874885Y-54831537D01*
X97935769Y-55045523D01*
X97935775Y-55045538D01*
X98034938Y-55244683D01*
X98034943Y-55244691D01*
X98169020Y-55422238D01*
X98333437Y-55572123D01*
X98333439Y-55572125D01*
X98522595Y-55689245D01*
X98522596Y-55689245D01*
X98522599Y-55689247D01*
X98730060Y-55769618D01*
X98948757Y-55810500D01*
X98948759Y-55810500D01*
X99171241Y-55810500D01*
X99171243Y-55810500D01*
X99389940Y-55769618D01*
X99597401Y-55689247D01*
X99714278Y-55616880D01*
X103486672Y-55616880D01*
X103602821Y-55688797D01*
X103602822Y-55688798D01*
X103810195Y-55769134D01*
X104028807Y-55810000D01*
X104251193Y-55810000D01*
X104469809Y-55769133D01*
X104677168Y-55688801D01*
X104677181Y-55688795D01*
X104793326Y-55616879D01*
X104140001Y-54963553D01*
X104140000Y-54963553D01*
X103486672Y-55616879D01*
X103486672Y-55616880D01*
X99714278Y-55616880D01*
X99786562Y-55572124D01*
X99950981Y-55422236D01*
X100085058Y-55244689D01*
X100184229Y-55045528D01*
X100245115Y-54831536D01*
X100265643Y-54610000D01*
X102934859Y-54610000D01*
X102955378Y-54831439D01*
X103016240Y-55045350D01*
X103115369Y-55244428D01*
X103131137Y-55265308D01*
X103131138Y-55265308D01*
X103757145Y-54639302D01*
X103786372Y-54639302D01*
X103815047Y-54752538D01*
X103878936Y-54850327D01*
X103971115Y-54922072D01*
X104081595Y-54960000D01*
X104169005Y-54960000D01*
X104255216Y-54945614D01*
X104357947Y-54890019D01*
X104437060Y-54804079D01*
X104483982Y-54697108D01*
X104491200Y-54610000D01*
X104493553Y-54610000D01*
X105148861Y-55265308D01*
X105164631Y-55244425D01*
X105164633Y-55244422D01*
X105263759Y-55045350D01*
X105324621Y-54831439D01*
X105345141Y-54610000D01*
X105345141Y-54609999D01*
X105324621Y-54388560D01*
X105263759Y-54174649D01*
X105164635Y-53975580D01*
X105164630Y-53975572D01*
X105148860Y-53954690D01*
X104493553Y-54609999D01*
X104493553Y-54610000D01*
X104491200Y-54610000D01*
X104493628Y-54580698D01*
X104464953Y-54467462D01*
X104401064Y-54369673D01*
X104308885Y-54297928D01*
X104198405Y-54260000D01*
X104110995Y-54260000D01*
X104024784Y-54274386D01*
X103922053Y-54329981D01*
X103842940Y-54415921D01*
X103796018Y-54522892D01*
X103786372Y-54639302D01*
X103757145Y-54639302D01*
X103786447Y-54610000D01*
X103131138Y-53954691D01*
X103131137Y-53954691D01*
X103115368Y-53975574D01*
X103016240Y-54174649D01*
X102955378Y-54388560D01*
X102934859Y-54609999D01*
X102934859Y-54610000D01*
X100265643Y-54610000D01*
X100245115Y-54388464D01*
X100184229Y-54174472D01*
X100184224Y-54174461D01*
X100085061Y-53975316D01*
X100085056Y-53975308D01*
X99950979Y-53797761D01*
X99786562Y-53647876D01*
X99786560Y-53647874D01*
X99714278Y-53603119D01*
X103486671Y-53603119D01*
X104140000Y-54256447D01*
X104140001Y-54256447D01*
X104793327Y-53603119D01*
X104677178Y-53531202D01*
X104677177Y-53531201D01*
X104469804Y-53450865D01*
X104251193Y-53410000D01*
X104028807Y-53410000D01*
X103810195Y-53450865D01*
X103602824Y-53531200D01*
X103602823Y-53531201D01*
X103486671Y-53603119D01*
X99714278Y-53603119D01*
X99597404Y-53530754D01*
X99597398Y-53530752D01*
X99389940Y-53450382D01*
X99171243Y-53409500D01*
X98948757Y-53409500D01*
X98730060Y-53450382D01*
X98653956Y-53479865D01*
X98522601Y-53530752D01*
X98522595Y-53530754D01*
X98333439Y-53647874D01*
X98333437Y-53647876D01*
X98169020Y-53797761D01*
X98034943Y-53975308D01*
X98034938Y-53975316D01*
X97935775Y-54174461D01*
X97935769Y-54174476D01*
X97874885Y-54388462D01*
X97874884Y-54388464D01*
X97854357Y-54609999D01*
X97854357Y-54610000D01*
X96520500Y-54610000D01*
X96520500Y-51171880D01*
X106661672Y-51171880D01*
X106777821Y-51243797D01*
X106777822Y-51243798D01*
X106985195Y-51324134D01*
X107203807Y-51365000D01*
X107426193Y-51365000D01*
X107644809Y-51324133D01*
X107852168Y-51243801D01*
X107852181Y-51243795D01*
X107968326Y-51171879D01*
X107315001Y-50518553D01*
X107315000Y-50518553D01*
X106661672Y-51171879D01*
X106661672Y-51171880D01*
X96520500Y-51171880D01*
X96520500Y-48977501D01*
X98634532Y-48977501D01*
X98654364Y-49204186D01*
X98654366Y-49204197D01*
X98713258Y-49423988D01*
X98713261Y-49423997D01*
X98809431Y-49630232D01*
X98809432Y-49630234D01*
X98939954Y-49816641D01*
X99100858Y-49977545D01*
X99100861Y-49977547D01*
X99287266Y-50108068D01*
X99493504Y-50204239D01*
X99713308Y-50263135D01*
X99875230Y-50277301D01*
X99939998Y-50282968D01*
X99940000Y-50282968D01*
X99940002Y-50282968D01*
X99996673Y-50278009D01*
X100166692Y-50263135D01*
X100386496Y-50204239D01*
X100592734Y-50108068D01*
X100779139Y-49977547D01*
X100940047Y-49816639D01*
X101070568Y-49630234D01*
X101166739Y-49423996D01*
X101220225Y-49224381D01*
X101256590Y-49164721D01*
X101319437Y-49134192D01*
X101388812Y-49142487D01*
X101442690Y-49186972D01*
X101459775Y-49224382D01*
X101513258Y-49423988D01*
X101513261Y-49423997D01*
X101609431Y-49630232D01*
X101609432Y-49630234D01*
X101739954Y-49816641D01*
X101900858Y-49977545D01*
X101900861Y-49977547D01*
X102087266Y-50108068D01*
X102293504Y-50204239D01*
X102513308Y-50263135D01*
X102675230Y-50277301D01*
X102739998Y-50282968D01*
X102740000Y-50282968D01*
X102740002Y-50282968D01*
X102796673Y-50278009D01*
X102966692Y-50263135D01*
X103186496Y-50204239D01*
X103270644Y-50165000D01*
X106109859Y-50165000D01*
X106130378Y-50386439D01*
X106191240Y-50600350D01*
X106290369Y-50799428D01*
X106306137Y-50820308D01*
X106306138Y-50820308D01*
X106932145Y-50194302D01*
X106961372Y-50194302D01*
X106990047Y-50307538D01*
X107053936Y-50405327D01*
X107146115Y-50477072D01*
X107256595Y-50515000D01*
X107344005Y-50515000D01*
X107430216Y-50500614D01*
X107532947Y-50445019D01*
X107612060Y-50359079D01*
X107658982Y-50252108D01*
X107666200Y-50165000D01*
X107668553Y-50165000D01*
X108323861Y-50820308D01*
X108339631Y-50799425D01*
X108339633Y-50799422D01*
X108438759Y-50600350D01*
X108499621Y-50386439D01*
X108520141Y-50165000D01*
X108520141Y-50164999D01*
X108499621Y-49943560D01*
X108438759Y-49729649D01*
X108339635Y-49530580D01*
X108339630Y-49530572D01*
X108323860Y-49509690D01*
X107668553Y-50164999D01*
X107668553Y-50165000D01*
X107666200Y-50165000D01*
X107668628Y-50135698D01*
X107639953Y-50022462D01*
X107576064Y-49924673D01*
X107483885Y-49852928D01*
X107373405Y-49815000D01*
X107285995Y-49815000D01*
X107199784Y-49829386D01*
X107097053Y-49884981D01*
X107017940Y-49970921D01*
X106971018Y-50077892D01*
X106961372Y-50194302D01*
X106932145Y-50194302D01*
X106961447Y-50165000D01*
X106306138Y-49509691D01*
X106306137Y-49509691D01*
X106290368Y-49530574D01*
X106191240Y-49729649D01*
X106130378Y-49943560D01*
X106109859Y-50164999D01*
X106109859Y-50165000D01*
X103270644Y-50165000D01*
X103392734Y-50108068D01*
X103579139Y-49977547D01*
X103740047Y-49816639D01*
X103870568Y-49630234D01*
X103966739Y-49423996D01*
X104025635Y-49204192D01*
X104029666Y-49158119D01*
X106661671Y-49158119D01*
X107315000Y-49811447D01*
X107315001Y-49811447D01*
X107968327Y-49158119D01*
X107852178Y-49086202D01*
X107852177Y-49086201D01*
X107644804Y-49005865D01*
X107426193Y-48965000D01*
X107203807Y-48965000D01*
X106985195Y-49005865D01*
X106777824Y-49086200D01*
X106777823Y-49086201D01*
X106661671Y-49158119D01*
X104029666Y-49158119D01*
X104045468Y-48977500D01*
X104044374Y-48965000D01*
X104026421Y-48759797D01*
X104025635Y-48750808D01*
X103966739Y-48531004D01*
X103870568Y-48324766D01*
X103740047Y-48138361D01*
X103740045Y-48138358D01*
X103579144Y-47977457D01*
X103579140Y-47977454D01*
X103579139Y-47977453D01*
X103495394Y-47918815D01*
X103451772Y-47864241D01*
X103444578Y-47794743D01*
X103476100Y-47732388D01*
X103527515Y-47699537D01*
X103609564Y-47672349D01*
X103758806Y-47580295D01*
X103882795Y-47456306D01*
X103974849Y-47307064D01*
X104030004Y-47140616D01*
X104040500Y-47037879D01*
X104040499Y-45837122D01*
X104030004Y-45734384D01*
X103974849Y-45567936D01*
X103974845Y-45567930D01*
X103974844Y-45567927D01*
X103882797Y-45418697D01*
X103882794Y-45418693D01*
X103758806Y-45294705D01*
X103758802Y-45294702D01*
X103609572Y-45202655D01*
X103609566Y-45202652D01*
X103609564Y-45202651D01*
X103443116Y-45147496D01*
X103443113Y-45147495D01*
X103443114Y-45147495D01*
X103340380Y-45137000D01*
X102139628Y-45137000D01*
X102139612Y-45137001D01*
X102036882Y-45147496D01*
X101870438Y-45202650D01*
X101870427Y-45202655D01*
X101721197Y-45294702D01*
X101721193Y-45294705D01*
X101597205Y-45418693D01*
X101597202Y-45418697D01*
X101505155Y-45567927D01*
X101505150Y-45567938D01*
X101449995Y-45734387D01*
X101439500Y-45837113D01*
X101439500Y-46067088D01*
X101419815Y-46134127D01*
X101367011Y-46179882D01*
X101297853Y-46189826D01*
X101234297Y-46160801D01*
X101196523Y-46102023D01*
X101195725Y-46099181D01*
X101166741Y-45991011D01*
X101166738Y-45991002D01*
X101094982Y-45837122D01*
X101070568Y-45784766D01*
X100940047Y-45598361D01*
X100940045Y-45598358D01*
X100779141Y-45437454D01*
X100592734Y-45306932D01*
X100592732Y-45306931D01*
X100386497Y-45210761D01*
X100386488Y-45210758D01*
X100166697Y-45151866D01*
X100166693Y-45151865D01*
X100166692Y-45151865D01*
X100166691Y-45151864D01*
X100166686Y-45151864D01*
X99940002Y-45132032D01*
X99939998Y-45132032D01*
X99713313Y-45151864D01*
X99713302Y-45151866D01*
X99493511Y-45210758D01*
X99493502Y-45210761D01*
X99287267Y-45306931D01*
X99287265Y-45306932D01*
X99100858Y-45437454D01*
X98939954Y-45598358D01*
X98809432Y-45784765D01*
X98809431Y-45784767D01*
X98713261Y-45991002D01*
X98713258Y-45991011D01*
X98654366Y-46210802D01*
X98654364Y-46210813D01*
X98634532Y-46437498D01*
X98634532Y-46437501D01*
X98654364Y-46664186D01*
X98654366Y-46664197D01*
X98713258Y-46883988D01*
X98713261Y-46883997D01*
X98809431Y-47090232D01*
X98809432Y-47090234D01*
X98939954Y-47276641D01*
X99100858Y-47437545D01*
X99100861Y-47437547D01*
X99287266Y-47568068D01*
X99345275Y-47595118D01*
X99397714Y-47641291D01*
X99416866Y-47708484D01*
X99396650Y-47775365D01*
X99345275Y-47819882D01*
X99287267Y-47846931D01*
X99287265Y-47846932D01*
X99100858Y-47977454D01*
X98939954Y-48138358D01*
X98809432Y-48324765D01*
X98809431Y-48324767D01*
X98713261Y-48531002D01*
X98713258Y-48531011D01*
X98654366Y-48750802D01*
X98654364Y-48750813D01*
X98634532Y-48977498D01*
X98634532Y-48977501D01*
X96520500Y-48977501D01*
X96520500Y-45085000D01*
X106109357Y-45085000D01*
X106129884Y-45306535D01*
X106129885Y-45306537D01*
X106190769Y-45520523D01*
X106190775Y-45520538D01*
X106289938Y-45719683D01*
X106289943Y-45719691D01*
X106424020Y-45897238D01*
X106588437Y-46047123D01*
X106588439Y-46047125D01*
X106777595Y-46164245D01*
X106777596Y-46164245D01*
X106777599Y-46164247D01*
X106985060Y-46244618D01*
X107203757Y-46285500D01*
X107203759Y-46285500D01*
X107426241Y-46285500D01*
X107426243Y-46285500D01*
X107644940Y-46244618D01*
X107852401Y-46164247D01*
X108041562Y-46047124D01*
X108205981Y-45897236D01*
X108239780Y-45852478D01*
X108253151Y-45834773D01*
X108309260Y-45793137D01*
X108352105Y-45785500D01*
X110783481Y-45785500D01*
X110850520Y-45805185D01*
X110871162Y-45821819D01*
X122453181Y-57403838D01*
X122486666Y-57465161D01*
X122489500Y-57491519D01*
X122489500Y-60805500D01*
X122469815Y-60872539D01*
X122417011Y-60918294D01*
X122365505Y-60929500D01*
X122342132Y-60929500D01*
X122342123Y-60929501D01*
X122282516Y-60935908D01*
X122147671Y-60986202D01*
X122147664Y-60986206D01*
X122032455Y-61072452D01*
X122032452Y-61072455D01*
X121946206Y-61187664D01*
X121946202Y-61187671D01*
X121895908Y-61322517D01*
X121889501Y-61382116D01*
X121889500Y-61382135D01*
X121889500Y-63077870D01*
X121889501Y-63077876D01*
X121895908Y-63137483D01*
X121946202Y-63272328D01*
X121946206Y-63272335D01*
X122032452Y-63387544D01*
X122032455Y-63387547D01*
X122147664Y-63473793D01*
X122147671Y-63473797D01*
X122282517Y-63524091D01*
X122282516Y-63524091D01*
X122289444Y-63524835D01*
X122342127Y-63530500D01*
X124037872Y-63530499D01*
X124097483Y-63524091D01*
X124232331Y-63473796D01*
X124347546Y-63387546D01*
X124433796Y-63272331D01*
X124484091Y-63137483D01*
X124487862Y-63102401D01*
X124514599Y-63037855D01*
X124571990Y-62998006D01*
X124641816Y-62995511D01*
X124701905Y-63031163D01*
X124712725Y-63044535D01*
X124723202Y-63059498D01*
X124729956Y-63069143D01*
X124890858Y-63230045D01*
X124890861Y-63230047D01*
X125077266Y-63360568D01*
X125283504Y-63456739D01*
X125503308Y-63515635D01*
X125665230Y-63529801D01*
X125729998Y-63535468D01*
X125730000Y-63535468D01*
X125730002Y-63535468D01*
X125786807Y-63530498D01*
X125956692Y-63515635D01*
X126176496Y-63456739D01*
X126382734Y-63360568D01*
X126569139Y-63230047D01*
X126730047Y-63069139D01*
X126860568Y-62882734D01*
X126887618Y-62824724D01*
X126933790Y-62772285D01*
X127000983Y-62753133D01*
X127067865Y-62773348D01*
X127112382Y-62824725D01*
X127139429Y-62882728D01*
X127139432Y-62882734D01*
X127269954Y-63069141D01*
X127430858Y-63230045D01*
X127430861Y-63230047D01*
X127617266Y-63360568D01*
X127823504Y-63456739D01*
X128043308Y-63515635D01*
X128205230Y-63529801D01*
X128269998Y-63535468D01*
X128270000Y-63535468D01*
X128270002Y-63535468D01*
X128326807Y-63530498D01*
X128496692Y-63515635D01*
X128716496Y-63456739D01*
X128922734Y-63360568D01*
X129109139Y-63230047D01*
X129270047Y-63069139D01*
X129400568Y-62882734D01*
X129427618Y-62824724D01*
X129473790Y-62772285D01*
X129540983Y-62753133D01*
X129607865Y-62773348D01*
X129652382Y-62824725D01*
X129679429Y-62882728D01*
X129679432Y-62882734D01*
X129809954Y-63069141D01*
X129970858Y-63230045D01*
X129970861Y-63230047D01*
X130157266Y-63360568D01*
X130363504Y-63456739D01*
X130583308Y-63515635D01*
X130745230Y-63529801D01*
X130809998Y-63535468D01*
X130810000Y-63535468D01*
X130810002Y-63535468D01*
X130866807Y-63530498D01*
X131036692Y-63515635D01*
X131256496Y-63456739D01*
X131462734Y-63360568D01*
X131649139Y-63230047D01*
X131810047Y-63069139D01*
X131940568Y-62882734D01*
X131967618Y-62824724D01*
X132013790Y-62772285D01*
X132080983Y-62753133D01*
X132147865Y-62773348D01*
X132192382Y-62824725D01*
X132219429Y-62882728D01*
X132219432Y-62882734D01*
X132349954Y-63069141D01*
X132510858Y-63230045D01*
X132510861Y-63230047D01*
X132697266Y-63360568D01*
X132903504Y-63456739D01*
X133123308Y-63515635D01*
X133285230Y-63529801D01*
X133349998Y-63535468D01*
X133350000Y-63535468D01*
X133350002Y-63535468D01*
X133406807Y-63530498D01*
X133576692Y-63515635D01*
X133796496Y-63456739D01*
X134002734Y-63360568D01*
X134189139Y-63230047D01*
X134350047Y-63069139D01*
X134480568Y-62882734D01*
X134507618Y-62824724D01*
X134553790Y-62772285D01*
X134620983Y-62753133D01*
X134687865Y-62773348D01*
X134732382Y-62824725D01*
X134759429Y-62882728D01*
X134759432Y-62882734D01*
X134889954Y-63069141D01*
X135050858Y-63230045D01*
X135050861Y-63230047D01*
X135237266Y-63360568D01*
X135443504Y-63456739D01*
X135663308Y-63515635D01*
X135825230Y-63529801D01*
X135889998Y-63535468D01*
X135890000Y-63535468D01*
X135890002Y-63535468D01*
X135946807Y-63530498D01*
X136116692Y-63515635D01*
X136336496Y-63456739D01*
X136542734Y-63360568D01*
X136729139Y-63230047D01*
X136890047Y-63069139D01*
X137020568Y-62882734D01*
X137047618Y-62824724D01*
X137093790Y-62772285D01*
X137160983Y-62753133D01*
X137227865Y-62773348D01*
X137272382Y-62824725D01*
X137299429Y-62882728D01*
X137299432Y-62882734D01*
X137429954Y-63069141D01*
X137590858Y-63230045D01*
X137590861Y-63230047D01*
X137777266Y-63360568D01*
X137983504Y-63456739D01*
X138203308Y-63515635D01*
X138365230Y-63529801D01*
X138429998Y-63535468D01*
X138430000Y-63535468D01*
X138430002Y-63535468D01*
X138486807Y-63530498D01*
X138656692Y-63515635D01*
X138876496Y-63456739D01*
X139082734Y-63360568D01*
X139269139Y-63230047D01*
X139430047Y-63069139D01*
X139560568Y-62882734D01*
X139656739Y-62676496D01*
X139715635Y-62456692D01*
X139735468Y-62230000D01*
X139733083Y-62202745D01*
X139715635Y-62003313D01*
X139715635Y-62003308D01*
X139656739Y-61783504D01*
X139560568Y-61577266D01*
X139430047Y-61390861D01*
X139430045Y-61390858D01*
X139366917Y-61327730D01*
X139333432Y-61266407D01*
X139338416Y-61196715D01*
X139366915Y-61152370D01*
X144902405Y-55616880D01*
X154286672Y-55616880D01*
X154402821Y-55688797D01*
X154402822Y-55688798D01*
X154610195Y-55769134D01*
X154828807Y-55810000D01*
X155051193Y-55810000D01*
X155269809Y-55769133D01*
X155477168Y-55688801D01*
X155477181Y-55688795D01*
X155593326Y-55616879D01*
X154940001Y-54963553D01*
X154940000Y-54963553D01*
X154286672Y-55616879D01*
X154286672Y-55616880D01*
X144902405Y-55616880D01*
X145909285Y-54610000D01*
X153734859Y-54610000D01*
X153755378Y-54831439D01*
X153816240Y-55045350D01*
X153915369Y-55244428D01*
X153931137Y-55265308D01*
X153931138Y-55265308D01*
X154557145Y-54639302D01*
X154586372Y-54639302D01*
X154615047Y-54752538D01*
X154678936Y-54850327D01*
X154771115Y-54922072D01*
X154881595Y-54960000D01*
X154969005Y-54960000D01*
X155055216Y-54945614D01*
X155157947Y-54890019D01*
X155237060Y-54804079D01*
X155283982Y-54697108D01*
X155291200Y-54610000D01*
X155293553Y-54610000D01*
X155948861Y-55265308D01*
X155964631Y-55244425D01*
X155964633Y-55244422D01*
X156063759Y-55045350D01*
X156124621Y-54831439D01*
X156145141Y-54610000D01*
X158814357Y-54610000D01*
X158834884Y-54831535D01*
X158834885Y-54831537D01*
X158895769Y-55045523D01*
X158895775Y-55045538D01*
X158994938Y-55244683D01*
X158994943Y-55244691D01*
X159129020Y-55422238D01*
X159293437Y-55572123D01*
X159293439Y-55572125D01*
X159482595Y-55689245D01*
X159482596Y-55689245D01*
X159482599Y-55689247D01*
X159690060Y-55769618D01*
X159908757Y-55810500D01*
X159908759Y-55810500D01*
X160131241Y-55810500D01*
X160131243Y-55810500D01*
X160349940Y-55769618D01*
X160557401Y-55689247D01*
X160746562Y-55572124D01*
X160910981Y-55422236D01*
X161045058Y-55244689D01*
X161144229Y-55045528D01*
X161205115Y-54831536D01*
X161225643Y-54610000D01*
X161205115Y-54388464D01*
X161144229Y-54174472D01*
X161144224Y-54174461D01*
X161045061Y-53975316D01*
X161045056Y-53975308D01*
X160910979Y-53797761D01*
X160746562Y-53647876D01*
X160746560Y-53647874D01*
X160557404Y-53530754D01*
X160557398Y-53530752D01*
X160349940Y-53450382D01*
X160131243Y-53409500D01*
X159908757Y-53409500D01*
X159690060Y-53450382D01*
X159613956Y-53479865D01*
X159482601Y-53530752D01*
X159482595Y-53530754D01*
X159293439Y-53647874D01*
X159293437Y-53647876D01*
X159129020Y-53797761D01*
X158994943Y-53975308D01*
X158994938Y-53975316D01*
X158895775Y-54174461D01*
X158895769Y-54174476D01*
X158834885Y-54388462D01*
X158834884Y-54388464D01*
X158814357Y-54609999D01*
X158814357Y-54610000D01*
X156145141Y-54610000D01*
X156145141Y-54609999D01*
X156124621Y-54388560D01*
X156063759Y-54174649D01*
X155964635Y-53975580D01*
X155964630Y-53975572D01*
X155948860Y-53954690D01*
X155293553Y-54609999D01*
X155293553Y-54610000D01*
X155291200Y-54610000D01*
X155293628Y-54580698D01*
X155264953Y-54467462D01*
X155201064Y-54369673D01*
X155108885Y-54297928D01*
X154998405Y-54260000D01*
X154910995Y-54260000D01*
X154824784Y-54274386D01*
X154722053Y-54329981D01*
X154642940Y-54415921D01*
X154596018Y-54522892D01*
X154586372Y-54639302D01*
X154557145Y-54639302D01*
X154586447Y-54610000D01*
X153931138Y-53954691D01*
X153931137Y-53954691D01*
X153915368Y-53975574D01*
X153816240Y-54174649D01*
X153755378Y-54388560D01*
X153734859Y-54609999D01*
X153734859Y-54610000D01*
X145909285Y-54610000D01*
X146916166Y-53603119D01*
X154286671Y-53603119D01*
X154940000Y-54256447D01*
X154940001Y-54256447D01*
X155593327Y-53603119D01*
X155477178Y-53531202D01*
X155477177Y-53531201D01*
X155269804Y-53450865D01*
X155051193Y-53410000D01*
X154828807Y-53410000D01*
X154610195Y-53450865D01*
X154402824Y-53531200D01*
X154402823Y-53531201D01*
X154286671Y-53603119D01*
X146916166Y-53603119D01*
X149347405Y-51171880D01*
X151111672Y-51171880D01*
X151227821Y-51243797D01*
X151227822Y-51243798D01*
X151435195Y-51324134D01*
X151653807Y-51365000D01*
X151876193Y-51365000D01*
X152094809Y-51324133D01*
X152302168Y-51243801D01*
X152302181Y-51243795D01*
X152418326Y-51171879D01*
X151765001Y-50518553D01*
X151765000Y-50518553D01*
X151111672Y-51171879D01*
X151111672Y-51171880D01*
X149347405Y-51171880D01*
X150355648Y-50163637D01*
X150416968Y-50130155D01*
X150486660Y-50135139D01*
X150542593Y-50177011D01*
X150566797Y-50239879D01*
X150580378Y-50386439D01*
X150641240Y-50600350D01*
X150740369Y-50799428D01*
X150756137Y-50820308D01*
X150756138Y-50820308D01*
X151414012Y-50162433D01*
X151411372Y-50194302D01*
X151440047Y-50307538D01*
X151503936Y-50405327D01*
X151596115Y-50477072D01*
X151706595Y-50515000D01*
X151794005Y-50515000D01*
X151880216Y-50500614D01*
X151982947Y-50445019D01*
X152062060Y-50359079D01*
X152108982Y-50252108D01*
X152116200Y-50165000D01*
X152118553Y-50165000D01*
X152773861Y-50820308D01*
X152789631Y-50799425D01*
X152789633Y-50799422D01*
X152888759Y-50600350D01*
X152949621Y-50386439D01*
X152970141Y-50165000D01*
X152970141Y-50164999D01*
X152949621Y-49943560D01*
X152888759Y-49729649D01*
X152789635Y-49530580D01*
X152789630Y-49530572D01*
X152773860Y-49509690D01*
X152118553Y-50164999D01*
X152118553Y-50165000D01*
X152116200Y-50165000D01*
X152118628Y-50135698D01*
X152089953Y-50022462D01*
X152026064Y-49924673D01*
X151933885Y-49852928D01*
X151823405Y-49815000D01*
X151761446Y-49815000D01*
X152418327Y-49158119D01*
X152302178Y-49086202D01*
X152302177Y-49086201D01*
X152094804Y-49005865D01*
X151876193Y-48965000D01*
X151853648Y-48965000D01*
X151786609Y-48945315D01*
X151740854Y-48892511D01*
X151730910Y-48823353D01*
X151759935Y-48759797D01*
X151765955Y-48753331D01*
X153344968Y-47174319D01*
X153406291Y-47140834D01*
X153432649Y-47138000D01*
X154788327Y-47138000D01*
X154855366Y-47157685D01*
X154889902Y-47190877D01*
X154949954Y-47276641D01*
X155110858Y-47437545D01*
X155110861Y-47437547D01*
X155297266Y-47568068D01*
X155355275Y-47595118D01*
X155407714Y-47641291D01*
X155426866Y-47708484D01*
X155406650Y-47775365D01*
X155355275Y-47819882D01*
X155297267Y-47846931D01*
X155297265Y-47846932D01*
X155110858Y-47977454D01*
X154949954Y-48138358D01*
X154819432Y-48324765D01*
X154819431Y-48324767D01*
X154723261Y-48531002D01*
X154723258Y-48531011D01*
X154664366Y-48750802D01*
X154664364Y-48750813D01*
X154644532Y-48977498D01*
X154644532Y-48977501D01*
X154664364Y-49204186D01*
X154664366Y-49204197D01*
X154723258Y-49423988D01*
X154723261Y-49423997D01*
X154819431Y-49630232D01*
X154819432Y-49630234D01*
X154949954Y-49816641D01*
X155110858Y-49977545D01*
X155110861Y-49977547D01*
X155297266Y-50108068D01*
X155503504Y-50204239D01*
X155723308Y-50263135D01*
X155885230Y-50277301D01*
X155949998Y-50282968D01*
X155950000Y-50282968D01*
X155950002Y-50282968D01*
X156006673Y-50278009D01*
X156176692Y-50263135D01*
X156396496Y-50204239D01*
X156602734Y-50108068D01*
X156789139Y-49977547D01*
X156950047Y-49816639D01*
X157080568Y-49630234D01*
X157176739Y-49423996D01*
X157230225Y-49224381D01*
X157266590Y-49164721D01*
X157329437Y-49134192D01*
X157398812Y-49142487D01*
X157452690Y-49186972D01*
X157469775Y-49224382D01*
X157523258Y-49423988D01*
X157523261Y-49423997D01*
X157619431Y-49630232D01*
X157619432Y-49630234D01*
X157749954Y-49816641D01*
X157910858Y-49977545D01*
X157910861Y-49977547D01*
X158097266Y-50108068D01*
X158303504Y-50204239D01*
X158523308Y-50263135D01*
X158685230Y-50277301D01*
X158749998Y-50282968D01*
X158750000Y-50282968D01*
X158750002Y-50282968D01*
X158806673Y-50278009D01*
X158976692Y-50263135D01*
X159196496Y-50204239D01*
X159402734Y-50108068D01*
X159589139Y-49977547D01*
X159750047Y-49816639D01*
X159880568Y-49630234D01*
X159976739Y-49423996D01*
X160035635Y-49204192D01*
X160055468Y-48977500D01*
X160054374Y-48965000D01*
X160036421Y-48759797D01*
X160035635Y-48750808D01*
X159976739Y-48531004D01*
X159880568Y-48324766D01*
X159750047Y-48138361D01*
X159750045Y-48138358D01*
X159589144Y-47977457D01*
X159589140Y-47977454D01*
X159589139Y-47977453D01*
X159505394Y-47918815D01*
X159461772Y-47864241D01*
X159454578Y-47794743D01*
X159486100Y-47732388D01*
X159537515Y-47699537D01*
X159619564Y-47672349D01*
X159768806Y-47580295D01*
X159892795Y-47456306D01*
X159984849Y-47307064D01*
X160040004Y-47140616D01*
X160050500Y-47037879D01*
X160050499Y-45837122D01*
X160040004Y-45734384D01*
X159984849Y-45567936D01*
X159984845Y-45567930D01*
X159984844Y-45567927D01*
X159892797Y-45418697D01*
X159892794Y-45418693D01*
X159768806Y-45294705D01*
X159768802Y-45294702D01*
X159619572Y-45202655D01*
X159619566Y-45202652D01*
X159619564Y-45202651D01*
X159453116Y-45147496D01*
X159453113Y-45147495D01*
X159453114Y-45147495D01*
X159350380Y-45137000D01*
X158149628Y-45137000D01*
X158149612Y-45137001D01*
X158046882Y-45147496D01*
X157880438Y-45202650D01*
X157880427Y-45202655D01*
X157731197Y-45294702D01*
X157731193Y-45294705D01*
X157607205Y-45418693D01*
X157607202Y-45418697D01*
X157515155Y-45567927D01*
X157515150Y-45567938D01*
X157459995Y-45734387D01*
X157449500Y-45837113D01*
X157449500Y-46067088D01*
X157429815Y-46134127D01*
X157377011Y-46179882D01*
X157307853Y-46189826D01*
X157244297Y-46160801D01*
X157206523Y-46102023D01*
X157205725Y-46099181D01*
X157176741Y-45991011D01*
X157176738Y-45991002D01*
X157104982Y-45837122D01*
X157080568Y-45784766D01*
X156950047Y-45598361D01*
X156950045Y-45598358D01*
X156789141Y-45437454D01*
X156602734Y-45306932D01*
X156602732Y-45306931D01*
X156396497Y-45210761D01*
X156396488Y-45210758D01*
X156176697Y-45151866D01*
X156176693Y-45151865D01*
X156176692Y-45151865D01*
X156176691Y-45151864D01*
X156176686Y-45151864D01*
X155950002Y-45132032D01*
X155949998Y-45132032D01*
X155723313Y-45151864D01*
X155723302Y-45151866D01*
X155503511Y-45210758D01*
X155503502Y-45210761D01*
X155297267Y-45306931D01*
X155297265Y-45306932D01*
X155110858Y-45437454D01*
X154949954Y-45598358D01*
X154889902Y-45684123D01*
X154835325Y-45727748D01*
X154788327Y-45737000D01*
X153114178Y-45737000D01*
X153110433Y-45736887D01*
X153048526Y-45733142D01*
X153048520Y-45733142D01*
X153000592Y-45741925D01*
X152931103Y-45734646D01*
X152876579Y-45690954D01*
X152854334Y-45624721D01*
X152867242Y-45564684D01*
X152889224Y-45520538D01*
X152889223Y-45520538D01*
X152889229Y-45520528D01*
X152950115Y-45306536D01*
X152970643Y-45085000D01*
X152950115Y-44863464D01*
X152889229Y-44649472D01*
X152867562Y-44605959D01*
X152790061Y-44450316D01*
X152790056Y-44450308D01*
X152655979Y-44272761D01*
X152491562Y-44122876D01*
X152491560Y-44122874D01*
X152302404Y-44005754D01*
X152302398Y-44005752D01*
X152094940Y-43925382D01*
X151876243Y-43884500D01*
X151653757Y-43884500D01*
X151435060Y-43925382D01*
X151303864Y-43976207D01*
X151227601Y-44005752D01*
X151227595Y-44005754D01*
X151038439Y-44122874D01*
X151038437Y-44122876D01*
X150874020Y-44272761D01*
X150739943Y-44450308D01*
X150739938Y-44450316D01*
X150640775Y-44649461D01*
X150640769Y-44649476D01*
X150579885Y-44863462D01*
X150579884Y-44863464D01*
X150559357Y-45084999D01*
X150559357Y-45085000D01*
X150579884Y-45306535D01*
X150579885Y-45306537D01*
X150640769Y-45520523D01*
X150640775Y-45520538D01*
X150739938Y-45719683D01*
X150739943Y-45719691D01*
X150874020Y-45897238D01*
X151038437Y-46047123D01*
X151038439Y-46047125D01*
X151227595Y-46164245D01*
X151227596Y-46164245D01*
X151227599Y-46164247D01*
X151435060Y-46244618D01*
X151653757Y-46285500D01*
X151653759Y-46285500D01*
X151876242Y-46285500D01*
X151876243Y-46285500D01*
X151945356Y-46272580D01*
X152014869Y-46279610D01*
X152069549Y-46323106D01*
X152092032Y-46389260D01*
X152075180Y-46457067D01*
X152055822Y-46482149D01*
X137950954Y-60587017D01*
X137948202Y-60589606D01*
X137946474Y-60591136D01*
X137883226Y-60620824D01*
X137813967Y-60611604D01*
X137776615Y-60585958D01*
X135426819Y-58236162D01*
X135393334Y-58174839D01*
X135390500Y-58148481D01*
X135390500Y-55984136D01*
X135410185Y-55917097D01*
X135462989Y-55871342D01*
X135532147Y-55861398D01*
X135546582Y-55864358D01*
X135663308Y-55895635D01*
X135825230Y-55909801D01*
X135889998Y-55915468D01*
X135890000Y-55915468D01*
X135890002Y-55915468D01*
X135946673Y-55910509D01*
X136116692Y-55895635D01*
X136336496Y-55836739D01*
X136542734Y-55740568D01*
X136729139Y-55610047D01*
X136890047Y-55449139D01*
X137020568Y-55262734D01*
X137047618Y-55204724D01*
X137093790Y-55152285D01*
X137160983Y-55133133D01*
X137227865Y-55153348D01*
X137272382Y-55204725D01*
X137299429Y-55262728D01*
X137299432Y-55262734D01*
X137429954Y-55449141D01*
X137590858Y-55610045D01*
X137590861Y-55610047D01*
X137777266Y-55740568D01*
X137983504Y-55836739D01*
X138203308Y-55895635D01*
X138365230Y-55909801D01*
X138429998Y-55915468D01*
X138430000Y-55915468D01*
X138430002Y-55915468D01*
X138486673Y-55910509D01*
X138656692Y-55895635D01*
X138876496Y-55836739D01*
X139082734Y-55740568D01*
X139269139Y-55610047D01*
X139430047Y-55449139D01*
X139560568Y-55262734D01*
X139656739Y-55056496D01*
X139715635Y-54836692D01*
X139735468Y-54610000D01*
X139732904Y-54580698D01*
X139724519Y-54484852D01*
X139715635Y-54383308D01*
X139656739Y-54163504D01*
X139560568Y-53957266D01*
X139430047Y-53770861D01*
X139430045Y-53770858D01*
X139269141Y-53609954D01*
X139082734Y-53479432D01*
X139082732Y-53479431D01*
X138876497Y-53383261D01*
X138876488Y-53383258D01*
X138656697Y-53324366D01*
X138656693Y-53324365D01*
X138656692Y-53324365D01*
X138656691Y-53324364D01*
X138656686Y-53324364D01*
X138430002Y-53304532D01*
X138429998Y-53304532D01*
X138203313Y-53324364D01*
X138203302Y-53324366D01*
X137983511Y-53383258D01*
X137983502Y-53383261D01*
X137777267Y-53479431D01*
X137777265Y-53479432D01*
X137590858Y-53609954D01*
X137429954Y-53770858D01*
X137299432Y-53957265D01*
X137299431Y-53957267D01*
X137272382Y-54015275D01*
X137226209Y-54067714D01*
X137159016Y-54086866D01*
X137092135Y-54066650D01*
X137047618Y-54015275D01*
X137028985Y-53975316D01*
X137020568Y-53957266D01*
X136890047Y-53770861D01*
X136890045Y-53770858D01*
X136729141Y-53609954D01*
X136542734Y-53479432D01*
X136542732Y-53479431D01*
X136336497Y-53383261D01*
X136336488Y-53383258D01*
X136116697Y-53324366D01*
X136116693Y-53324365D01*
X136116692Y-53324365D01*
X136116691Y-53324364D01*
X136116686Y-53324364D01*
X135890002Y-53304532D01*
X135889998Y-53304532D01*
X135663313Y-53324364D01*
X135663302Y-53324366D01*
X135546593Y-53355638D01*
X135476743Y-53353975D01*
X135418881Y-53314812D01*
X135391377Y-53250583D01*
X135390500Y-53235863D01*
X135390500Y-52880547D01*
X135390613Y-52876802D01*
X135394358Y-52814894D01*
X135383175Y-52753871D01*
X135382613Y-52750174D01*
X135380618Y-52733751D01*
X135375140Y-52688628D01*
X135371548Y-52679156D01*
X135365521Y-52657534D01*
X135363695Y-52647571D01*
X135363695Y-52647569D01*
X135338224Y-52590976D01*
X135336817Y-52587579D01*
X135314818Y-52529570D01*
X135314816Y-52529568D01*
X135314816Y-52529566D01*
X135309062Y-52521231D01*
X135298034Y-52501677D01*
X135293880Y-52492447D01*
X135293878Y-52492444D01*
X135255621Y-52443612D01*
X135253427Y-52440630D01*
X135218183Y-52389571D01*
X135171750Y-52348435D01*
X135169056Y-52345899D01*
X133995037Y-51171880D01*
X134601672Y-51171880D01*
X134717821Y-51243797D01*
X134717822Y-51243798D01*
X134925195Y-51324134D01*
X135143807Y-51365000D01*
X135366193Y-51365000D01*
X135584809Y-51324133D01*
X135792168Y-51243801D01*
X135792181Y-51243795D01*
X135908326Y-51171879D01*
X135255001Y-50518553D01*
X135255000Y-50518553D01*
X134601672Y-51171879D01*
X134601672Y-51171880D01*
X133995037Y-51171880D01*
X132988157Y-50165000D01*
X134049859Y-50165000D01*
X134070378Y-50386439D01*
X134131240Y-50600350D01*
X134230369Y-50799428D01*
X134246137Y-50820308D01*
X134246138Y-50820308D01*
X134872145Y-50194302D01*
X134901372Y-50194302D01*
X134930047Y-50307538D01*
X134993936Y-50405327D01*
X135086115Y-50477072D01*
X135196595Y-50515000D01*
X135284005Y-50515000D01*
X135370216Y-50500614D01*
X135472947Y-50445019D01*
X135552060Y-50359079D01*
X135598982Y-50252108D01*
X135606200Y-50165000D01*
X135608553Y-50165000D01*
X136263861Y-50820308D01*
X136279631Y-50799425D01*
X136279633Y-50799422D01*
X136378759Y-50600350D01*
X136439621Y-50386439D01*
X136460141Y-50165000D01*
X136460141Y-50164999D01*
X136439621Y-49943560D01*
X136378759Y-49729649D01*
X136279635Y-49530580D01*
X136279630Y-49530572D01*
X136263860Y-49509690D01*
X135608553Y-50164999D01*
X135608553Y-50165000D01*
X135606200Y-50165000D01*
X135608628Y-50135698D01*
X135579953Y-50022462D01*
X135516064Y-49924673D01*
X135423885Y-49852928D01*
X135313405Y-49815000D01*
X135225995Y-49815000D01*
X135139784Y-49829386D01*
X135037053Y-49884981D01*
X134957940Y-49970921D01*
X134911018Y-50077892D01*
X134901372Y-50194302D01*
X134872145Y-50194302D01*
X134901447Y-50165000D01*
X134246138Y-49509691D01*
X134246137Y-49509691D01*
X134230368Y-49530574D01*
X134131240Y-49729649D01*
X134070378Y-49943560D01*
X134049859Y-50164999D01*
X134049859Y-50165000D01*
X132988157Y-50165000D01*
X132131027Y-49307870D01*
X132097542Y-49246547D01*
X132095180Y-49209381D01*
X132095633Y-49204197D01*
X132095635Y-49204192D01*
X132099666Y-49158119D01*
X134601671Y-49158119D01*
X135255000Y-49811447D01*
X135255001Y-49811447D01*
X135908327Y-49158119D01*
X135792178Y-49086202D01*
X135792177Y-49086201D01*
X135584804Y-49005865D01*
X135366193Y-48965000D01*
X135143807Y-48965000D01*
X134925195Y-49005865D01*
X134717824Y-49086200D01*
X134717823Y-49086201D01*
X134601671Y-49158119D01*
X132099666Y-49158119D01*
X132115468Y-48977500D01*
X132114374Y-48965000D01*
X132096421Y-48759797D01*
X132095635Y-48750808D01*
X132036739Y-48531004D01*
X131940568Y-48324766D01*
X131810047Y-48138361D01*
X131810045Y-48138358D01*
X131649144Y-47977457D01*
X131649140Y-47977454D01*
X131649139Y-47977453D01*
X131565394Y-47918815D01*
X131521772Y-47864241D01*
X131514578Y-47794743D01*
X131546100Y-47732388D01*
X131597515Y-47699537D01*
X131679564Y-47672349D01*
X131828806Y-47580295D01*
X131952795Y-47456306D01*
X132044849Y-47307064D01*
X132100004Y-47140616D01*
X132110500Y-47037879D01*
X132110499Y-45837122D01*
X132100004Y-45734384D01*
X132044849Y-45567936D01*
X132044845Y-45567930D01*
X132044844Y-45567927D01*
X131952797Y-45418697D01*
X131952794Y-45418693D01*
X131828806Y-45294705D01*
X131828802Y-45294702D01*
X131679572Y-45202655D01*
X131679566Y-45202652D01*
X131679564Y-45202651D01*
X131513116Y-45147496D01*
X131513113Y-45147495D01*
X131513114Y-45147495D01*
X131410380Y-45137000D01*
X130209628Y-45137000D01*
X130209612Y-45137001D01*
X130106882Y-45147496D01*
X129940438Y-45202650D01*
X129940427Y-45202655D01*
X129791197Y-45294702D01*
X129791193Y-45294705D01*
X129667205Y-45418693D01*
X129667202Y-45418697D01*
X129575155Y-45567927D01*
X129575150Y-45567938D01*
X129519995Y-45734387D01*
X129509500Y-45837113D01*
X129509500Y-46067088D01*
X129489815Y-46134127D01*
X129437011Y-46179882D01*
X129367853Y-46189826D01*
X129304297Y-46160801D01*
X129266523Y-46102023D01*
X129265725Y-46099181D01*
X129236741Y-45991011D01*
X129236738Y-45991002D01*
X129164982Y-45837122D01*
X129140568Y-45784766D01*
X129010047Y-45598361D01*
X129010045Y-45598358D01*
X128849141Y-45437454D01*
X128662734Y-45306932D01*
X128662732Y-45306931D01*
X128456497Y-45210761D01*
X128456488Y-45210758D01*
X128236697Y-45151866D01*
X128236693Y-45151865D01*
X128236692Y-45151865D01*
X128236691Y-45151864D01*
X128236686Y-45151864D01*
X128010002Y-45132032D01*
X128009998Y-45132032D01*
X127783313Y-45151864D01*
X127783302Y-45151866D01*
X127563511Y-45210758D01*
X127563502Y-45210761D01*
X127357267Y-45306931D01*
X127357265Y-45306932D01*
X127170858Y-45437454D01*
X127009954Y-45598358D01*
X126879432Y-45784765D01*
X126879431Y-45784767D01*
X126783261Y-45991002D01*
X126783258Y-45991011D01*
X126724366Y-46210802D01*
X126724364Y-46210813D01*
X126704532Y-46437498D01*
X126704532Y-46437501D01*
X126724364Y-46664186D01*
X126724366Y-46664197D01*
X126783258Y-46883988D01*
X126783261Y-46883997D01*
X126879431Y-47090232D01*
X126879432Y-47090234D01*
X127009954Y-47276641D01*
X127170858Y-47437545D01*
X127170861Y-47437547D01*
X127357266Y-47568068D01*
X127415275Y-47595118D01*
X127467714Y-47641291D01*
X127486866Y-47708484D01*
X127466650Y-47775365D01*
X127415275Y-47819882D01*
X127357267Y-47846931D01*
X127357265Y-47846932D01*
X127170858Y-47977454D01*
X127009954Y-48138358D01*
X126879432Y-48324765D01*
X126879431Y-48324767D01*
X126783261Y-48531002D01*
X126783258Y-48531011D01*
X126724366Y-48750802D01*
X126724364Y-48750813D01*
X126704532Y-48977498D01*
X126704532Y-48977501D01*
X126724364Y-49204186D01*
X126724366Y-49204197D01*
X126783258Y-49423988D01*
X126783261Y-49423997D01*
X126879431Y-49630232D01*
X126879432Y-49630234D01*
X127009954Y-49816641D01*
X127170858Y-49977545D01*
X127170861Y-49977547D01*
X127357266Y-50108068D01*
X127563504Y-50204239D01*
X127783308Y-50263135D01*
X127945230Y-50277301D01*
X128009998Y-50282968D01*
X128010000Y-50282968D01*
X128010001Y-50282968D01*
X128028304Y-50281366D01*
X128236692Y-50263135D01*
X128236697Y-50263133D01*
X128241881Y-50262680D01*
X128310381Y-50276446D01*
X128340370Y-50298527D01*
X128733181Y-50691338D01*
X128766666Y-50752661D01*
X128769500Y-50779019D01*
X128769500Y-53235863D01*
X128749815Y-53302902D01*
X128697011Y-53348657D01*
X128627853Y-53358601D01*
X128613407Y-53355638D01*
X128496697Y-53324366D01*
X128496693Y-53324365D01*
X128496692Y-53324365D01*
X128496691Y-53324364D01*
X128496686Y-53324364D01*
X128270002Y-53304532D01*
X128269998Y-53304532D01*
X128043313Y-53324364D01*
X128043302Y-53324366D01*
X127823511Y-53383258D01*
X127823502Y-53383261D01*
X127617267Y-53479431D01*
X127617265Y-53479432D01*
X127430858Y-53609954D01*
X127269954Y-53770858D01*
X127139432Y-53957265D01*
X127139431Y-53957267D01*
X127112382Y-54015275D01*
X127066209Y-54067714D01*
X126999016Y-54086866D01*
X126932135Y-54066650D01*
X126887618Y-54015275D01*
X126868985Y-53975316D01*
X126860568Y-53957266D01*
X126730047Y-53770861D01*
X126730045Y-53770858D01*
X126569141Y-53609954D01*
X126382734Y-53479432D01*
X126382732Y-53479431D01*
X126176497Y-53383261D01*
X126176488Y-53383258D01*
X125956697Y-53324366D01*
X125956693Y-53324365D01*
X125956692Y-53324365D01*
X125956691Y-53324364D01*
X125956686Y-53324364D01*
X125730002Y-53304532D01*
X125729998Y-53304532D01*
X125503313Y-53324364D01*
X125503302Y-53324366D01*
X125283511Y-53383258D01*
X125283502Y-53383261D01*
X125077267Y-53479431D01*
X125077265Y-53479432D01*
X124890858Y-53609954D01*
X124729954Y-53770858D01*
X124601235Y-53954691D01*
X124599432Y-53957266D01*
X124591018Y-53975311D01*
X124572106Y-54015867D01*
X124525933Y-54068306D01*
X124458739Y-54087457D01*
X124391858Y-54067241D01*
X124347342Y-54015865D01*
X124320135Y-53957520D01*
X124320134Y-53957518D01*
X124189657Y-53771179D01*
X124028820Y-53610342D01*
X123842482Y-53479865D01*
X123636328Y-53383734D01*
X123440000Y-53331127D01*
X123440000Y-54294314D01*
X123428045Y-54282359D01*
X123315148Y-54224835D01*
X123221481Y-54210000D01*
X123158519Y-54210000D01*
X123064852Y-54224835D01*
X122951955Y-54282359D01*
X122940000Y-54294314D01*
X122940000Y-53331127D01*
X122743671Y-53383734D01*
X122537517Y-53479865D01*
X122351179Y-53610342D01*
X122190342Y-53771179D01*
X122059865Y-53957517D01*
X121963734Y-54163673D01*
X121963730Y-54163682D01*
X121911127Y-54359999D01*
X121911128Y-54360000D01*
X122874314Y-54360000D01*
X122862359Y-54371955D01*
X122804835Y-54484852D01*
X122785014Y-54610000D01*
X122804835Y-54735148D01*
X122862359Y-54848045D01*
X122874314Y-54860000D01*
X121942019Y-54860000D01*
X121874980Y-54840315D01*
X121854338Y-54823681D01*
X118202537Y-51171880D01*
X123171672Y-51171880D01*
X123287821Y-51243797D01*
X123287822Y-51243798D01*
X123495195Y-51324134D01*
X123713807Y-51365000D01*
X123936193Y-51365000D01*
X124154809Y-51324133D01*
X124362168Y-51243801D01*
X124362181Y-51243795D01*
X124478326Y-51171879D01*
X123825001Y-50518553D01*
X123825000Y-50518553D01*
X123171672Y-51171879D01*
X123171672Y-51171880D01*
X118202537Y-51171880D01*
X117195657Y-50165000D01*
X122619859Y-50165000D01*
X122640378Y-50386439D01*
X122701240Y-50600350D01*
X122800369Y-50799428D01*
X122816137Y-50820308D01*
X122816138Y-50820308D01*
X123442145Y-50194302D01*
X123471372Y-50194302D01*
X123500047Y-50307538D01*
X123563936Y-50405327D01*
X123656115Y-50477072D01*
X123766595Y-50515000D01*
X123854005Y-50515000D01*
X123940216Y-50500614D01*
X124042947Y-50445019D01*
X124122060Y-50359079D01*
X124168982Y-50252108D01*
X124176200Y-50165000D01*
X124178553Y-50165000D01*
X124833861Y-50820308D01*
X124849631Y-50799425D01*
X124849633Y-50799422D01*
X124948759Y-50600350D01*
X125009621Y-50386439D01*
X125030141Y-50165000D01*
X125030141Y-50164999D01*
X125009621Y-49943560D01*
X124948759Y-49729649D01*
X124849635Y-49530580D01*
X124849630Y-49530572D01*
X124833860Y-49509690D01*
X124178553Y-50164999D01*
X124178553Y-50165000D01*
X124176200Y-50165000D01*
X124178628Y-50135698D01*
X124149953Y-50022462D01*
X124086064Y-49924673D01*
X123993885Y-49852928D01*
X123883405Y-49815000D01*
X123795995Y-49815000D01*
X123709784Y-49829386D01*
X123607053Y-49884981D01*
X123527940Y-49970921D01*
X123481018Y-50077892D01*
X123471372Y-50194302D01*
X123442145Y-50194302D01*
X123471447Y-50165000D01*
X122816138Y-49509691D01*
X122816137Y-49509691D01*
X122800368Y-49530574D01*
X122701240Y-49729649D01*
X122640378Y-49943560D01*
X122619859Y-50164999D01*
X122619859Y-50165000D01*
X117195657Y-50165000D01*
X116747752Y-49717095D01*
X116188776Y-49158119D01*
X123171671Y-49158119D01*
X123825000Y-49811447D01*
X123825001Y-49811447D01*
X124478327Y-49158119D01*
X124362178Y-49086202D01*
X124362177Y-49086201D01*
X124154804Y-49005865D01*
X123936193Y-48965000D01*
X123713807Y-48965000D01*
X123495195Y-49005865D01*
X123287824Y-49086200D01*
X123287823Y-49086201D01*
X123171671Y-49158119D01*
X116188776Y-49158119D01*
X112115657Y-45085000D01*
X122619357Y-45085000D01*
X122639884Y-45306535D01*
X122639885Y-45306537D01*
X122700769Y-45520523D01*
X122700775Y-45520538D01*
X122799938Y-45719683D01*
X122799943Y-45719691D01*
X122934020Y-45897238D01*
X123098437Y-46047123D01*
X123098439Y-46047125D01*
X123287595Y-46164245D01*
X123287596Y-46164245D01*
X123287599Y-46164247D01*
X123495060Y-46244618D01*
X123713757Y-46285500D01*
X123713759Y-46285500D01*
X123936241Y-46285500D01*
X123936243Y-46285500D01*
X124154940Y-46244618D01*
X124362401Y-46164247D01*
X124551562Y-46047124D01*
X124715981Y-45897236D01*
X124850058Y-45719689D01*
X124949229Y-45520528D01*
X125010115Y-45306536D01*
X125030643Y-45085000D01*
X134049357Y-45085000D01*
X134069884Y-45306535D01*
X134069885Y-45306537D01*
X134130769Y-45520523D01*
X134130775Y-45520538D01*
X134229938Y-45719683D01*
X134229943Y-45719691D01*
X134364020Y-45897238D01*
X134528437Y-46047123D01*
X134528439Y-46047125D01*
X134717595Y-46164245D01*
X134717596Y-46164245D01*
X134717599Y-46164247D01*
X134925060Y-46244618D01*
X135143757Y-46285500D01*
X135143759Y-46285500D01*
X135366241Y-46285500D01*
X135366243Y-46285500D01*
X135584940Y-46244618D01*
X135792401Y-46164247D01*
X135981562Y-46047124D01*
X136145981Y-45897236D01*
X136280058Y-45719689D01*
X136379229Y-45520528D01*
X136440115Y-45306536D01*
X136460643Y-45085000D01*
X136440115Y-44863464D01*
X136379229Y-44649472D01*
X136357562Y-44605959D01*
X136280061Y-44450316D01*
X136280056Y-44450308D01*
X136145979Y-44272761D01*
X135981562Y-44122876D01*
X135981560Y-44122874D01*
X135792404Y-44005754D01*
X135792398Y-44005752D01*
X135584940Y-43925382D01*
X135366243Y-43884500D01*
X135143757Y-43884500D01*
X134925060Y-43925382D01*
X134793864Y-43976207D01*
X134717601Y-44005752D01*
X134717595Y-44005754D01*
X134528439Y-44122874D01*
X134528437Y-44122876D01*
X134364020Y-44272761D01*
X134229943Y-44450308D01*
X134229938Y-44450316D01*
X134130775Y-44649461D01*
X134130769Y-44649476D01*
X134069885Y-44863462D01*
X134069884Y-44863464D01*
X134049357Y-45084999D01*
X134049357Y-45085000D01*
X125030643Y-45085000D01*
X125010115Y-44863464D01*
X124949229Y-44649472D01*
X124927562Y-44605959D01*
X124850061Y-44450316D01*
X124850056Y-44450308D01*
X124715979Y-44272761D01*
X124551562Y-44122876D01*
X124551560Y-44122874D01*
X124362404Y-44005754D01*
X124362398Y-44005752D01*
X124154940Y-43925382D01*
X123936243Y-43884500D01*
X123713757Y-43884500D01*
X123495060Y-43925382D01*
X123363864Y-43976207D01*
X123287601Y-44005752D01*
X123287595Y-44005754D01*
X123098439Y-44122874D01*
X123098437Y-44122876D01*
X122934020Y-44272761D01*
X122799943Y-44450308D01*
X122799938Y-44450316D01*
X122700775Y-44649461D01*
X122700769Y-44649476D01*
X122639885Y-44863462D01*
X122639884Y-44863464D01*
X122619357Y-45084999D01*
X122619357Y-45085000D01*
X112115657Y-45085000D01*
X111636598Y-44605941D01*
X111634064Y-44603250D01*
X111592929Y-44556817D01*
X111592928Y-44556816D01*
X111592924Y-44556812D01*
X111541896Y-44521591D01*
X111538887Y-44519377D01*
X111490060Y-44481124D01*
X111490055Y-44481120D01*
X111480813Y-44476961D01*
X111461266Y-44465936D01*
X111452931Y-44460183D01*
X111452932Y-44460183D01*
X111452930Y-44460182D01*
X111394941Y-44438189D01*
X111391490Y-44436759D01*
X111334930Y-44411304D01*
X111324946Y-44409474D01*
X111303343Y-44403451D01*
X111293874Y-44399860D01*
X111293870Y-44399859D01*
X111232313Y-44392384D01*
X111228612Y-44391821D01*
X111167608Y-44380642D01*
X111167603Y-44380642D01*
X111105697Y-44384387D01*
X111101952Y-44384500D01*
X108352105Y-44384500D01*
X108285066Y-44364815D01*
X108253151Y-44335227D01*
X108205979Y-44272761D01*
X108041562Y-44122876D01*
X108041560Y-44122874D01*
X107852404Y-44005754D01*
X107852398Y-44005752D01*
X107644940Y-43925382D01*
X107426243Y-43884500D01*
X107203757Y-43884500D01*
X106985060Y-43925382D01*
X106853864Y-43976207D01*
X106777601Y-44005752D01*
X106777595Y-44005754D01*
X106588439Y-44122874D01*
X106588437Y-44122876D01*
X106424020Y-44272761D01*
X106289943Y-44450308D01*
X106289938Y-44450316D01*
X106190775Y-44649461D01*
X106190769Y-44649476D01*
X106129885Y-44863462D01*
X106129884Y-44863464D01*
X106109357Y-45084999D01*
X106109357Y-45085000D01*
X96520500Y-45085000D01*
X96520500Y-42669500D01*
X96540185Y-42602461D01*
X96592989Y-42556706D01*
X96644500Y-42545500D01*
X161800500Y-42545500D01*
X161867539Y-42565185D01*
G37*
%TD.AperFunction*%
%TD*%
M02*
