M48
; DRILL file {KiCad 7.0.9} date Thu Feb  1 16:38:51 2024
; FORMAT={-:-/ absolute / inch / decimal}
; #@! TF.CreationDate,2024-02-01T16:38:51+03:00
; #@! TF.GenerationSoftware,Kicad,Pcbnew,7.0.9
; #@! TF.FileFunction,Plated,1,2,PTH
FMAT,2
INCH
; #@! TA.AperFunction,Plated,PTH,ComponentDrill
T1C0.0197
; #@! TA.AperFunction,Plated,PTH,ComponentDrill
T2C0.0276
; #@! TA.AperFunction,Plated,PTH,ComponentDrill
T3C0.0315
; #@! TA.AperFunction,Plated,PTH,ComponentDrill
T4C0.0394
; #@! TA.AperFunction,Plated,PTH,ComponentDrill
T5C0.0469
; #@! TA.AperFunction,Plated,PTH,ComponentDrill
T6C0.1181
%
G90
G05
T1
X3.8614Y-2.575
X3.8874Y-2.5124
X3.8874Y-2.6376
X3.95Y-2.4864
X3.95Y-2.6636
X4.0126Y-2.5124
X4.0126Y-2.6376
X4.0386Y-2.575
X6.1114Y-2.575
X6.1374Y-2.5124
X6.1374Y-2.6376
X6.2Y-2.4864
X6.2Y-2.6636
X6.2626Y-2.5124
X6.2626Y-2.6376
X6.2886Y-2.575
T2
X3.9Y-2.15
X4.1Y-2.15
X4.225Y-1.775
X4.225Y-1.975
X4.875Y-1.775
X4.875Y-1.975
X5.325Y-1.775
X5.325Y-1.975
X5.975Y-1.775
X5.975Y-1.975
X6.1Y-2.15
X6.3Y-2.15
T3
X3.9346Y-1.8282
X3.9346Y-1.9282
X4.0449Y-1.8282
X4.0449Y-1.9282
X4.85Y-2.15
X4.85Y-2.45
X4.95Y-2.15
X4.95Y-2.45
X5.0398Y-1.8282
X5.0398Y-1.9282
X5.05Y-2.15
X5.05Y-2.45
X5.15Y-1.8282
X5.15Y-1.9282
X5.15Y-2.15
X5.15Y-2.45
X5.25Y-2.15
X5.25Y-2.45
X5.35Y-2.15
X5.35Y-2.45
X5.45Y-2.15
X5.45Y-2.45
X6.1398Y-1.8282
X6.1398Y-1.9282
X6.25Y-1.8282
X6.25Y-1.9282
T4
X5.025Y-2.625
X5.125Y-2.625
X5.225Y-2.625
T5
X4.325Y-2.3
X4.425Y-2.3
T6
X3.95Y-2.575
X6.2Y-2.575
T0
M30
