%TF.GenerationSoftware,KiCad,Pcbnew,7.0.9*%
%TF.CreationDate,2024-02-01T16:38:21+03:00*%
%TF.ProjectId,line_sensor,6c696e65-5f73-4656-9e73-6f722e6b6963,rev?*%
%TF.SameCoordinates,Original*%
%TF.FileFunction,Legend,Top*%
%TF.FilePolarity,Positive*%
%FSLAX46Y46*%
G04 Gerber Fmt 4.6, Leading zero omitted, Abs format (unit mm)*
G04 Created by KiCad (PCBNEW 7.0.9) date 2024-02-01 16:38:21*
%MOMM*%
%LPD*%
G01*
G04 APERTURE LIST*
%ADD10C,0.150000*%
%ADD11C,0.120000*%
G04 APERTURE END LIST*
D10*
X108858207Y-65229819D02*
X108524874Y-64753628D01*
X108286779Y-65229819D02*
X108286779Y-64229819D01*
X108286779Y-64229819D02*
X108667731Y-64229819D01*
X108667731Y-64229819D02*
X108762969Y-64277438D01*
X108762969Y-64277438D02*
X108810588Y-64325057D01*
X108810588Y-64325057D02*
X108858207Y-64420295D01*
X108858207Y-64420295D02*
X108858207Y-64563152D01*
X108858207Y-64563152D02*
X108810588Y-64658390D01*
X108810588Y-64658390D02*
X108762969Y-64706009D01*
X108762969Y-64706009D02*
X108667731Y-64753628D01*
X108667731Y-64753628D02*
X108286779Y-64753628D01*
X109286779Y-64229819D02*
X109286779Y-65039342D01*
X109286779Y-65039342D02*
X109334398Y-65134580D01*
X109334398Y-65134580D02*
X109382017Y-65182200D01*
X109382017Y-65182200D02*
X109477255Y-65229819D01*
X109477255Y-65229819D02*
X109667731Y-65229819D01*
X109667731Y-65229819D02*
X109762969Y-65182200D01*
X109762969Y-65182200D02*
X109810588Y-65134580D01*
X109810588Y-65134580D02*
X109858207Y-65039342D01*
X109858207Y-65039342D02*
X109858207Y-64229819D01*
X110334398Y-65229819D02*
X110334398Y-64229819D01*
X110334398Y-64229819D02*
X110667731Y-64944104D01*
X110667731Y-64944104D02*
X111001064Y-64229819D01*
X111001064Y-64229819D02*
X111001064Y-65229819D01*
X111477255Y-64706009D02*
X111810588Y-64706009D01*
X111953445Y-65229819D02*
X111477255Y-65229819D01*
X111477255Y-65229819D02*
X111477255Y-64229819D01*
X111477255Y-64229819D02*
X111953445Y-64229819D01*
X112572493Y-64753628D02*
X112572493Y-65229819D01*
X112239160Y-64229819D02*
X112572493Y-64753628D01*
X112572493Y-64753628D02*
X112905826Y-64229819D01*
X113191541Y-65182200D02*
X113334398Y-65229819D01*
X113334398Y-65229819D02*
X113572493Y-65229819D01*
X113572493Y-65229819D02*
X113667731Y-65182200D01*
X113667731Y-65182200D02*
X113715350Y-65134580D01*
X113715350Y-65134580D02*
X113762969Y-65039342D01*
X113762969Y-65039342D02*
X113762969Y-64944104D01*
X113762969Y-64944104D02*
X113715350Y-64848866D01*
X113715350Y-64848866D02*
X113667731Y-64801247D01*
X113667731Y-64801247D02*
X113572493Y-64753628D01*
X113572493Y-64753628D02*
X113382017Y-64706009D01*
X113382017Y-64706009D02*
X113286779Y-64658390D01*
X113286779Y-64658390D02*
X113239160Y-64610771D01*
X113239160Y-64610771D02*
X113191541Y-64515533D01*
X113191541Y-64515533D02*
X113191541Y-64420295D01*
X113191541Y-64420295D02*
X113239160Y-64325057D01*
X113239160Y-64325057D02*
X113286779Y-64277438D01*
X113286779Y-64277438D02*
X113382017Y-64229819D01*
X113382017Y-64229819D02*
X113620112Y-64229819D01*
X113620112Y-64229819D02*
X113762969Y-64277438D01*
X114143922Y-64944104D02*
X114620112Y-64944104D01*
X114048684Y-65229819D02*
X114382017Y-64229819D01*
X114382017Y-64229819D02*
X114715350Y-65229819D01*
X115762970Y-65182200D02*
X115905827Y-65229819D01*
X115905827Y-65229819D02*
X116143922Y-65229819D01*
X116143922Y-65229819D02*
X116239160Y-65182200D01*
X116239160Y-65182200D02*
X116286779Y-65134580D01*
X116286779Y-65134580D02*
X116334398Y-65039342D01*
X116334398Y-65039342D02*
X116334398Y-64944104D01*
X116334398Y-64944104D02*
X116286779Y-64848866D01*
X116286779Y-64848866D02*
X116239160Y-64801247D01*
X116239160Y-64801247D02*
X116143922Y-64753628D01*
X116143922Y-64753628D02*
X115953446Y-64706009D01*
X115953446Y-64706009D02*
X115858208Y-64658390D01*
X115858208Y-64658390D02*
X115810589Y-64610771D01*
X115810589Y-64610771D02*
X115762970Y-64515533D01*
X115762970Y-64515533D02*
X115762970Y-64420295D01*
X115762970Y-64420295D02*
X115810589Y-64325057D01*
X115810589Y-64325057D02*
X115858208Y-64277438D01*
X115858208Y-64277438D02*
X115953446Y-64229819D01*
X115953446Y-64229819D02*
X116191541Y-64229819D01*
X116191541Y-64229819D02*
X116334398Y-64277438D01*
X116048684Y-65277438D02*
X116143922Y-65325057D01*
X116143922Y-65325057D02*
X116191541Y-65420295D01*
X116191541Y-65420295D02*
X116143922Y-65515533D01*
X116143922Y-65515533D02*
X116048684Y-65563152D01*
X116048684Y-65563152D02*
X115905827Y-65563152D01*
X116715351Y-64944104D02*
X117191541Y-64944104D01*
X116620113Y-65229819D02*
X116953446Y-64229819D01*
X116953446Y-64229819D02*
X117286779Y-65229819D01*
X117620113Y-65229819D02*
X117620113Y-64229819D01*
X117620113Y-64706009D02*
X118191541Y-64706009D01*
X118191541Y-65229819D02*
X118191541Y-64229819D01*
X118667732Y-65229819D02*
X118667732Y-64229819D01*
X118667732Y-63896485D02*
X118620113Y-63944104D01*
X118620113Y-63944104D02*
X118667732Y-63991723D01*
X118667732Y-63991723D02*
X118715351Y-63944104D01*
X118715351Y-63944104D02*
X118667732Y-63896485D01*
X118667732Y-63896485D02*
X118667732Y-63991723D01*
X119143922Y-65229819D02*
X119143922Y-64229819D01*
X119143922Y-64229819D02*
X119715350Y-65229819D01*
X119715350Y-65229819D02*
X119715350Y-64229819D01*
X108858207Y-66744580D02*
X108810588Y-66792200D01*
X108810588Y-66792200D02*
X108667731Y-66839819D01*
X108667731Y-66839819D02*
X108572493Y-66839819D01*
X108572493Y-66839819D02*
X108429636Y-66792200D01*
X108429636Y-66792200D02*
X108334398Y-66696961D01*
X108334398Y-66696961D02*
X108286779Y-66601723D01*
X108286779Y-66601723D02*
X108239160Y-66411247D01*
X108239160Y-66411247D02*
X108239160Y-66268390D01*
X108239160Y-66268390D02*
X108286779Y-66077914D01*
X108286779Y-66077914D02*
X108334398Y-65982676D01*
X108334398Y-65982676D02*
X108429636Y-65887438D01*
X108429636Y-65887438D02*
X108572493Y-65839819D01*
X108572493Y-65839819D02*
X108667731Y-65839819D01*
X108667731Y-65839819D02*
X108810588Y-65887438D01*
X108810588Y-65887438D02*
X108858207Y-65935057D01*
X108620112Y-66887438D02*
X108715350Y-66935057D01*
X108715350Y-66935057D02*
X108762969Y-67030295D01*
X108762969Y-67030295D02*
X108715350Y-67125533D01*
X108715350Y-67125533D02*
X108620112Y-67173152D01*
X108620112Y-67173152D02*
X108477255Y-67173152D01*
X109286779Y-66839819D02*
X109286779Y-65839819D01*
X109286779Y-65506485D02*
X109239160Y-65554104D01*
X109239160Y-65554104D02*
X109286779Y-65601723D01*
X109286779Y-65601723D02*
X109334398Y-65554104D01*
X109334398Y-65554104D02*
X109286779Y-65506485D01*
X109286779Y-65506485D02*
X109286779Y-65601723D01*
X109667731Y-65839819D02*
X110334397Y-65839819D01*
X110334397Y-65839819D02*
X109667731Y-66839819D01*
X109667731Y-66839819D02*
X110334397Y-66839819D01*
X111239159Y-65887438D02*
X111143921Y-65839819D01*
X111143921Y-65839819D02*
X111001064Y-65839819D01*
X111001064Y-65839819D02*
X110858207Y-65887438D01*
X110858207Y-65887438D02*
X110762969Y-65982676D01*
X110762969Y-65982676D02*
X110715350Y-66077914D01*
X110715350Y-66077914D02*
X110667731Y-66268390D01*
X110667731Y-66268390D02*
X110667731Y-66411247D01*
X110667731Y-66411247D02*
X110715350Y-66601723D01*
X110715350Y-66601723D02*
X110762969Y-66696961D01*
X110762969Y-66696961D02*
X110858207Y-66792200D01*
X110858207Y-66792200D02*
X111001064Y-66839819D01*
X111001064Y-66839819D02*
X111096302Y-66839819D01*
X111096302Y-66839819D02*
X111239159Y-66792200D01*
X111239159Y-66792200D02*
X111286778Y-66744580D01*
X111286778Y-66744580D02*
X111286778Y-66411247D01*
X111286778Y-66411247D02*
X111096302Y-66411247D01*
X111715350Y-66839819D02*
X111715350Y-65839819D01*
X111715350Y-65506485D02*
X111667731Y-65554104D01*
X111667731Y-65554104D02*
X111715350Y-65601723D01*
X111715350Y-65601723D02*
X111762969Y-65554104D01*
X111762969Y-65554104D02*
X111715350Y-65506485D01*
X111715350Y-65506485D02*
X111715350Y-65601723D01*
X112953445Y-66839819D02*
X112953445Y-65839819D01*
X112953445Y-65506485D02*
X112905826Y-65554104D01*
X112905826Y-65554104D02*
X112953445Y-65601723D01*
X112953445Y-65601723D02*
X113001064Y-65554104D01*
X113001064Y-65554104D02*
X112953445Y-65506485D01*
X112953445Y-65506485D02*
X112953445Y-65601723D01*
X113334397Y-65839819D02*
X114001063Y-65839819D01*
X114001063Y-65839819D02*
X113334397Y-66839819D01*
X113334397Y-66839819D02*
X114001063Y-66839819D01*
X114858206Y-66839819D02*
X114382016Y-66839819D01*
X114382016Y-66839819D02*
X114382016Y-65839819D01*
X115191540Y-66316009D02*
X115524873Y-66316009D01*
X115667730Y-66839819D02*
X115191540Y-66839819D01*
X115191540Y-66839819D02*
X115191540Y-65839819D01*
X115191540Y-65839819D02*
X115667730Y-65839819D01*
X116286778Y-66363628D02*
X116286778Y-66839819D01*
X115953445Y-65839819D02*
X116286778Y-66363628D01*
X116286778Y-66363628D02*
X116620111Y-65839819D01*
X116953445Y-66316009D02*
X117286778Y-66316009D01*
X117429635Y-66839819D02*
X116953445Y-66839819D01*
X116953445Y-66839819D02*
X116953445Y-65839819D01*
X116953445Y-65839819D02*
X117429635Y-65839819D01*
X117858207Y-66839819D02*
X117858207Y-65839819D01*
X117858207Y-65839819D02*
X118429635Y-66839819D01*
X118429635Y-66839819D02*
X118429635Y-65839819D01*
X108239160Y-68402200D02*
X108382017Y-68449819D01*
X108382017Y-68449819D02*
X108620112Y-68449819D01*
X108620112Y-68449819D02*
X108715350Y-68402200D01*
X108715350Y-68402200D02*
X108762969Y-68354580D01*
X108762969Y-68354580D02*
X108810588Y-68259342D01*
X108810588Y-68259342D02*
X108810588Y-68164104D01*
X108810588Y-68164104D02*
X108762969Y-68068866D01*
X108762969Y-68068866D02*
X108715350Y-68021247D01*
X108715350Y-68021247D02*
X108620112Y-67973628D01*
X108620112Y-67973628D02*
X108429636Y-67926009D01*
X108429636Y-67926009D02*
X108334398Y-67878390D01*
X108334398Y-67878390D02*
X108286779Y-67830771D01*
X108286779Y-67830771D02*
X108239160Y-67735533D01*
X108239160Y-67735533D02*
X108239160Y-67640295D01*
X108239160Y-67640295D02*
X108286779Y-67545057D01*
X108286779Y-67545057D02*
X108334398Y-67497438D01*
X108334398Y-67497438D02*
X108429636Y-67449819D01*
X108429636Y-67449819D02*
X108667731Y-67449819D01*
X108667731Y-67449819D02*
X108810588Y-67497438D01*
X109239160Y-67926009D02*
X109572493Y-67926009D01*
X109715350Y-68449819D02*
X109239160Y-68449819D01*
X109239160Y-68449819D02*
X109239160Y-67449819D01*
X109239160Y-67449819D02*
X109715350Y-67449819D01*
X110143922Y-68449819D02*
X110143922Y-67449819D01*
X110143922Y-67449819D02*
X110715350Y-68449819D01*
X110715350Y-68449819D02*
X110715350Y-67449819D01*
X111143922Y-68402200D02*
X111286779Y-68449819D01*
X111286779Y-68449819D02*
X111524874Y-68449819D01*
X111524874Y-68449819D02*
X111620112Y-68402200D01*
X111620112Y-68402200D02*
X111667731Y-68354580D01*
X111667731Y-68354580D02*
X111715350Y-68259342D01*
X111715350Y-68259342D02*
X111715350Y-68164104D01*
X111715350Y-68164104D02*
X111667731Y-68068866D01*
X111667731Y-68068866D02*
X111620112Y-68021247D01*
X111620112Y-68021247D02*
X111524874Y-67973628D01*
X111524874Y-67973628D02*
X111334398Y-67926009D01*
X111334398Y-67926009D02*
X111239160Y-67878390D01*
X111239160Y-67878390D02*
X111191541Y-67830771D01*
X111191541Y-67830771D02*
X111143922Y-67735533D01*
X111143922Y-67735533D02*
X111143922Y-67640295D01*
X111143922Y-67640295D02*
X111191541Y-67545057D01*
X111191541Y-67545057D02*
X111239160Y-67497438D01*
X111239160Y-67497438D02*
X111334398Y-67449819D01*
X111334398Y-67449819D02*
X111572493Y-67449819D01*
X111572493Y-67449819D02*
X111715350Y-67497438D01*
X112334398Y-67449819D02*
X112524874Y-67449819D01*
X112524874Y-67449819D02*
X112620112Y-67497438D01*
X112620112Y-67497438D02*
X112715350Y-67592676D01*
X112715350Y-67592676D02*
X112762969Y-67783152D01*
X112762969Y-67783152D02*
X112762969Y-68116485D01*
X112762969Y-68116485D02*
X112715350Y-68306961D01*
X112715350Y-68306961D02*
X112620112Y-68402200D01*
X112620112Y-68402200D02*
X112524874Y-68449819D01*
X112524874Y-68449819D02*
X112334398Y-68449819D01*
X112334398Y-68449819D02*
X112239160Y-68402200D01*
X112239160Y-68402200D02*
X112143922Y-68306961D01*
X112143922Y-68306961D02*
X112096303Y-68116485D01*
X112096303Y-68116485D02*
X112096303Y-67783152D01*
X112096303Y-67783152D02*
X112143922Y-67592676D01*
X112143922Y-67592676D02*
X112239160Y-67497438D01*
X112239160Y-67497438D02*
X112334398Y-67449819D01*
X112239160Y-67116485D02*
X112286779Y-67164104D01*
X112286779Y-67164104D02*
X112239160Y-67211723D01*
X112239160Y-67211723D02*
X112191541Y-67164104D01*
X112191541Y-67164104D02*
X112239160Y-67116485D01*
X112239160Y-67116485D02*
X112239160Y-67211723D01*
X112620112Y-67116485D02*
X112667731Y-67164104D01*
X112667731Y-67164104D02*
X112620112Y-67211723D01*
X112620112Y-67211723D02*
X112572493Y-67164104D01*
X112572493Y-67164104D02*
X112620112Y-67116485D01*
X112620112Y-67116485D02*
X112620112Y-67211723D01*
X113762969Y-68449819D02*
X113429636Y-67973628D01*
X113191541Y-68449819D02*
X113191541Y-67449819D01*
X113191541Y-67449819D02*
X113572493Y-67449819D01*
X113572493Y-67449819D02*
X113667731Y-67497438D01*
X113667731Y-67497438D02*
X113715350Y-67545057D01*
X113715350Y-67545057D02*
X113762969Y-67640295D01*
X113762969Y-67640295D02*
X113762969Y-67783152D01*
X113762969Y-67783152D02*
X113715350Y-67878390D01*
X113715350Y-67878390D02*
X113667731Y-67926009D01*
X113667731Y-67926009D02*
X113572493Y-67973628D01*
X113572493Y-67973628D02*
X113191541Y-67973628D01*
X114953446Y-68449819D02*
X114953446Y-67449819D01*
X115524874Y-68449819D02*
X115096303Y-67878390D01*
X115524874Y-67449819D02*
X114953446Y-68021247D01*
X115905827Y-68164104D02*
X116382017Y-68164104D01*
X115810589Y-68449819D02*
X116143922Y-67449819D01*
X116143922Y-67449819D02*
X116477255Y-68449819D01*
X117382017Y-68449819D02*
X117048684Y-67973628D01*
X116810589Y-68449819D02*
X116810589Y-67449819D01*
X116810589Y-67449819D02*
X117191541Y-67449819D01*
X117191541Y-67449819D02*
X117286779Y-67497438D01*
X117286779Y-67497438D02*
X117334398Y-67545057D01*
X117334398Y-67545057D02*
X117382017Y-67640295D01*
X117382017Y-67640295D02*
X117382017Y-67783152D01*
X117382017Y-67783152D02*
X117334398Y-67878390D01*
X117334398Y-67878390D02*
X117286779Y-67926009D01*
X117286779Y-67926009D02*
X117191541Y-67973628D01*
X117191541Y-67973628D02*
X116810589Y-67973628D01*
X117667732Y-67449819D02*
X118239160Y-67449819D01*
X117953446Y-68449819D02*
X117953446Y-67449819D01*
X118572494Y-68449819D02*
X118572494Y-67449819D01*
X120314819Y-59181904D02*
X121124342Y-59181904D01*
X121124342Y-59181904D02*
X121219580Y-59134285D01*
X121219580Y-59134285D02*
X121267200Y-59086666D01*
X121267200Y-59086666D02*
X121314819Y-58991428D01*
X121314819Y-58991428D02*
X121314819Y-58800952D01*
X121314819Y-58800952D02*
X121267200Y-58705714D01*
X121267200Y-58705714D02*
X121219580Y-58658095D01*
X121219580Y-58658095D02*
X121124342Y-58610476D01*
X121124342Y-58610476D02*
X120314819Y-58610476D01*
X120648152Y-57705714D02*
X121314819Y-57705714D01*
X120267200Y-57943809D02*
X120981485Y-58181904D01*
X120981485Y-58181904D02*
X120981485Y-57562857D01*
X157313333Y-53144819D02*
X156980000Y-52668628D01*
X156741905Y-53144819D02*
X156741905Y-52144819D01*
X156741905Y-52144819D02*
X157122857Y-52144819D01*
X157122857Y-52144819D02*
X157218095Y-52192438D01*
X157218095Y-52192438D02*
X157265714Y-52240057D01*
X157265714Y-52240057D02*
X157313333Y-52335295D01*
X157313333Y-52335295D02*
X157313333Y-52478152D01*
X157313333Y-52478152D02*
X157265714Y-52573390D01*
X157265714Y-52573390D02*
X157218095Y-52621009D01*
X157218095Y-52621009D02*
X157122857Y-52668628D01*
X157122857Y-52668628D02*
X156741905Y-52668628D01*
X158170476Y-52144819D02*
X157980000Y-52144819D01*
X157980000Y-52144819D02*
X157884762Y-52192438D01*
X157884762Y-52192438D02*
X157837143Y-52240057D01*
X157837143Y-52240057D02*
X157741905Y-52382914D01*
X157741905Y-52382914D02*
X157694286Y-52573390D01*
X157694286Y-52573390D02*
X157694286Y-52954342D01*
X157694286Y-52954342D02*
X157741905Y-53049580D01*
X157741905Y-53049580D02*
X157789524Y-53097200D01*
X157789524Y-53097200D02*
X157884762Y-53144819D01*
X157884762Y-53144819D02*
X158075238Y-53144819D01*
X158075238Y-53144819D02*
X158170476Y-53097200D01*
X158170476Y-53097200D02*
X158218095Y-53049580D01*
X158218095Y-53049580D02*
X158265714Y-52954342D01*
X158265714Y-52954342D02*
X158265714Y-52716247D01*
X158265714Y-52716247D02*
X158218095Y-52621009D01*
X158218095Y-52621009D02*
X158170476Y-52573390D01*
X158170476Y-52573390D02*
X158075238Y-52525771D01*
X158075238Y-52525771D02*
X157884762Y-52525771D01*
X157884762Y-52525771D02*
X157789524Y-52573390D01*
X157789524Y-52573390D02*
X157741905Y-52621009D01*
X157741905Y-52621009D02*
X157694286Y-52716247D01*
X150299819Y-47791666D02*
X149823628Y-48124999D01*
X150299819Y-48363094D02*
X149299819Y-48363094D01*
X149299819Y-48363094D02*
X149299819Y-47982142D01*
X149299819Y-47982142D02*
X149347438Y-47886904D01*
X149347438Y-47886904D02*
X149395057Y-47839285D01*
X149395057Y-47839285D02*
X149490295Y-47791666D01*
X149490295Y-47791666D02*
X149633152Y-47791666D01*
X149633152Y-47791666D02*
X149728390Y-47839285D01*
X149728390Y-47839285D02*
X149776009Y-47886904D01*
X149776009Y-47886904D02*
X149823628Y-47982142D01*
X149823628Y-47982142D02*
X149823628Y-48363094D01*
X149299819Y-46886904D02*
X149299819Y-47363094D01*
X149299819Y-47363094D02*
X149776009Y-47410713D01*
X149776009Y-47410713D02*
X149728390Y-47363094D01*
X149728390Y-47363094D02*
X149680771Y-47267856D01*
X149680771Y-47267856D02*
X149680771Y-47029761D01*
X149680771Y-47029761D02*
X149728390Y-46934523D01*
X149728390Y-46934523D02*
X149776009Y-46886904D01*
X149776009Y-46886904D02*
X149871247Y-46839285D01*
X149871247Y-46839285D02*
X150109342Y-46839285D01*
X150109342Y-46839285D02*
X150204580Y-46886904D01*
X150204580Y-46886904D02*
X150252200Y-46934523D01*
X150252200Y-46934523D02*
X150299819Y-47029761D01*
X150299819Y-47029761D02*
X150299819Y-47267856D01*
X150299819Y-47267856D02*
X150252200Y-47363094D01*
X150252200Y-47363094D02*
X150204580Y-47410713D01*
X133789819Y-47791666D02*
X133313628Y-48124999D01*
X133789819Y-48363094D02*
X132789819Y-48363094D01*
X132789819Y-48363094D02*
X132789819Y-47982142D01*
X132789819Y-47982142D02*
X132837438Y-47886904D01*
X132837438Y-47886904D02*
X132885057Y-47839285D01*
X132885057Y-47839285D02*
X132980295Y-47791666D01*
X132980295Y-47791666D02*
X133123152Y-47791666D01*
X133123152Y-47791666D02*
X133218390Y-47839285D01*
X133218390Y-47839285D02*
X133266009Y-47886904D01*
X133266009Y-47886904D02*
X133313628Y-47982142D01*
X133313628Y-47982142D02*
X133313628Y-48363094D01*
X133123152Y-46934523D02*
X133789819Y-46934523D01*
X132742200Y-47172618D02*
X133456485Y-47410713D01*
X133456485Y-47410713D02*
X133456485Y-46791666D01*
X122359819Y-47791666D02*
X121883628Y-48124999D01*
X122359819Y-48363094D02*
X121359819Y-48363094D01*
X121359819Y-48363094D02*
X121359819Y-47982142D01*
X121359819Y-47982142D02*
X121407438Y-47886904D01*
X121407438Y-47886904D02*
X121455057Y-47839285D01*
X121455057Y-47839285D02*
X121550295Y-47791666D01*
X121550295Y-47791666D02*
X121693152Y-47791666D01*
X121693152Y-47791666D02*
X121788390Y-47839285D01*
X121788390Y-47839285D02*
X121836009Y-47886904D01*
X121836009Y-47886904D02*
X121883628Y-47982142D01*
X121883628Y-47982142D02*
X121883628Y-48363094D01*
X121359819Y-47458332D02*
X121359819Y-46839285D01*
X121359819Y-46839285D02*
X121740771Y-47172618D01*
X121740771Y-47172618D02*
X121740771Y-47029761D01*
X121740771Y-47029761D02*
X121788390Y-46934523D01*
X121788390Y-46934523D02*
X121836009Y-46886904D01*
X121836009Y-46886904D02*
X121931247Y-46839285D01*
X121931247Y-46839285D02*
X122169342Y-46839285D01*
X122169342Y-46839285D02*
X122264580Y-46886904D01*
X122264580Y-46886904D02*
X122312200Y-46934523D01*
X122312200Y-46934523D02*
X122359819Y-47029761D01*
X122359819Y-47029761D02*
X122359819Y-47315475D01*
X122359819Y-47315475D02*
X122312200Y-47410713D01*
X122312200Y-47410713D02*
X122264580Y-47458332D01*
X105849819Y-47791666D02*
X105373628Y-48124999D01*
X105849819Y-48363094D02*
X104849819Y-48363094D01*
X104849819Y-48363094D02*
X104849819Y-47982142D01*
X104849819Y-47982142D02*
X104897438Y-47886904D01*
X104897438Y-47886904D02*
X104945057Y-47839285D01*
X104945057Y-47839285D02*
X105040295Y-47791666D01*
X105040295Y-47791666D02*
X105183152Y-47791666D01*
X105183152Y-47791666D02*
X105278390Y-47839285D01*
X105278390Y-47839285D02*
X105326009Y-47886904D01*
X105326009Y-47886904D02*
X105373628Y-47982142D01*
X105373628Y-47982142D02*
X105373628Y-48363094D01*
X104945057Y-47410713D02*
X104897438Y-47363094D01*
X104897438Y-47363094D02*
X104849819Y-47267856D01*
X104849819Y-47267856D02*
X104849819Y-47029761D01*
X104849819Y-47029761D02*
X104897438Y-46934523D01*
X104897438Y-46934523D02*
X104945057Y-46886904D01*
X104945057Y-46886904D02*
X105040295Y-46839285D01*
X105040295Y-46839285D02*
X105135533Y-46839285D01*
X105135533Y-46839285D02*
X105278390Y-46886904D01*
X105278390Y-46886904D02*
X105849819Y-47458332D01*
X105849819Y-47458332D02*
X105849819Y-46839285D01*
X101433333Y-56984819D02*
X101100000Y-56508628D01*
X100861905Y-56984819D02*
X100861905Y-55984819D01*
X100861905Y-55984819D02*
X101242857Y-55984819D01*
X101242857Y-55984819D02*
X101338095Y-56032438D01*
X101338095Y-56032438D02*
X101385714Y-56080057D01*
X101385714Y-56080057D02*
X101433333Y-56175295D01*
X101433333Y-56175295D02*
X101433333Y-56318152D01*
X101433333Y-56318152D02*
X101385714Y-56413390D01*
X101385714Y-56413390D02*
X101338095Y-56461009D01*
X101338095Y-56461009D02*
X101242857Y-56508628D01*
X101242857Y-56508628D02*
X100861905Y-56508628D01*
X102385714Y-56984819D02*
X101814286Y-56984819D01*
X102100000Y-56984819D02*
X102100000Y-55984819D01*
X102100000Y-55984819D02*
X102004762Y-56127676D01*
X102004762Y-56127676D02*
X101909524Y-56222914D01*
X101909524Y-56222914D02*
X101814286Y-56270533D01*
X124759819Y-67008333D02*
X125474104Y-67008333D01*
X125474104Y-67008333D02*
X125616961Y-67055952D01*
X125616961Y-67055952D02*
X125712200Y-67151190D01*
X125712200Y-67151190D02*
X125759819Y-67294047D01*
X125759819Y-67294047D02*
X125759819Y-67389285D01*
X124855057Y-66579761D02*
X124807438Y-66532142D01*
X124807438Y-66532142D02*
X124759819Y-66436904D01*
X124759819Y-66436904D02*
X124759819Y-66198809D01*
X124759819Y-66198809D02*
X124807438Y-66103571D01*
X124807438Y-66103571D02*
X124855057Y-66055952D01*
X124855057Y-66055952D02*
X124950295Y-66008333D01*
X124950295Y-66008333D02*
X125045533Y-66008333D01*
X125045533Y-66008333D02*
X125188390Y-66055952D01*
X125188390Y-66055952D02*
X125759819Y-66627380D01*
X125759819Y-66627380D02*
X125759819Y-66008333D01*
X110791666Y-53754819D02*
X110791666Y-54469104D01*
X110791666Y-54469104D02*
X110744047Y-54611961D01*
X110744047Y-54611961D02*
X110648809Y-54707200D01*
X110648809Y-54707200D02*
X110505952Y-54754819D01*
X110505952Y-54754819D02*
X110410714Y-54754819D01*
X111791666Y-54754819D02*
X111220238Y-54754819D01*
X111505952Y-54754819D02*
X111505952Y-53754819D01*
X111505952Y-53754819D02*
X111410714Y-53897676D01*
X111410714Y-53897676D02*
X111315476Y-53992914D01*
X111315476Y-53992914D02*
X111220238Y-54040533D01*
D11*
%TO.C,U4*%
X121860000Y-61070000D02*
X139760000Y-61070000D01*
X121860000Y-55770000D02*
X121860000Y-57420000D01*
X139760000Y-61070000D02*
X139760000Y-55770000D01*
X139760000Y-55770000D02*
X121860000Y-55770000D01*
X121860000Y-59420000D02*
X121860000Y-61070000D01*
X121860000Y-59420000D02*
G75*
G03*
X121860000Y-57420000I0J1000000D01*
G01*
%TO.C,R6*%
X155560000Y-55530000D02*
X159400000Y-55530000D01*
X155560000Y-53690000D02*
X159400000Y-53690000D01*
%TO.C,R5*%
X152685000Y-49545000D02*
X152685000Y-45705000D01*
X150845000Y-49545000D02*
X150845000Y-45705000D01*
%TO.C,R4*%
X136175000Y-49545000D02*
X136175000Y-45705000D01*
X134335000Y-49545000D02*
X134335000Y-45705000D01*
%TO.C,R3*%
X124745000Y-49545000D02*
X124745000Y-45705000D01*
X122905000Y-49545000D02*
X122905000Y-45705000D01*
%TO.C,R2*%
X108235000Y-49545000D02*
X108235000Y-45705000D01*
X106395000Y-49545000D02*
X106395000Y-45705000D01*
%TO.C,R1*%
X103520000Y-53690000D02*
X99680000Y-53690000D01*
X103520000Y-55530000D02*
X99680000Y-55530000D01*
%TO.C,J2*%
X128905000Y-68005000D02*
X128905000Y-65345000D01*
X126305000Y-68005000D02*
X126305000Y-66675000D01*
X128905000Y-65345000D02*
X134045000Y-65345000D01*
X127635000Y-68005000D02*
X126305000Y-68005000D01*
X128905000Y-68005000D02*
X134045000Y-68005000D01*
X134045000Y-68005000D02*
X134045000Y-65345000D01*
%TO.C,J1*%
X108475000Y-61410000D02*
X113775000Y-61410000D01*
X110655000Y-55990000D02*
X110655000Y-55390000D01*
X108185000Y-56420000D02*
X108185000Y-60420000D01*
X108475000Y-55390000D02*
X108475000Y-61410000D01*
X111595000Y-55390000D02*
X111595000Y-55990000D01*
X112395000Y-60410000D02*
X112395000Y-61410000D01*
X112145000Y-61410000D02*
X112145000Y-60410000D01*
X109055000Y-55990000D02*
X110655000Y-55990000D01*
X111595000Y-55990000D02*
X113195000Y-55990000D01*
X112145000Y-59880000D02*
X112395000Y-60410000D01*
X109855000Y-60410000D02*
X112395000Y-60410000D01*
X109855000Y-61410000D02*
X109855000Y-60410000D01*
X110105000Y-61410000D02*
X110105000Y-60410000D01*
X109855000Y-60410000D02*
X110105000Y-59880000D01*
X113775000Y-55390000D02*
X108475000Y-55390000D01*
X109055000Y-55390000D02*
X109055000Y-55990000D01*
X113775000Y-61410000D02*
X113775000Y-55390000D01*
X113195000Y-55990000D02*
X113195000Y-55390000D01*
X110105000Y-59880000D02*
X112145000Y-59880000D01*
%TD*%
M02*
