%TF.GenerationSoftware,KiCad,Pcbnew,7.0.9*%
%TF.CreationDate,2024-02-01T16:38:21+03:00*%
%TF.ProjectId,line_sensor,6c696e65-5f73-4656-9e73-6f722e6b6963,rev?*%
%TF.SameCoordinates,Original*%
%TF.FileFunction,Copper,L2,Bot*%
%TF.FilePolarity,Positive*%
%FSLAX46Y46*%
G04 Gerber Fmt 4.6, Leading zero omitted, Abs format (unit mm)*
G04 Created by KiCad (PCBNEW 7.0.9) date 2024-02-01 16:38:21*
%MOMM*%
%LPD*%
G01*
G04 APERTURE LIST*
G04 Aperture macros list*
%AMRoundRect*
0 Rectangle with rounded corners*
0 $1 Rounding radius*
0 $2 $3 $4 $5 $6 $7 $8 $9 X,Y pos of 4 corners*
0 Add a 4 corners polygon primitive as box body*
4,1,4,$2,$3,$4,$5,$6,$7,$8,$9,$2,$3,0*
0 Add four circle primitives for the rounded corners*
1,1,$1+$1,$2,$3*
1,1,$1+$1,$4,$5*
1,1,$1+$1,$6,$7*
1,1,$1+$1,$8,$9*
0 Add four rect primitives between the rounded corners*
20,1,$1+$1,$2,$3,$4,$5,0*
20,1,$1+$1,$4,$5,$6,$7,0*
20,1,$1+$1,$6,$7,$8,$9,0*
20,1,$1+$1,$8,$9,$2,$3,0*%
G04 Aperture macros list end*
%TA.AperFunction,ComponentPad*%
%ADD10C,0.800000*%
%TD*%
%TA.AperFunction,ComponentPad*%
%ADD11C,6.000000*%
%TD*%
%TA.AperFunction,ComponentPad*%
%ADD12R,1.600000X1.600000*%
%TD*%
%TA.AperFunction,ComponentPad*%
%ADD13O,1.600000X1.600000*%
%TD*%
%TA.AperFunction,ComponentPad*%
%ADD14RoundRect,0.249600X0.550400X0.550400X-0.550400X0.550400X-0.550400X-0.550400X0.550400X-0.550400X0*%
%TD*%
%TA.AperFunction,ComponentPad*%
%ADD15C,1.600000*%
%TD*%
%TA.AperFunction,ComponentPad*%
%ADD16C,1.400000*%
%TD*%
%TA.AperFunction,ComponentPad*%
%ADD17O,1.400000X1.400000*%
%TD*%
%TA.AperFunction,ComponentPad*%
%ADD18O,1.700000X1.700000*%
%TD*%
%TA.AperFunction,ComponentPad*%
%ADD19R,1.700000X1.700000*%
%TD*%
%TA.AperFunction,ComponentPad*%
%ADD20RoundRect,0.250000X-0.620000X-0.845000X0.620000X-0.845000X0.620000X0.845000X-0.620000X0.845000X0*%
%TD*%
%TA.AperFunction,ComponentPad*%
%ADD21O,1.740000X2.190000*%
%TD*%
%TA.AperFunction,Conductor*%
%ADD22C,0.400000*%
%TD*%
%TA.AperFunction,Conductor*%
%ADD23C,0.500000*%
%TD*%
G04 APERTURE END LIST*
D10*
%TO.P,REF\u002A\u002A,1*%
%TO.N,N/C*%
X98080000Y-65405000D03*
X98739010Y-63814010D03*
X98739010Y-66995990D03*
X100330000Y-63155000D03*
D11*
X100330000Y-65405000D03*
D10*
X100330000Y-67655000D03*
X101920990Y-63814010D03*
X101920990Y-66995990D03*
X102580000Y-65405000D03*
%TD*%
D11*
%TO.P,REF\u002A\u002A,1*%
%TO.N,N/C*%
X157480000Y-65405000D03*
D10*
X159070990Y-63814010D03*
X155889010Y-66995990D03*
X159070990Y-66995990D03*
X159730000Y-65405000D03*
X157480000Y-67655000D03*
X157480000Y-63155000D03*
X155230000Y-65405000D03*
X155889010Y-63814010D03*
%TD*%
D12*
%TO.P,U4,1*%
%TO.N,Net-(U1-C)*%
X123190000Y-62230000D03*
D13*
%TO.P,U4,2*%
%TO.N,SENSORLEFT*%
X125730000Y-62230000D03*
%TO.P,U4,3*%
%TO.N,Net-(U2-C)*%
X128270000Y-62230000D03*
%TO.P,U4,4*%
%TO.N,SENSORMIDDLE*%
X130810000Y-62230000D03*
%TO.P,U4,5*%
%TO.N,Net-(U3-C)*%
X133350000Y-62230000D03*
%TO.P,U4,6*%
%TO.N,SENSORRIGHT*%
X135890000Y-62230000D03*
%TO.P,U4,7*%
%TO.N,GND*%
X138430000Y-62230000D03*
%TO.P,U4,8*%
%TO.N,N/C*%
X138430000Y-54610000D03*
%TO.P,U4,9*%
X135890000Y-54610000D03*
%TO.P,U4,10*%
X133350000Y-54610000D03*
%TO.P,U4,11*%
X130810000Y-54610000D03*
%TO.P,U4,12*%
X128270000Y-54610000D03*
%TO.P,U4,13*%
X125730000Y-54610000D03*
%TO.P,U4,14*%
%TO.N,+5V*%
X123190000Y-54610000D03*
%TD*%
D14*
%TO.P,U3,1,A*%
%TO.N,Net-(U3-A)*%
X158750000Y-46437500D03*
D15*
%TO.P,U3,2,K*%
%TO.N,GND*%
X158750000Y-48977500D03*
%TO.P,U3,3,C*%
%TO.N,Net-(U3-C)*%
X155950000Y-48977500D03*
%TO.P,U3,4,E*%
%TO.N,GND*%
X155950000Y-46437500D03*
%TD*%
D14*
%TO.P,U2,1,A*%
%TO.N,Net-(U2-A)*%
X130810000Y-46437500D03*
D15*
%TO.P,U2,2,K*%
%TO.N,GND*%
X130810000Y-48977500D03*
%TO.P,U2,3,C*%
%TO.N,Net-(U2-C)*%
X128010000Y-48977500D03*
%TO.P,U2,4,E*%
%TO.N,GND*%
X128010000Y-46437500D03*
%TD*%
%TO.P,U1,4,E*%
%TO.N,GND*%
X99940000Y-46437500D03*
%TO.P,U1,3,C*%
%TO.N,Net-(U1-C)*%
X99940000Y-48977500D03*
%TO.P,U1,2,K*%
%TO.N,GND*%
X102740000Y-48977500D03*
D14*
%TO.P,U1,1,A*%
%TO.N,Net-(U1-A)*%
X102740000Y-46437500D03*
%TD*%
D16*
%TO.P,R6,1*%
%TO.N,+5V*%
X154940000Y-54610000D03*
D17*
%TO.P,R6,2*%
%TO.N,Net-(U3-C)*%
X160020000Y-54610000D03*
%TD*%
D16*
%TO.P,R5,1*%
%TO.N,+5V*%
X151765000Y-50165000D03*
D17*
%TO.P,R5,2*%
%TO.N,Net-(U3-A)*%
X151765000Y-45085000D03*
%TD*%
D16*
%TO.P,R4,1*%
%TO.N,+5V*%
X135255000Y-50165000D03*
D17*
%TO.P,R4,2*%
%TO.N,Net-(U2-C)*%
X135255000Y-45085000D03*
%TD*%
D16*
%TO.P,R3,1*%
%TO.N,+5V*%
X123825000Y-50165000D03*
D17*
%TO.P,R3,2*%
%TO.N,Net-(U2-A)*%
X123825000Y-45085000D03*
%TD*%
D16*
%TO.P,R2,1*%
%TO.N,+5V*%
X107315000Y-50165000D03*
D17*
%TO.P,R2,2*%
%TO.N,Net-(U1-C)*%
X107315000Y-45085000D03*
%TD*%
D16*
%TO.P,R1,1*%
%TO.N,+5V*%
X104140000Y-54610000D03*
D17*
%TO.P,R1,2*%
%TO.N,Net-(U1-A)*%
X99060000Y-54610000D03*
%TD*%
D18*
%TO.P,J2,3,Pin_3*%
%TO.N,SENSORRIGHT*%
X132715000Y-66675000D03*
%TO.P,J2,2,Pin_2*%
%TO.N,SENSORMIDDLE*%
X130175000Y-66675000D03*
D19*
%TO.P,J2,1,Pin_1*%
%TO.N,SENSORLEFT*%
X127635000Y-66675000D03*
%TD*%
D20*
%TO.P,J1,1,Pin_1*%
%TO.N,+5V*%
X109855000Y-58420000D03*
D21*
%TO.P,J1,2,Pin_2*%
%TO.N,GND*%
X112395000Y-58420000D03*
%TD*%
D22*
%TO.N,GND*%
X101190000Y-59915000D02*
X103095000Y-59915000D01*
X97790000Y-53316250D02*
X97790000Y-56515000D01*
X102128750Y-48977500D02*
X97790000Y-53316250D01*
X97790000Y-56515000D02*
X101190000Y-59915000D01*
X102740000Y-48977500D02*
X102128750Y-48977500D01*
D23*
%TO.N,+5V*%
X107950000Y-58420000D02*
X109855000Y-58420000D01*
X104140000Y-54610000D02*
X107950000Y-58420000D01*
D22*
%TO.N,GND*%
X103095000Y-59915000D02*
X110900000Y-59915000D01*
X110900000Y-59915000D02*
X112395000Y-58420000D01*
X102235000Y-59055000D02*
X103095000Y-59915000D01*
%TO.N,Net-(U1-A)*%
X100965000Y-52070000D02*
X101600000Y-52070000D01*
X104222500Y-46437500D02*
X102740000Y-46437500D01*
X99060000Y-53975000D02*
X100965000Y-52070000D01*
X99060000Y-54610000D02*
X99060000Y-53975000D01*
X101600000Y-52070000D02*
X104727500Y-48942500D01*
X104727500Y-48942500D02*
X104727500Y-46942500D01*
X104727500Y-46942500D02*
X104222500Y-46437500D01*
%TO.N,GND*%
X102235000Y-53340000D02*
X102235000Y-59055000D01*
X111760000Y-43815000D02*
X102235000Y-53340000D01*
X119380000Y-43815000D02*
X111760000Y-43815000D01*
X122002500Y-46437500D02*
X119380000Y-43815000D01*
X128010000Y-46437500D02*
X122002500Y-46437500D01*
%TO.N,Net-(U2-C)*%
X135255000Y-47625000D02*
X135255000Y-45085000D01*
X131737500Y-51142500D02*
X135255000Y-47625000D01*
X130175000Y-51142500D02*
X131737500Y-51142500D01*
X128010000Y-48977500D02*
X130175000Y-51142500D01*
%TO.N,Net-(U2-A)*%
X130810000Y-44450000D02*
X130810000Y-46437500D01*
X129540000Y-43180000D02*
X130810000Y-44450000D01*
X125730000Y-43180000D02*
X129540000Y-43180000D01*
X123825000Y-45085000D02*
X125730000Y-43180000D01*
%TO.N,GND*%
X128270000Y-46437500D02*
X130810000Y-48977500D01*
X128010000Y-46437500D02*
X128270000Y-46437500D01*
%TO.N,Net-(U1-C)*%
X106045000Y-43815000D02*
X107315000Y-45085000D01*
X98425000Y-43815000D02*
X106045000Y-43815000D01*
X98425000Y-47462500D02*
X98425000Y-43815000D01*
X99940000Y-48977500D02*
X98425000Y-47462500D01*
%TO.N,GND*%
X100200000Y-46437500D02*
X102740000Y-48977500D01*
X99940000Y-46437500D02*
X100200000Y-46437500D01*
%TO.N,Net-(U3-C)*%
X135255000Y-60325000D02*
X133350000Y-62230000D01*
X154305000Y-60325000D02*
X135255000Y-60325000D01*
X160020000Y-54610000D02*
X154305000Y-60325000D01*
%TO.N,SENSORMIDDLE*%
X130810000Y-66040000D02*
X130175000Y-66675000D01*
X130810000Y-62230000D02*
X130810000Y-66040000D01*
%TO.N,SENSORRIGHT*%
X135890000Y-63500000D02*
X132715000Y-66675000D01*
X135890000Y-62230000D02*
X135890000Y-63500000D01*
%TO.N,SENSORLEFT*%
X125730000Y-64770000D02*
X127635000Y-66675000D01*
X125730000Y-62230000D02*
X125730000Y-64770000D01*
%TO.N,Net-(U3-C)*%
X155950000Y-50540000D02*
X160020000Y-54610000D01*
X155950000Y-48977500D02*
X155950000Y-50540000D01*
%TO.N,GND*%
X156210000Y-46437500D02*
X158750000Y-48977500D01*
X155950000Y-46437500D02*
X156210000Y-46437500D01*
%TO.N,Net-(U3-A)*%
X158750000Y-45085000D02*
X158750000Y-46437500D01*
X157480000Y-43815000D02*
X158750000Y-45085000D01*
X151765000Y-45085000D02*
X153035000Y-43815000D01*
X153035000Y-43815000D02*
X157480000Y-43815000D01*
D23*
%TO.N,+5V*%
X151765000Y-50165000D02*
X154940000Y-53340000D01*
X154940000Y-53340000D02*
X154940000Y-54610000D01*
X135255000Y-50165000D02*
X151765000Y-50165000D01*
X133985000Y-52705000D02*
X135255000Y-51435000D01*
X135255000Y-51435000D02*
X135255000Y-50165000D01*
X126365000Y-52705000D02*
X133985000Y-52705000D01*
X123825000Y-50165000D02*
X126365000Y-52705000D01*
X107315000Y-50165000D02*
X123825000Y-50165000D01*
X107315000Y-51435000D02*
X107315000Y-50165000D01*
X104140000Y-54610000D02*
X107315000Y-51435000D01*
X123825000Y-53975000D02*
X123190000Y-54610000D01*
X123825000Y-50165000D02*
X123825000Y-53975000D01*
%TD*%
%TA.AperFunction,Conductor*%
%TO.N,GND*%
G36*
X157029025Y-47162972D02*
G01*
X157080136Y-47089978D01*
X157176264Y-46883831D01*
X157176269Y-46883817D01*
X157205725Y-46773884D01*
X157242089Y-46714224D01*
X157304936Y-46683694D01*
X157374312Y-46691988D01*
X157428190Y-46736473D01*
X157449465Y-46803025D01*
X157449500Y-46805976D01*
X157449500Y-47037870D01*
X157449501Y-47037887D01*
X157459996Y-47140617D01*
X157515150Y-47307061D01*
X157515155Y-47307072D01*
X157607202Y-47456302D01*
X157607205Y-47456306D01*
X157731193Y-47580294D01*
X157731197Y-47580297D01*
X157880427Y-47672344D01*
X157880430Y-47672345D01*
X157880436Y-47672349D01*
X157963073Y-47699732D01*
X158020517Y-47739503D01*
X158047341Y-47804018D01*
X158035026Y-47872794D01*
X158025841Y-47883451D01*
X158024526Y-47898473D01*
X158705600Y-48579546D01*
X158624852Y-48592335D01*
X158511955Y-48649859D01*
X158422359Y-48739455D01*
X158364835Y-48852352D01*
X158352046Y-48933099D01*
X157670973Y-48252026D01*
X157670972Y-48252027D01*
X157619868Y-48325013D01*
X157523734Y-48531173D01*
X157523731Y-48531180D01*
X157470033Y-48731584D01*
X157433668Y-48791244D01*
X157370821Y-48821773D01*
X157301445Y-48813478D01*
X157247567Y-48768993D01*
X157230484Y-48731586D01*
X157176739Y-48531004D01*
X157080568Y-48324766D01*
X156950047Y-48138361D01*
X156950045Y-48138358D01*
X156789141Y-47977454D01*
X156646888Y-47877849D01*
X156602734Y-47846932D01*
X156544132Y-47819605D01*
X156491694Y-47773433D01*
X156472543Y-47706239D01*
X156492759Y-47639358D01*
X156544135Y-47594841D01*
X156602482Y-47567633D01*
X156675472Y-47516525D01*
X155994401Y-46835453D01*
X156075148Y-46822665D01*
X156188045Y-46765141D01*
X156277641Y-46675545D01*
X156335165Y-46562648D01*
X156347953Y-46481900D01*
X157029025Y-47162972D01*
G37*
%TD.AperFunction*%
%TA.AperFunction,Conductor*%
G36*
X101019025Y-47162972D02*
G01*
X101070136Y-47089978D01*
X101166264Y-46883831D01*
X101166269Y-46883817D01*
X101195725Y-46773884D01*
X101232089Y-46714224D01*
X101294936Y-46683694D01*
X101364312Y-46691988D01*
X101418190Y-46736473D01*
X101439465Y-46803025D01*
X101439500Y-46805976D01*
X101439500Y-47037870D01*
X101439501Y-47037887D01*
X101449996Y-47140617D01*
X101505150Y-47307061D01*
X101505155Y-47307072D01*
X101597202Y-47456302D01*
X101597205Y-47456306D01*
X101721193Y-47580294D01*
X101721197Y-47580297D01*
X101870427Y-47672344D01*
X101870430Y-47672345D01*
X101870436Y-47672349D01*
X101953073Y-47699732D01*
X102010517Y-47739503D01*
X102037341Y-47804018D01*
X102025026Y-47872794D01*
X102015841Y-47883451D01*
X102014526Y-47898473D01*
X102695600Y-48579546D01*
X102614852Y-48592335D01*
X102501955Y-48649859D01*
X102412359Y-48739455D01*
X102354835Y-48852352D01*
X102342046Y-48933099D01*
X101660973Y-48252026D01*
X101660972Y-48252027D01*
X101609868Y-48325013D01*
X101513734Y-48531173D01*
X101513731Y-48531180D01*
X101460033Y-48731584D01*
X101423668Y-48791244D01*
X101360821Y-48821773D01*
X101291445Y-48813478D01*
X101237567Y-48768993D01*
X101220484Y-48731586D01*
X101166739Y-48531004D01*
X101070568Y-48324766D01*
X100940047Y-48138361D01*
X100940045Y-48138358D01*
X100779141Y-47977454D01*
X100636888Y-47877849D01*
X100592734Y-47846932D01*
X100534132Y-47819605D01*
X100481694Y-47773433D01*
X100462543Y-47706239D01*
X100482759Y-47639358D01*
X100534135Y-47594841D01*
X100592482Y-47567633D01*
X100665472Y-47516525D01*
X99984400Y-46835453D01*
X100065148Y-46822665D01*
X100178045Y-46765141D01*
X100267641Y-46675545D01*
X100325165Y-46562648D01*
X100337953Y-46481900D01*
X101019025Y-47162972D01*
G37*
%TD.AperFunction*%
%TA.AperFunction,Conductor*%
G36*
X103946334Y-47495281D02*
G01*
X104002267Y-47537153D01*
X104026684Y-47602617D01*
X104027000Y-47611463D01*
X104027000Y-48155765D01*
X104007315Y-48222804D01*
X103954511Y-48268559D01*
X103885353Y-48278503D01*
X103829356Y-48252930D01*
X103819025Y-48252026D01*
X103137953Y-48933098D01*
X103125165Y-48852352D01*
X103067641Y-48739455D01*
X102978045Y-48649859D01*
X102865148Y-48592335D01*
X102784400Y-48579546D01*
X103465472Y-47898474D01*
X103463884Y-47880330D01*
X103451181Y-47864438D01*
X103443987Y-47794940D01*
X103475509Y-47732584D01*
X103526924Y-47699732D01*
X103609564Y-47672349D01*
X103758806Y-47580295D01*
X103815319Y-47523782D01*
X103876642Y-47490297D01*
X103946334Y-47495281D01*
G37*
%TD.AperFunction*%
%TA.AperFunction,Conductor*%
G36*
X125141519Y-42565185D02*
G01*
X125187274Y-42617989D01*
X125197218Y-42687147D01*
X125168193Y-42750703D01*
X125162161Y-42757181D01*
X124065531Y-43853810D01*
X124004208Y-43887295D01*
X123955070Y-43888019D01*
X123947968Y-43886691D01*
X123936243Y-43884500D01*
X123713757Y-43884500D01*
X123495060Y-43925382D01*
X123363864Y-43976207D01*
X123287601Y-44005752D01*
X123287595Y-44005754D01*
X123098439Y-44122874D01*
X123098437Y-44122876D01*
X122934020Y-44272761D01*
X122799943Y-44450308D01*
X122799938Y-44450316D01*
X122700775Y-44649461D01*
X122700769Y-44649476D01*
X122639885Y-44863462D01*
X122639884Y-44863464D01*
X122619357Y-45084999D01*
X122619357Y-45085000D01*
X122639884Y-45306535D01*
X122639885Y-45306537D01*
X122700769Y-45520523D01*
X122700775Y-45520538D01*
X122799938Y-45719683D01*
X122799943Y-45719691D01*
X122934020Y-45897238D01*
X123098437Y-46047123D01*
X123098439Y-46047125D01*
X123287595Y-46164245D01*
X123287596Y-46164245D01*
X123287599Y-46164247D01*
X123495060Y-46244618D01*
X123713757Y-46285500D01*
X123713759Y-46285500D01*
X123936241Y-46285500D01*
X123936243Y-46285500D01*
X124154940Y-46244618D01*
X124362401Y-46164247D01*
X124551562Y-46047124D01*
X124715981Y-45897236D01*
X124850058Y-45719689D01*
X124949229Y-45520528D01*
X125010115Y-45306536D01*
X125030643Y-45085000D01*
X125017781Y-44946203D01*
X125031196Y-44877637D01*
X125053568Y-44847087D01*
X125983838Y-43916819D01*
X126045161Y-43883334D01*
X126071519Y-43880500D01*
X129198481Y-43880500D01*
X129265520Y-43900185D01*
X129286162Y-43916819D01*
X130073181Y-44703838D01*
X130106666Y-44765161D01*
X130109500Y-44791519D01*
X130109500Y-45057087D01*
X130089815Y-45124126D01*
X130037011Y-45169881D01*
X130024505Y-45174793D01*
X129940436Y-45202651D01*
X129940427Y-45202655D01*
X129791197Y-45294702D01*
X129791193Y-45294705D01*
X129667205Y-45418693D01*
X129667202Y-45418697D01*
X129575155Y-45567927D01*
X129575150Y-45567938D01*
X129519995Y-45734387D01*
X129509500Y-45837113D01*
X129509500Y-46069020D01*
X129489815Y-46136059D01*
X129437011Y-46181814D01*
X129367853Y-46191758D01*
X129304297Y-46162733D01*
X129266523Y-46103955D01*
X129265725Y-46101113D01*
X129236269Y-45991182D01*
X129236265Y-45991173D01*
X129140133Y-45785016D01*
X129140131Y-45785012D01*
X129089026Y-45712026D01*
X129089025Y-45712026D01*
X128407953Y-46393098D01*
X128395165Y-46312352D01*
X128337641Y-46199455D01*
X128248045Y-46109859D01*
X128135148Y-46052335D01*
X128054400Y-46039546D01*
X128735472Y-45358474D01*
X128735471Y-45358473D01*
X128662483Y-45307366D01*
X128662481Y-45307365D01*
X128456326Y-45211234D01*
X128456317Y-45211230D01*
X128236610Y-45152360D01*
X128236599Y-45152358D01*
X128010002Y-45132534D01*
X128009998Y-45132534D01*
X127783400Y-45152358D01*
X127783389Y-45152360D01*
X127563682Y-45211230D01*
X127563673Y-45211234D01*
X127357513Y-45307368D01*
X127284527Y-45358472D01*
X127284526Y-45358473D01*
X127965600Y-46039546D01*
X127884852Y-46052335D01*
X127771955Y-46109859D01*
X127682359Y-46199455D01*
X127624835Y-46312352D01*
X127612046Y-46393099D01*
X126930973Y-45712026D01*
X126930972Y-45712027D01*
X126879868Y-45785013D01*
X126783734Y-45991173D01*
X126783730Y-45991182D01*
X126724860Y-46210889D01*
X126724858Y-46210900D01*
X126705034Y-46437497D01*
X126705034Y-46437502D01*
X126724858Y-46664099D01*
X126724860Y-46664110D01*
X126783730Y-46883817D01*
X126783734Y-46883826D01*
X126879865Y-47089981D01*
X126879866Y-47089983D01*
X126930973Y-47162971D01*
X126930974Y-47162972D01*
X127612046Y-46481899D01*
X127624835Y-46562648D01*
X127682359Y-46675545D01*
X127771955Y-46765141D01*
X127884852Y-46822665D01*
X127965599Y-46835453D01*
X127284526Y-47516525D01*
X127284526Y-47516526D01*
X127357512Y-47567631D01*
X127357520Y-47567635D01*
X127415865Y-47594842D01*
X127468305Y-47641014D01*
X127487457Y-47708207D01*
X127467242Y-47775089D01*
X127415867Y-47819605D01*
X127383000Y-47834932D01*
X127357264Y-47846933D01*
X127170858Y-47977454D01*
X127009954Y-48138358D01*
X126879432Y-48324765D01*
X126879431Y-48324767D01*
X126783261Y-48531002D01*
X126783258Y-48531011D01*
X126724366Y-48750802D01*
X126724364Y-48750813D01*
X126704532Y-48977498D01*
X126704532Y-48977501D01*
X126724364Y-49204186D01*
X126724366Y-49204197D01*
X126783258Y-49423988D01*
X126783261Y-49423997D01*
X126879431Y-49630232D01*
X126879432Y-49630234D01*
X127009954Y-49816641D01*
X127170858Y-49977545D01*
X127170861Y-49977547D01*
X127357266Y-50108068D01*
X127563504Y-50204239D01*
X127563509Y-50204240D01*
X127563511Y-50204241D01*
X127616415Y-50218416D01*
X127783308Y-50263135D01*
X127940380Y-50276877D01*
X128009998Y-50282968D01*
X128010000Y-50282968D01*
X128010001Y-50282968D01*
X128028304Y-50281366D01*
X128236692Y-50263135D01*
X128236697Y-50263133D01*
X128241881Y-50262680D01*
X128310381Y-50276446D01*
X128340370Y-50298527D01*
X129663399Y-51621556D01*
X129665935Y-51624250D01*
X129707071Y-51670683D01*
X129730225Y-51686665D01*
X129758110Y-51705913D01*
X129761127Y-51708133D01*
X129792726Y-51732889D01*
X129833359Y-51789728D01*
X129836812Y-51859512D01*
X129801989Y-51920085D01*
X129739945Y-51952216D01*
X129716254Y-51954500D01*
X126727229Y-51954500D01*
X126660190Y-51934815D01*
X126639548Y-51918181D01*
X125059568Y-50338201D01*
X125026083Y-50276878D01*
X125023778Y-50239078D01*
X125023990Y-50236797D01*
X125030643Y-50165000D01*
X125025367Y-50108067D01*
X125010115Y-49943464D01*
X125010114Y-49943462D01*
X124974030Y-49816641D01*
X124949229Y-49729472D01*
X124943265Y-49717494D01*
X124850061Y-49530316D01*
X124850056Y-49530308D01*
X124715979Y-49352761D01*
X124551562Y-49202876D01*
X124551560Y-49202874D01*
X124362404Y-49085754D01*
X124362398Y-49085752D01*
X124154940Y-49005382D01*
X123936243Y-48964500D01*
X123713757Y-48964500D01*
X123495060Y-49005382D01*
X123397469Y-49043189D01*
X123287601Y-49085752D01*
X123287595Y-49085754D01*
X123098439Y-49202874D01*
X123098437Y-49202876D01*
X122934021Y-49352760D01*
X122924606Y-49365229D01*
X122868496Y-49406864D01*
X122825653Y-49414500D01*
X108314347Y-49414500D01*
X108247308Y-49394815D01*
X108215394Y-49365229D01*
X108205978Y-49352760D01*
X108041562Y-49202876D01*
X108041560Y-49202874D01*
X107852404Y-49085754D01*
X107852398Y-49085752D01*
X107644940Y-49005382D01*
X107426243Y-48964500D01*
X107203757Y-48964500D01*
X106985060Y-49005382D01*
X106887469Y-49043189D01*
X106777601Y-49085752D01*
X106777595Y-49085754D01*
X106588439Y-49202874D01*
X106588437Y-49202876D01*
X106424020Y-49352761D01*
X106289943Y-49530308D01*
X106289938Y-49530316D01*
X106190775Y-49729461D01*
X106190769Y-49729476D01*
X106129885Y-49943462D01*
X106129884Y-49943464D01*
X106109357Y-50164999D01*
X106109357Y-50165000D01*
X106129884Y-50386535D01*
X106129885Y-50386537D01*
X106190769Y-50600523D01*
X106190775Y-50600538D01*
X106289938Y-50799683D01*
X106289943Y-50799691D01*
X106369512Y-50905057D01*
X106424019Y-50977236D01*
X106478378Y-51026791D01*
X106514660Y-51086501D01*
X106512901Y-51156348D01*
X106482522Y-51206109D01*
X104315450Y-53373181D01*
X104254127Y-53406666D01*
X104227769Y-53409500D01*
X104028757Y-53409500D01*
X103810060Y-53450382D01*
X103733006Y-53480233D01*
X103602601Y-53530752D01*
X103602595Y-53530754D01*
X103413439Y-53647874D01*
X103413437Y-53647876D01*
X103249020Y-53797761D01*
X103114943Y-53975308D01*
X103114938Y-53975316D01*
X103015775Y-54174461D01*
X103015769Y-54174476D01*
X102954885Y-54388462D01*
X102954884Y-54388464D01*
X102934357Y-54609999D01*
X102934357Y-54610000D01*
X102954884Y-54831535D01*
X102954885Y-54831537D01*
X103015769Y-55045523D01*
X103015775Y-55045538D01*
X103114938Y-55244683D01*
X103114943Y-55244691D01*
X103249020Y-55422238D01*
X103413437Y-55572123D01*
X103413439Y-55572125D01*
X103602595Y-55689245D01*
X103602596Y-55689245D01*
X103602599Y-55689247D01*
X103810060Y-55769618D01*
X104028757Y-55810500D01*
X104028759Y-55810500D01*
X104227770Y-55810500D01*
X104294809Y-55830185D01*
X104315451Y-55846819D01*
X107374267Y-58905634D01*
X107386048Y-58919266D01*
X107400390Y-58938530D01*
X107440420Y-58972119D01*
X107444392Y-58975759D01*
X107450224Y-58981591D01*
X107450227Y-58981594D01*
X107475947Y-59001931D01*
X107534788Y-59051304D01*
X107540818Y-59055270D01*
X107540785Y-59055319D01*
X107547143Y-59059369D01*
X107547175Y-59059319D01*
X107553320Y-59063109D01*
X107553323Y-59063111D01*
X107622936Y-59095572D01*
X107691567Y-59130040D01*
X107691572Y-59130041D01*
X107698361Y-59132513D01*
X107698340Y-59132570D01*
X107705455Y-59135043D01*
X107705475Y-59134986D01*
X107712330Y-59137258D01*
X107787558Y-59152790D01*
X107862279Y-59170500D01*
X107862289Y-59170500D01*
X107869452Y-59171338D01*
X107869444Y-59171397D01*
X107876945Y-59172164D01*
X107876951Y-59172105D01*
X107884140Y-59172734D01*
X107884144Y-59172733D01*
X107884145Y-59172734D01*
X107960918Y-59170500D01*
X108360501Y-59170500D01*
X108427540Y-59190185D01*
X108473295Y-59242989D01*
X108484501Y-59294500D01*
X108484501Y-59315018D01*
X108495000Y-59417796D01*
X108495001Y-59417799D01*
X108525548Y-59509983D01*
X108550186Y-59584334D01*
X108642288Y-59733656D01*
X108766344Y-59857712D01*
X108915666Y-59949814D01*
X109082203Y-60004999D01*
X109184991Y-60015500D01*
X110525008Y-60015499D01*
X110627797Y-60004999D01*
X110794334Y-59949814D01*
X110943656Y-59857712D01*
X111067712Y-59733656D01*
X111159814Y-59584334D01*
X111159817Y-59584322D01*
X111161095Y-59581584D01*
X111162480Y-59580010D01*
X111163605Y-59578187D01*
X111163916Y-59578379D01*
X111207263Y-59529141D01*
X111274455Y-59509983D01*
X111341338Y-59530193D01*
X111363005Y-59548179D01*
X111486603Y-59677139D01*
X111486604Y-59677140D01*
X111674097Y-59815810D01*
X111882338Y-59920803D01*
X112105330Y-59989093D01*
X112105328Y-59989093D01*
X112144999Y-59994173D01*
X112145000Y-59994173D01*
X112145000Y-58960469D01*
X112239674Y-58999685D01*
X112356003Y-59015000D01*
X112433997Y-59015000D01*
X112550326Y-58999685D01*
X112645000Y-58960469D01*
X112645000Y-59992574D01*
X112797618Y-59959683D01*
X112797619Y-59959683D01*
X113014005Y-59872732D01*
X113212592Y-59750458D01*
X113387656Y-59596382D01*
X113387660Y-59596378D01*
X113534157Y-59414945D01*
X113534161Y-59414939D01*
X113647895Y-59211346D01*
X113725585Y-58991461D01*
X113725587Y-58991453D01*
X113764999Y-58761612D01*
X113765000Y-58761603D01*
X113765000Y-58670000D01*
X112935470Y-58670000D01*
X112974685Y-58575326D01*
X112995134Y-58420000D01*
X112974685Y-58264674D01*
X112935470Y-58170000D01*
X113765000Y-58170000D01*
X113765000Y-58136799D01*
X113750177Y-57962636D01*
X113691412Y-57736948D01*
X113595356Y-57524447D01*
X113595351Y-57524439D01*
X113464764Y-57331228D01*
X113303396Y-57162860D01*
X113303395Y-57162859D01*
X113115902Y-57024189D01*
X112907661Y-56919196D01*
X112684675Y-56850907D01*
X112684669Y-56850906D01*
X112645000Y-56845825D01*
X112645000Y-57879530D01*
X112550326Y-57840315D01*
X112433997Y-57825000D01*
X112356003Y-57825000D01*
X112239674Y-57840315D01*
X112145000Y-57879530D01*
X112145000Y-56847424D01*
X112144999Y-56847424D01*
X111992380Y-56880316D01*
X111992379Y-56880316D01*
X111775994Y-56967267D01*
X111577407Y-57089541D01*
X111402343Y-57243617D01*
X111369899Y-57283798D01*
X111312468Y-57323590D01*
X111242640Y-57326015D01*
X111182586Y-57290304D01*
X111161036Y-57258290D01*
X111159816Y-57255674D01*
X111159814Y-57255666D01*
X111067712Y-57106344D01*
X110943656Y-56982288D01*
X110794334Y-56890186D01*
X110627797Y-56835001D01*
X110627795Y-56835000D01*
X110525010Y-56824500D01*
X109184998Y-56824500D01*
X109184981Y-56824501D01*
X109082203Y-56835000D01*
X109082200Y-56835001D01*
X108915668Y-56890185D01*
X108915663Y-56890187D01*
X108766342Y-56982289D01*
X108642289Y-57106342D01*
X108550187Y-57255663D01*
X108550186Y-57255666D01*
X108495001Y-57422203D01*
X108495001Y-57422204D01*
X108495000Y-57422204D01*
X108484500Y-57524983D01*
X108484500Y-57545500D01*
X108464815Y-57612539D01*
X108412011Y-57658294D01*
X108360500Y-57669500D01*
X108312229Y-57669500D01*
X108245190Y-57649815D01*
X108224548Y-57633181D01*
X105374568Y-54783201D01*
X105341083Y-54721878D01*
X105338778Y-54684078D01*
X105345643Y-54610000D01*
X105338778Y-54535920D01*
X105352193Y-54467351D01*
X105374565Y-54436801D01*
X107800642Y-52010724D01*
X107814271Y-51998947D01*
X107833530Y-51984610D01*
X107867101Y-51944601D01*
X107870761Y-51940606D01*
X107876590Y-51934778D01*
X107896941Y-51909039D01*
X107902948Y-51901879D01*
X107946302Y-51850214D01*
X107946306Y-51850205D01*
X107950274Y-51844175D01*
X107950325Y-51844208D01*
X107954372Y-51837856D01*
X107954320Y-51837824D01*
X107958112Y-51831675D01*
X107990575Y-51762058D01*
X108025036Y-51693440D01*
X108025040Y-51693433D01*
X108025042Y-51693421D01*
X108027509Y-51686646D01*
X108027567Y-51686667D01*
X108030043Y-51679546D01*
X108029986Y-51679528D01*
X108032257Y-51672673D01*
X108047792Y-51597434D01*
X108049971Y-51588240D01*
X108065500Y-51522721D01*
X108065500Y-51522710D01*
X108066338Y-51515548D01*
X108066398Y-51515555D01*
X108067164Y-51508055D01*
X108067105Y-51508050D01*
X108067734Y-51500860D01*
X108065500Y-51424083D01*
X108065500Y-51160052D01*
X108085185Y-51093013D01*
X108105957Y-51068418D01*
X108205981Y-50977236D01*
X108215394Y-50964770D01*
X108271504Y-50923136D01*
X108314347Y-50915500D01*
X122825653Y-50915500D01*
X122892692Y-50935185D01*
X122924605Y-50964770D01*
X122934019Y-50977236D01*
X123034039Y-51068416D01*
X123070319Y-51128126D01*
X123074500Y-51160052D01*
X123074500Y-53201012D01*
X123054815Y-53268051D01*
X123002011Y-53313806D01*
X122968499Y-53322644D01*
X122968637Y-53323426D01*
X122963302Y-53324366D01*
X122743511Y-53383258D01*
X122743502Y-53383261D01*
X122537267Y-53479431D01*
X122537265Y-53479432D01*
X122350858Y-53609954D01*
X122189954Y-53770858D01*
X122059432Y-53957265D01*
X122059431Y-53957267D01*
X121963261Y-54163502D01*
X121963258Y-54163511D01*
X121904366Y-54383302D01*
X121904364Y-54383313D01*
X121884532Y-54609998D01*
X121884532Y-54610001D01*
X121904364Y-54836686D01*
X121904366Y-54836697D01*
X121963258Y-55056488D01*
X121963261Y-55056497D01*
X122059431Y-55262732D01*
X122059432Y-55262734D01*
X122189954Y-55449141D01*
X122350858Y-55610045D01*
X122350861Y-55610047D01*
X122537266Y-55740568D01*
X122743504Y-55836739D01*
X122963308Y-55895635D01*
X123125230Y-55909801D01*
X123189998Y-55915468D01*
X123190000Y-55915468D01*
X123190002Y-55915468D01*
X123246673Y-55910509D01*
X123416692Y-55895635D01*
X123636496Y-55836739D01*
X123842734Y-55740568D01*
X124029139Y-55610047D01*
X124190047Y-55449139D01*
X124320568Y-55262734D01*
X124347618Y-55204724D01*
X124393790Y-55152285D01*
X124460983Y-55133133D01*
X124527865Y-55153348D01*
X124572382Y-55204725D01*
X124599429Y-55262728D01*
X124599432Y-55262734D01*
X124729954Y-55449141D01*
X124890858Y-55610045D01*
X124890861Y-55610047D01*
X125077266Y-55740568D01*
X125283504Y-55836739D01*
X125503308Y-55895635D01*
X125665230Y-55909801D01*
X125729998Y-55915468D01*
X125730000Y-55915468D01*
X125730002Y-55915468D01*
X125786673Y-55910509D01*
X125956692Y-55895635D01*
X126176496Y-55836739D01*
X126382734Y-55740568D01*
X126569139Y-55610047D01*
X126730047Y-55449139D01*
X126860568Y-55262734D01*
X126887618Y-55204724D01*
X126933790Y-55152285D01*
X127000983Y-55133133D01*
X127067865Y-55153348D01*
X127112382Y-55204725D01*
X127139429Y-55262728D01*
X127139432Y-55262734D01*
X127269954Y-55449141D01*
X127430858Y-55610045D01*
X127430861Y-55610047D01*
X127617266Y-55740568D01*
X127823504Y-55836739D01*
X128043308Y-55895635D01*
X128205230Y-55909801D01*
X128269998Y-55915468D01*
X128270000Y-55915468D01*
X128270002Y-55915468D01*
X128326673Y-55910509D01*
X128496692Y-55895635D01*
X128716496Y-55836739D01*
X128922734Y-55740568D01*
X129109139Y-55610047D01*
X129270047Y-55449139D01*
X129400568Y-55262734D01*
X129427618Y-55204724D01*
X129473790Y-55152285D01*
X129540983Y-55133133D01*
X129607865Y-55153348D01*
X129652382Y-55204725D01*
X129679429Y-55262728D01*
X129679432Y-55262734D01*
X129809954Y-55449141D01*
X129970858Y-55610045D01*
X129970861Y-55610047D01*
X130157266Y-55740568D01*
X130363504Y-55836739D01*
X130583308Y-55895635D01*
X130745230Y-55909801D01*
X130809998Y-55915468D01*
X130810000Y-55915468D01*
X130810002Y-55915468D01*
X130866673Y-55910509D01*
X131036692Y-55895635D01*
X131256496Y-55836739D01*
X131462734Y-55740568D01*
X131649139Y-55610047D01*
X131810047Y-55449139D01*
X131940568Y-55262734D01*
X131967618Y-55204724D01*
X132013790Y-55152285D01*
X132080983Y-55133133D01*
X132147865Y-55153348D01*
X132192382Y-55204725D01*
X132219429Y-55262728D01*
X132219432Y-55262734D01*
X132349954Y-55449141D01*
X132510858Y-55610045D01*
X132510861Y-55610047D01*
X132697266Y-55740568D01*
X132903504Y-55836739D01*
X133123308Y-55895635D01*
X133285230Y-55909801D01*
X133349998Y-55915468D01*
X133350000Y-55915468D01*
X133350002Y-55915468D01*
X133406673Y-55910509D01*
X133576692Y-55895635D01*
X133796496Y-55836739D01*
X134002734Y-55740568D01*
X134189139Y-55610047D01*
X134350047Y-55449139D01*
X134480568Y-55262734D01*
X134507618Y-55204724D01*
X134553790Y-55152285D01*
X134620983Y-55133133D01*
X134687865Y-55153348D01*
X134732382Y-55204725D01*
X134759429Y-55262728D01*
X134759432Y-55262734D01*
X134889954Y-55449141D01*
X135050858Y-55610045D01*
X135050861Y-55610047D01*
X135237266Y-55740568D01*
X135443504Y-55836739D01*
X135663308Y-55895635D01*
X135825230Y-55909801D01*
X135889998Y-55915468D01*
X135890000Y-55915468D01*
X135890002Y-55915468D01*
X135946673Y-55910509D01*
X136116692Y-55895635D01*
X136336496Y-55836739D01*
X136542734Y-55740568D01*
X136729139Y-55610047D01*
X136890047Y-55449139D01*
X137020568Y-55262734D01*
X137047618Y-55204724D01*
X137093790Y-55152285D01*
X137160983Y-55133133D01*
X137227865Y-55153348D01*
X137272382Y-55204725D01*
X137299429Y-55262728D01*
X137299432Y-55262734D01*
X137429954Y-55449141D01*
X137590858Y-55610045D01*
X137590861Y-55610047D01*
X137777266Y-55740568D01*
X137983504Y-55836739D01*
X138203308Y-55895635D01*
X138365230Y-55909801D01*
X138429998Y-55915468D01*
X138430000Y-55915468D01*
X138430002Y-55915468D01*
X138486673Y-55910509D01*
X138656692Y-55895635D01*
X138876496Y-55836739D01*
X139082734Y-55740568D01*
X139269139Y-55610047D01*
X139430047Y-55449139D01*
X139560568Y-55262734D01*
X139656739Y-55056496D01*
X139715635Y-54836692D01*
X139735468Y-54610000D01*
X139715635Y-54383308D01*
X139656739Y-54163504D01*
X139560568Y-53957266D01*
X139430047Y-53770861D01*
X139430045Y-53770858D01*
X139269141Y-53609954D01*
X139082734Y-53479432D01*
X139082732Y-53479431D01*
X138876497Y-53383261D01*
X138876488Y-53383258D01*
X138656697Y-53324366D01*
X138656693Y-53324365D01*
X138656692Y-53324365D01*
X138656691Y-53324364D01*
X138656686Y-53324364D01*
X138430002Y-53304532D01*
X138429998Y-53304532D01*
X138203313Y-53324364D01*
X138203302Y-53324366D01*
X137983511Y-53383258D01*
X137983502Y-53383261D01*
X137777267Y-53479431D01*
X137777265Y-53479432D01*
X137590858Y-53609954D01*
X137429954Y-53770858D01*
X137299432Y-53957265D01*
X137299431Y-53957267D01*
X137291019Y-53975308D01*
X137276720Y-54005973D01*
X137272382Y-54015275D01*
X137226209Y-54067714D01*
X137159016Y-54086866D01*
X137092135Y-54066650D01*
X137047618Y-54015275D01*
X137020568Y-53957266D01*
X136890047Y-53770861D01*
X136890045Y-53770858D01*
X136729141Y-53609954D01*
X136542734Y-53479432D01*
X136542732Y-53479431D01*
X136336497Y-53383261D01*
X136336488Y-53383258D01*
X136116697Y-53324366D01*
X136116693Y-53324365D01*
X136116692Y-53324365D01*
X136116691Y-53324364D01*
X136116686Y-53324364D01*
X135890002Y-53304532D01*
X135889998Y-53304532D01*
X135663313Y-53324364D01*
X135663302Y-53324366D01*
X135443511Y-53383258D01*
X135443502Y-53383261D01*
X135237267Y-53479431D01*
X135237265Y-53479432D01*
X135050858Y-53609954D01*
X134889954Y-53770858D01*
X134759432Y-53957265D01*
X134759431Y-53957267D01*
X134751019Y-53975308D01*
X134736720Y-54005973D01*
X134732382Y-54015275D01*
X134686209Y-54067714D01*
X134619016Y-54086866D01*
X134552135Y-54066650D01*
X134507618Y-54015275D01*
X134480568Y-53957266D01*
X134350047Y-53770861D01*
X134350045Y-53770858D01*
X134194615Y-53615428D01*
X134161130Y-53554105D01*
X134166114Y-53484413D01*
X134207986Y-53428480D01*
X134243292Y-53410041D01*
X134253477Y-53406666D01*
X134304334Y-53389814D01*
X134304343Y-53389808D01*
X134310882Y-53386760D01*
X134310908Y-53386816D01*
X134317690Y-53383532D01*
X134317663Y-53383478D01*
X134324106Y-53380240D01*
X134324117Y-53380237D01*
X134388283Y-53338034D01*
X134453656Y-53297712D01*
X134453662Y-53297705D01*
X134459325Y-53293229D01*
X134459362Y-53293277D01*
X134465204Y-53288518D01*
X134465164Y-53288471D01*
X134470686Y-53283836D01*
X134470696Y-53283830D01*
X134494261Y-53258852D01*
X134523386Y-53227982D01*
X135475137Y-52276229D01*
X135740638Y-52010727D01*
X135754267Y-51998950D01*
X135754271Y-51998947D01*
X135773530Y-51984610D01*
X135773532Y-51984606D01*
X135773534Y-51984606D01*
X135800711Y-51952216D01*
X135807113Y-51944585D01*
X135810767Y-51940599D01*
X135816589Y-51934778D01*
X135836928Y-51909054D01*
X135859620Y-51882011D01*
X135886302Y-51850214D01*
X135886304Y-51850209D01*
X135890272Y-51844179D01*
X135890323Y-51844212D01*
X135894369Y-51837860D01*
X135894317Y-51837828D01*
X135898109Y-51831679D01*
X135898111Y-51831677D01*
X135930569Y-51762069D01*
X135965040Y-51693433D01*
X135965043Y-51693417D01*
X135967510Y-51686644D01*
X135967568Y-51686665D01*
X135970043Y-51679546D01*
X135969985Y-51679527D01*
X135972256Y-51672672D01*
X135982251Y-51624267D01*
X135987784Y-51597467D01*
X136005500Y-51522721D01*
X136005500Y-51522720D01*
X136006339Y-51515548D01*
X136006397Y-51515554D01*
X136007164Y-51508056D01*
X136007104Y-51508051D01*
X136007733Y-51500860D01*
X136005500Y-51424103D01*
X136005500Y-51160052D01*
X136025185Y-51093013D01*
X136045957Y-51068418D01*
X136145981Y-50977236D01*
X136155394Y-50964770D01*
X136211504Y-50923136D01*
X136254347Y-50915500D01*
X150765653Y-50915500D01*
X150832692Y-50935185D01*
X150864606Y-50964771D01*
X150874021Y-50977239D01*
X151038437Y-51127123D01*
X151038439Y-51127125D01*
X151227595Y-51244245D01*
X151227596Y-51244245D01*
X151227599Y-51244247D01*
X151435060Y-51324618D01*
X151653757Y-51365500D01*
X151653759Y-51365500D01*
X151852770Y-51365500D01*
X151919809Y-51385185D01*
X151940451Y-51401819D01*
X154107521Y-53568889D01*
X154141006Y-53630212D01*
X154136022Y-53699904D01*
X154103380Y-53748206D01*
X154049021Y-53797762D01*
X153914943Y-53975308D01*
X153914938Y-53975316D01*
X153815775Y-54174461D01*
X153815769Y-54174476D01*
X153754885Y-54388462D01*
X153754884Y-54388464D01*
X153734357Y-54609999D01*
X153734357Y-54610000D01*
X153754884Y-54831535D01*
X153754885Y-54831537D01*
X153815769Y-55045523D01*
X153815775Y-55045538D01*
X153914938Y-55244683D01*
X153914943Y-55244691D01*
X154049020Y-55422238D01*
X154213437Y-55572123D01*
X154213439Y-55572125D01*
X154402595Y-55689245D01*
X154402596Y-55689245D01*
X154402599Y-55689247D01*
X154610060Y-55769618D01*
X154828757Y-55810500D01*
X154828759Y-55810500D01*
X155051241Y-55810500D01*
X155051243Y-55810500D01*
X155269940Y-55769618D01*
X155477401Y-55689247D01*
X155666562Y-55572124D01*
X155830981Y-55422236D01*
X155965058Y-55244689D01*
X156064229Y-55045528D01*
X156125115Y-54831536D01*
X156145643Y-54610000D01*
X156125115Y-54388464D01*
X156064229Y-54174472D01*
X156064224Y-54174461D01*
X155965061Y-53975316D01*
X155965056Y-53975308D01*
X155899916Y-53889049D01*
X155830981Y-53797764D01*
X155830978Y-53797761D01*
X155830974Y-53797757D01*
X155730962Y-53706584D01*
X155694680Y-53646873D01*
X155690500Y-53614947D01*
X155690500Y-53403705D01*
X155691809Y-53385735D01*
X155693648Y-53373181D01*
X155695289Y-53361977D01*
X155693194Y-53338034D01*
X155690736Y-53309934D01*
X155690500Y-53304528D01*
X155690500Y-53296297D01*
X155690500Y-53296291D01*
X155686693Y-53263724D01*
X155679999Y-53187203D01*
X155679999Y-53187201D01*
X155678539Y-53180129D01*
X155678597Y-53180116D01*
X155676965Y-53172757D01*
X155676906Y-53172772D01*
X155675241Y-53165751D01*
X155675241Y-53165745D01*
X155648974Y-53093576D01*
X155624814Y-53020666D01*
X155624813Y-53020665D01*
X155624813Y-53020663D01*
X155621764Y-53014124D01*
X155621817Y-53014099D01*
X155618531Y-53007311D01*
X155618479Y-53007338D01*
X155615236Y-53000882D01*
X155573034Y-52936716D01*
X155532714Y-52871347D01*
X155528234Y-52865681D01*
X155528280Y-52865643D01*
X155523519Y-52859799D01*
X155523474Y-52859838D01*
X155518834Y-52854308D01*
X155462982Y-52801613D01*
X152999568Y-50338200D01*
X152966083Y-50276877D01*
X152963778Y-50239077D01*
X152963990Y-50236797D01*
X152970643Y-50165000D01*
X152965367Y-50108067D01*
X152950115Y-49943464D01*
X152950114Y-49943462D01*
X152914030Y-49816641D01*
X152889229Y-49729472D01*
X152883265Y-49717494D01*
X152790061Y-49530316D01*
X152790056Y-49530308D01*
X152655979Y-49352761D01*
X152491562Y-49202876D01*
X152491560Y-49202874D01*
X152302404Y-49085754D01*
X152302398Y-49085752D01*
X152094940Y-49005382D01*
X151876243Y-48964500D01*
X151653757Y-48964500D01*
X151435060Y-49005382D01*
X151337469Y-49043189D01*
X151227601Y-49085752D01*
X151227595Y-49085754D01*
X151038439Y-49202874D01*
X151038437Y-49202876D01*
X150874021Y-49352760D01*
X150864606Y-49365229D01*
X150808496Y-49406864D01*
X150765653Y-49414500D01*
X136254347Y-49414500D01*
X136187308Y-49394815D01*
X136155394Y-49365229D01*
X136145978Y-49352760D01*
X135981562Y-49202876D01*
X135981560Y-49202874D01*
X135792404Y-49085754D01*
X135792398Y-49085752D01*
X135584940Y-49005382D01*
X135366243Y-48964500D01*
X135205518Y-48964500D01*
X135138479Y-48944815D01*
X135092724Y-48892011D01*
X135082780Y-48822853D01*
X135111805Y-48759297D01*
X135117837Y-48752819D01*
X135339654Y-48531002D01*
X135734056Y-48136599D01*
X135736748Y-48134065D01*
X135783183Y-48092929D01*
X135818436Y-48041855D01*
X135820613Y-48038896D01*
X135858878Y-47990057D01*
X135863037Y-47980815D01*
X135874062Y-47961268D01*
X135879818Y-47952930D01*
X135901820Y-47894912D01*
X135903235Y-47891495D01*
X135928694Y-47834932D01*
X135930520Y-47824965D01*
X135936548Y-47803340D01*
X135940140Y-47793872D01*
X135946924Y-47737999D01*
X135947615Y-47732309D01*
X135948179Y-47728605D01*
X135952456Y-47705258D01*
X135959357Y-47667606D01*
X135957648Y-47639358D01*
X135955613Y-47605707D01*
X135955500Y-47601963D01*
X135955500Y-46125634D01*
X135975185Y-46058595D01*
X135995962Y-46033997D01*
X136145979Y-45897238D01*
X136164266Y-45873023D01*
X136280058Y-45719689D01*
X136379229Y-45520528D01*
X136440115Y-45306536D01*
X136460643Y-45085000D01*
X136440115Y-44863464D01*
X136379229Y-44649472D01*
X136374264Y-44639500D01*
X136280061Y-44450316D01*
X136280056Y-44450308D01*
X136145979Y-44272761D01*
X135981562Y-44122876D01*
X135981560Y-44122874D01*
X135792404Y-44005754D01*
X135792398Y-44005752D01*
X135584940Y-43925382D01*
X135366243Y-43884500D01*
X135143757Y-43884500D01*
X134925060Y-43925382D01*
X134793864Y-43976207D01*
X134717601Y-44005752D01*
X134717595Y-44005754D01*
X134528439Y-44122874D01*
X134528437Y-44122876D01*
X134364020Y-44272761D01*
X134229943Y-44450308D01*
X134229938Y-44450316D01*
X134130775Y-44649461D01*
X134130769Y-44649476D01*
X134069885Y-44863462D01*
X134069884Y-44863464D01*
X134049357Y-45084999D01*
X134049357Y-45085000D01*
X134069884Y-45306535D01*
X134069885Y-45306537D01*
X134130769Y-45520523D01*
X134130775Y-45520538D01*
X134229938Y-45719683D01*
X134229943Y-45719691D01*
X134364020Y-45897238D01*
X134514038Y-46033997D01*
X134550320Y-46093708D01*
X134554500Y-46125634D01*
X134554500Y-47283481D01*
X134534815Y-47350520D01*
X134518181Y-47371162D01*
X132158477Y-49730865D01*
X132097154Y-49764350D01*
X132027462Y-49759366D01*
X131971529Y-49717494D01*
X131947112Y-49652030D01*
X131958414Y-49590779D01*
X132036266Y-49423826D01*
X132036269Y-49423817D01*
X132095139Y-49204110D01*
X132095141Y-49204099D01*
X132114966Y-48977502D01*
X132114966Y-48977497D01*
X132095141Y-48750900D01*
X132095139Y-48750889D01*
X132036269Y-48531182D01*
X132036265Y-48531173D01*
X131940133Y-48325016D01*
X131940131Y-48325012D01*
X131889025Y-48252026D01*
X131207953Y-48933098D01*
X131195165Y-48852352D01*
X131137641Y-48739455D01*
X131048045Y-48649859D01*
X130935148Y-48592335D01*
X130854400Y-48579546D01*
X131535472Y-47898474D01*
X131533884Y-47880330D01*
X131521181Y-47864438D01*
X131513987Y-47794940D01*
X131545509Y-47732584D01*
X131596924Y-47699732D01*
X131679564Y-47672349D01*
X131828806Y-47580295D01*
X131952795Y-47456306D01*
X132044849Y-47307064D01*
X132100004Y-47140616D01*
X132110500Y-47037879D01*
X132110499Y-45837122D01*
X132100004Y-45734384D01*
X132044849Y-45567936D01*
X132044845Y-45567930D01*
X132044844Y-45567927D01*
X131952797Y-45418697D01*
X131952794Y-45418693D01*
X131828806Y-45294705D01*
X131828802Y-45294702D01*
X131679572Y-45202655D01*
X131679566Y-45202652D01*
X131679564Y-45202651D01*
X131636180Y-45188275D01*
X131595495Y-45174793D01*
X131538050Y-45135019D01*
X131511228Y-45070503D01*
X131510500Y-45057087D01*
X131510500Y-44473035D01*
X131510613Y-44469290D01*
X131514357Y-44407394D01*
X131503177Y-44346386D01*
X131502615Y-44342689D01*
X131495140Y-44281129D01*
X131495139Y-44281125D01*
X131491546Y-44271651D01*
X131485519Y-44250029D01*
X131483694Y-44240070D01*
X131483694Y-44240068D01*
X131458241Y-44183514D01*
X131456807Y-44180052D01*
X131434818Y-44122070D01*
X131429058Y-44113726D01*
X131418035Y-44094180D01*
X131413878Y-44084943D01*
X131375617Y-44036107D01*
X131373417Y-44033117D01*
X131354529Y-44005752D01*
X131338185Y-43982073D01*
X131338183Y-43982071D01*
X131291750Y-43940935D01*
X131289056Y-43938399D01*
X130107838Y-42757181D01*
X130074353Y-42695858D01*
X130079337Y-42626166D01*
X130121209Y-42570233D01*
X130186673Y-42545816D01*
X130195519Y-42545500D01*
X161800500Y-42545500D01*
X161867539Y-42565185D01*
X161913294Y-42617989D01*
X161924500Y-42669500D01*
X161924500Y-69090500D01*
X161904815Y-69157539D01*
X161852011Y-69203294D01*
X161800500Y-69214500D01*
X96644500Y-69214500D01*
X96577461Y-69194815D01*
X96531706Y-69142011D01*
X96520500Y-69090500D01*
X96520500Y-65405000D01*
X96824696Y-65405000D01*
X96843898Y-65771405D01*
X96846277Y-65786423D01*
X96901295Y-66133794D01*
X96978729Y-66422782D01*
X96996260Y-66488206D01*
X97127746Y-66830739D01*
X97294320Y-67157656D01*
X97494147Y-67465364D01*
X97695078Y-67713493D01*
X97725051Y-67750506D01*
X97984494Y-68009949D01*
X98003697Y-68025499D01*
X98269635Y-68240852D01*
X98577343Y-68440679D01*
X98577348Y-68440682D01*
X98904264Y-68607255D01*
X99246801Y-68738742D01*
X99601206Y-68833705D01*
X99963596Y-68891102D01*
X100309734Y-68909241D01*
X100329999Y-68910304D01*
X100330000Y-68910304D01*
X100330001Y-68910304D01*
X100349203Y-68909297D01*
X100696404Y-68891102D01*
X101058794Y-68833705D01*
X101413199Y-68738742D01*
X101755736Y-68607255D01*
X102082652Y-68440682D01*
X102390366Y-68240851D01*
X102675506Y-68009949D01*
X102934949Y-67750506D01*
X103165851Y-67465366D01*
X103365682Y-67157652D01*
X103532255Y-66830736D01*
X103663742Y-66488199D01*
X103758705Y-66133794D01*
X103816102Y-65771404D01*
X103835304Y-65405000D01*
X103816102Y-65038596D01*
X103758705Y-64676206D01*
X103663742Y-64321801D01*
X103532255Y-63979264D01*
X103526479Y-63967929D01*
X103455146Y-63827930D01*
X103365682Y-63652348D01*
X103335234Y-63605462D01*
X103165852Y-63344635D01*
X102949831Y-63077872D01*
X102949829Y-63077870D01*
X121889500Y-63077870D01*
X121889501Y-63077876D01*
X121895908Y-63137483D01*
X121946202Y-63272328D01*
X121946206Y-63272335D01*
X122032452Y-63387544D01*
X122032455Y-63387547D01*
X122147664Y-63473793D01*
X122147671Y-63473797D01*
X122282517Y-63524091D01*
X122282516Y-63524091D01*
X122289444Y-63524835D01*
X122342127Y-63530500D01*
X124037872Y-63530499D01*
X124097483Y-63524091D01*
X124232331Y-63473796D01*
X124347546Y-63387546D01*
X124433796Y-63272331D01*
X124484091Y-63137483D01*
X124487862Y-63102401D01*
X124514599Y-63037855D01*
X124571990Y-62998006D01*
X124641816Y-62995511D01*
X124701905Y-63031163D01*
X124712725Y-63044535D01*
X124723202Y-63059498D01*
X124729956Y-63069143D01*
X124890857Y-63230044D01*
X124890860Y-63230046D01*
X124890861Y-63230047D01*
X124976623Y-63290097D01*
X125020248Y-63344673D01*
X125029500Y-63391672D01*
X125029500Y-64746951D01*
X125029387Y-64750696D01*
X125025642Y-64812603D01*
X125025642Y-64812605D01*
X125036821Y-64873612D01*
X125037384Y-64877313D01*
X125044859Y-64938870D01*
X125044860Y-64938874D01*
X125048451Y-64948343D01*
X125054474Y-64969946D01*
X125056304Y-64979930D01*
X125081759Y-65036490D01*
X125083189Y-65039941D01*
X125105182Y-65097930D01*
X125105183Y-65097931D01*
X125110936Y-65106266D01*
X125121961Y-65125813D01*
X125126120Y-65135055D01*
X125126124Y-65135060D01*
X125164371Y-65183878D01*
X125166591Y-65186896D01*
X125201812Y-65237924D01*
X125201816Y-65237928D01*
X125201817Y-65237929D01*
X125248250Y-65279064D01*
X125250941Y-65281598D01*
X125755766Y-65786423D01*
X126248181Y-66278838D01*
X126281666Y-66340161D01*
X126284500Y-66366519D01*
X126284500Y-67572870D01*
X126284501Y-67572876D01*
X126290908Y-67632483D01*
X126341202Y-67767328D01*
X126341206Y-67767335D01*
X126427452Y-67882544D01*
X126427455Y-67882547D01*
X126542664Y-67968793D01*
X126542671Y-67968797D01*
X126677517Y-68019091D01*
X126677516Y-68019091D01*
X126684444Y-68019835D01*
X126737127Y-68025500D01*
X128532872Y-68025499D01*
X128592483Y-68019091D01*
X128727331Y-67968796D01*
X128842546Y-67882546D01*
X128928796Y-67767331D01*
X128977810Y-67635916D01*
X129019681Y-67579984D01*
X129085145Y-67555566D01*
X129153418Y-67570417D01*
X129181673Y-67591569D01*
X129303599Y-67713495D01*
X129400384Y-67781265D01*
X129497165Y-67849032D01*
X129497167Y-67849033D01*
X129497170Y-67849035D01*
X129711337Y-67948903D01*
X129939592Y-68010063D01*
X130116034Y-68025500D01*
X130174999Y-68030659D01*
X130175000Y-68030659D01*
X130175001Y-68030659D01*
X130233966Y-68025500D01*
X130410408Y-68010063D01*
X130638663Y-67948903D01*
X130852830Y-67849035D01*
X131046401Y-67713495D01*
X131213495Y-67546401D01*
X131343425Y-67360842D01*
X131398002Y-67317217D01*
X131467500Y-67310023D01*
X131529855Y-67341546D01*
X131546575Y-67360842D01*
X131676500Y-67546395D01*
X131676505Y-67546401D01*
X131843599Y-67713495D01*
X131940384Y-67781265D01*
X132037165Y-67849032D01*
X132037167Y-67849033D01*
X132037170Y-67849035D01*
X132251337Y-67948903D01*
X132479592Y-68010063D01*
X132656034Y-68025500D01*
X132714999Y-68030659D01*
X132715000Y-68030659D01*
X132715001Y-68030659D01*
X132773966Y-68025500D01*
X132950408Y-68010063D01*
X133178663Y-67948903D01*
X133392830Y-67849035D01*
X133586401Y-67713495D01*
X133753495Y-67546401D01*
X133889035Y-67352830D01*
X133988903Y-67138663D01*
X134050063Y-66910408D01*
X134070659Y-66675000D01*
X134050063Y-66439592D01*
X134045558Y-66422779D01*
X134047219Y-66352932D01*
X134077649Y-66303006D01*
X134975655Y-65405000D01*
X153974696Y-65405000D01*
X153993898Y-65771405D01*
X153996277Y-65786423D01*
X154051295Y-66133794D01*
X154128729Y-66422782D01*
X154146260Y-66488206D01*
X154277746Y-66830739D01*
X154444320Y-67157656D01*
X154644147Y-67465364D01*
X154845078Y-67713493D01*
X154875051Y-67750506D01*
X155134494Y-68009949D01*
X155153697Y-68025499D01*
X155419635Y-68240852D01*
X155727343Y-68440679D01*
X155727348Y-68440682D01*
X156054264Y-68607255D01*
X156396801Y-68738742D01*
X156751206Y-68833705D01*
X157113596Y-68891102D01*
X157459734Y-68909241D01*
X157479999Y-68910304D01*
X157480000Y-68910304D01*
X157480001Y-68910304D01*
X157499203Y-68909297D01*
X157846404Y-68891102D01*
X158208794Y-68833705D01*
X158563199Y-68738742D01*
X158905736Y-68607255D01*
X159232652Y-68440682D01*
X159540366Y-68240851D01*
X159825506Y-68009949D01*
X160084949Y-67750506D01*
X160315851Y-67465366D01*
X160515682Y-67157652D01*
X160682255Y-66830736D01*
X160813742Y-66488199D01*
X160908705Y-66133794D01*
X160966102Y-65771404D01*
X160985304Y-65405000D01*
X160966102Y-65038596D01*
X160908705Y-64676206D01*
X160813742Y-64321801D01*
X160682255Y-63979264D01*
X160676479Y-63967929D01*
X160605146Y-63827930D01*
X160515682Y-63652348D01*
X160485234Y-63605462D01*
X160315852Y-63344635D01*
X160099831Y-63077872D01*
X160084949Y-63059494D01*
X159825506Y-62800051D01*
X159766837Y-62752542D01*
X159540364Y-62569147D01*
X159232656Y-62369320D01*
X158905739Y-62202746D01*
X158563206Y-62071260D01*
X158435201Y-62036961D01*
X158208794Y-61976295D01*
X158208790Y-61976294D01*
X158208789Y-61976294D01*
X157846405Y-61918898D01*
X157480001Y-61899696D01*
X157479999Y-61899696D01*
X157113594Y-61918898D01*
X156751211Y-61976294D01*
X156751209Y-61976294D01*
X156396793Y-62071260D01*
X156054260Y-62202746D01*
X155727343Y-62369320D01*
X155419635Y-62569147D01*
X155134498Y-62800047D01*
X155134490Y-62800054D01*
X154875054Y-63059490D01*
X154875047Y-63059498D01*
X154644147Y-63344635D01*
X154444320Y-63652343D01*
X154277746Y-63979260D01*
X154146260Y-64321793D01*
X154051294Y-64676209D01*
X154051294Y-64676211D01*
X153993898Y-65038594D01*
X153974696Y-65404999D01*
X153974696Y-65405000D01*
X134975655Y-65405000D01*
X136369056Y-64011599D01*
X136371748Y-64009065D01*
X136418183Y-63967929D01*
X136453421Y-63916876D01*
X136455613Y-63913896D01*
X136493878Y-63865057D01*
X136498034Y-63855821D01*
X136509062Y-63836266D01*
X136514818Y-63827930D01*
X136536809Y-63769942D01*
X136538229Y-63766512D01*
X136563695Y-63709932D01*
X136565522Y-63699961D01*
X136571552Y-63678331D01*
X136575140Y-63668871D01*
X136575140Y-63668868D01*
X136582613Y-63607325D01*
X136583177Y-63603621D01*
X136587447Y-63580314D01*
X136594358Y-63542606D01*
X136590613Y-63480696D01*
X136590500Y-63476951D01*
X136590500Y-63391672D01*
X136610185Y-63324633D01*
X136643375Y-63290098D01*
X136729139Y-63230047D01*
X136890047Y-63069139D01*
X137020568Y-62882734D01*
X137047895Y-62824129D01*
X137094064Y-62771695D01*
X137161257Y-62752542D01*
X137228139Y-62772757D01*
X137272657Y-62824133D01*
X137299865Y-62882482D01*
X137430342Y-63068820D01*
X137591179Y-63229657D01*
X137777517Y-63360134D01*
X137983673Y-63456265D01*
X137983682Y-63456269D01*
X138179999Y-63508872D01*
X138180000Y-63508871D01*
X138180000Y-62545686D01*
X138191955Y-62557641D01*
X138304852Y-62615165D01*
X138398519Y-62630000D01*
X138461481Y-62630000D01*
X138555148Y-62615165D01*
X138668045Y-62557641D01*
X138680000Y-62545686D01*
X138680000Y-63508872D01*
X138876317Y-63456269D01*
X138876326Y-63456265D01*
X139082482Y-63360134D01*
X139268820Y-63229657D01*
X139429657Y-63068820D01*
X139560134Y-62882482D01*
X139656265Y-62676326D01*
X139656269Y-62676317D01*
X139708872Y-62480000D01*
X138745686Y-62480000D01*
X138757641Y-62468045D01*
X138815165Y-62355148D01*
X138834986Y-62230000D01*
X138815165Y-62104852D01*
X138757641Y-61991955D01*
X138745686Y-61980000D01*
X139708872Y-61980000D01*
X139708872Y-61979999D01*
X139656269Y-61783682D01*
X139656265Y-61783673D01*
X139560134Y-61577517D01*
X139429657Y-61391179D01*
X139275659Y-61237181D01*
X139242174Y-61175858D01*
X139247158Y-61106166D01*
X139289030Y-61050233D01*
X139354494Y-61025816D01*
X139363340Y-61025500D01*
X154281952Y-61025500D01*
X154285697Y-61025613D01*
X154293042Y-61026057D01*
X154347606Y-61029358D01*
X154385314Y-61022447D01*
X154408621Y-61018177D01*
X154412325Y-61017613D01*
X154430170Y-61015446D01*
X154473872Y-61010140D01*
X154483335Y-61006550D01*
X154504961Y-61000522D01*
X154505893Y-61000351D01*
X154514932Y-60998695D01*
X154571512Y-60973229D01*
X154574942Y-60971809D01*
X154632930Y-60949818D01*
X154641266Y-60944062D01*
X154660821Y-60933034D01*
X154670057Y-60928878D01*
X154718896Y-60890613D01*
X154721876Y-60888421D01*
X154772929Y-60853183D01*
X154814065Y-60806748D01*
X154816599Y-60804056D01*
X159779469Y-55841186D01*
X159840790Y-55807703D01*
X159889932Y-55806981D01*
X159908757Y-55810500D01*
X159908759Y-55810500D01*
X160131241Y-55810500D01*
X160131243Y-55810500D01*
X160349940Y-55769618D01*
X160557401Y-55689247D01*
X160746562Y-55572124D01*
X160910981Y-55422236D01*
X161045058Y-55244689D01*
X161144229Y-55045528D01*
X161205115Y-54831536D01*
X161225643Y-54610000D01*
X161205115Y-54388464D01*
X161144229Y-54174472D01*
X161144224Y-54174461D01*
X161045061Y-53975316D01*
X161045056Y-53975308D01*
X160910979Y-53797761D01*
X160746562Y-53647876D01*
X160746560Y-53647874D01*
X160557404Y-53530754D01*
X160557398Y-53530752D01*
X160550266Y-53527989D01*
X160349940Y-53450382D01*
X160131243Y-53409500D01*
X159908757Y-53409500D01*
X159908754Y-53409500D01*
X159889926Y-53413019D01*
X159820412Y-53405984D01*
X159779467Y-53378810D01*
X156686819Y-50286162D01*
X156653334Y-50224839D01*
X156650500Y-50198481D01*
X156650500Y-50139172D01*
X156670185Y-50072133D01*
X156703375Y-50037598D01*
X156789139Y-49977547D01*
X156950047Y-49816639D01*
X157080568Y-49630234D01*
X157176739Y-49423996D01*
X157230484Y-49223413D01*
X157266847Y-49163756D01*
X157329694Y-49133226D01*
X157399070Y-49141520D01*
X157452948Y-49186005D01*
X157470033Y-49223415D01*
X157523731Y-49423820D01*
X157523734Y-49423826D01*
X157619865Y-49629981D01*
X157619866Y-49629983D01*
X157670973Y-49702971D01*
X157670974Y-49702972D01*
X158352046Y-49021899D01*
X158364835Y-49102648D01*
X158422359Y-49215545D01*
X158511955Y-49305141D01*
X158624852Y-49362665D01*
X158705599Y-49375453D01*
X158024526Y-50056525D01*
X158024526Y-50056526D01*
X158097512Y-50107631D01*
X158097516Y-50107633D01*
X158303673Y-50203765D01*
X158303682Y-50203769D01*
X158523389Y-50262639D01*
X158523400Y-50262641D01*
X158749998Y-50282466D01*
X158750002Y-50282466D01*
X158976599Y-50262641D01*
X158976610Y-50262639D01*
X159196317Y-50203769D01*
X159196331Y-50203764D01*
X159402478Y-50107636D01*
X159475472Y-50056525D01*
X158794401Y-49375453D01*
X158875148Y-49362665D01*
X158988045Y-49305141D01*
X159077641Y-49215545D01*
X159135165Y-49102648D01*
X159147953Y-49021900D01*
X159829025Y-49702972D01*
X159880136Y-49629978D01*
X159976264Y-49423831D01*
X159976269Y-49423817D01*
X160035139Y-49204110D01*
X160035141Y-49204099D01*
X160054966Y-48977502D01*
X160054966Y-48977497D01*
X160035141Y-48750900D01*
X160035139Y-48750889D01*
X159976269Y-48531182D01*
X159976265Y-48531173D01*
X159880133Y-48325016D01*
X159880131Y-48325012D01*
X159829026Y-48252026D01*
X159829025Y-48252026D01*
X159147953Y-48933098D01*
X159135165Y-48852352D01*
X159077641Y-48739455D01*
X158988045Y-48649859D01*
X158875148Y-48592335D01*
X158794400Y-48579546D01*
X159475472Y-47898474D01*
X159473884Y-47880330D01*
X159461181Y-47864438D01*
X159453987Y-47794940D01*
X159485509Y-47732584D01*
X159536924Y-47699732D01*
X159619564Y-47672349D01*
X159768806Y-47580295D01*
X159892795Y-47456306D01*
X159984849Y-47307064D01*
X160040004Y-47140616D01*
X160050500Y-47037879D01*
X160050499Y-45837122D01*
X160040004Y-45734384D01*
X159984849Y-45567936D01*
X159984845Y-45567930D01*
X159984844Y-45567927D01*
X159892797Y-45418697D01*
X159892794Y-45418693D01*
X159768806Y-45294705D01*
X159768802Y-45294702D01*
X159619572Y-45202655D01*
X159619566Y-45202652D01*
X159619564Y-45202651D01*
X159576180Y-45188275D01*
X159538627Y-45175831D01*
X159481182Y-45136058D01*
X159454360Y-45071541D01*
X159453858Y-45050641D01*
X159454357Y-45042394D01*
X159443177Y-44981386D01*
X159442615Y-44977689D01*
X159435140Y-44916129D01*
X159435139Y-44916125D01*
X159431546Y-44906651D01*
X159425519Y-44885029D01*
X159423694Y-44875068D01*
X159398241Y-44818514D01*
X159396807Y-44815052D01*
X159374818Y-44757071D01*
X159374818Y-44757070D01*
X159369058Y-44748726D01*
X159358035Y-44729180D01*
X159353878Y-44719943D01*
X159315617Y-44671107D01*
X159313417Y-44668117D01*
X159293665Y-44639500D01*
X159278185Y-44617073D01*
X159278183Y-44617071D01*
X159231750Y-44575935D01*
X159229056Y-44573399D01*
X157991598Y-43335941D01*
X157989064Y-43333250D01*
X157947929Y-43286817D01*
X157947928Y-43286816D01*
X157947924Y-43286812D01*
X157896896Y-43251591D01*
X157893887Y-43249377D01*
X157866506Y-43227926D01*
X157845060Y-43211124D01*
X157845055Y-43211120D01*
X157835813Y-43206961D01*
X157816266Y-43195936D01*
X157814657Y-43194826D01*
X157807930Y-43190182D01*
X157749941Y-43168189D01*
X157746490Y-43166759D01*
X157689930Y-43141304D01*
X157679946Y-43139474D01*
X157658343Y-43133451D01*
X157648874Y-43129860D01*
X157648870Y-43129859D01*
X157587313Y-43122384D01*
X157583612Y-43121821D01*
X157522608Y-43110642D01*
X157522603Y-43110642D01*
X157460697Y-43114387D01*
X157456952Y-43114500D01*
X153058037Y-43114500D01*
X153054293Y-43114387D01*
X152992397Y-43110643D01*
X152992390Y-43110643D01*
X152931402Y-43121819D01*
X152927701Y-43122382D01*
X152866125Y-43129860D01*
X152856642Y-43133456D01*
X152835038Y-43139478D01*
X152833535Y-43139754D01*
X152825065Y-43141306D01*
X152768522Y-43166754D01*
X152765063Y-43168187D01*
X152728867Y-43181915D01*
X152707070Y-43190182D01*
X152707068Y-43190183D01*
X152707066Y-43190184D01*
X152707061Y-43190186D01*
X152698722Y-43195942D01*
X152679190Y-43206959D01*
X152669946Y-43211120D01*
X152669944Y-43211121D01*
X152669943Y-43211122D01*
X152640402Y-43234265D01*
X152621124Y-43249368D01*
X152618109Y-43251586D01*
X152567068Y-43286818D01*
X152525942Y-43333240D01*
X152523375Y-43335966D01*
X152005531Y-43853810D01*
X151944208Y-43887295D01*
X151895070Y-43888019D01*
X151887968Y-43886691D01*
X151876243Y-43884500D01*
X151653757Y-43884500D01*
X151435060Y-43925382D01*
X151303864Y-43976207D01*
X151227601Y-44005752D01*
X151227595Y-44005754D01*
X151038439Y-44122874D01*
X151038437Y-44122876D01*
X150874020Y-44272761D01*
X150739943Y-44450308D01*
X150739938Y-44450316D01*
X150640775Y-44649461D01*
X150640769Y-44649476D01*
X150579885Y-44863462D01*
X150579884Y-44863464D01*
X150559357Y-45084999D01*
X150559357Y-45085000D01*
X150579884Y-45306535D01*
X150579885Y-45306537D01*
X150640769Y-45520523D01*
X150640775Y-45520538D01*
X150739938Y-45719683D01*
X150739943Y-45719691D01*
X150874020Y-45897238D01*
X151038437Y-46047123D01*
X151038439Y-46047125D01*
X151227595Y-46164245D01*
X151227596Y-46164245D01*
X151227599Y-46164247D01*
X151435060Y-46244618D01*
X151653757Y-46285500D01*
X151653759Y-46285500D01*
X151876241Y-46285500D01*
X151876243Y-46285500D01*
X152094940Y-46244618D01*
X152302401Y-46164247D01*
X152491562Y-46047124D01*
X152655981Y-45897236D01*
X152790058Y-45719689D01*
X152889229Y-45520528D01*
X152950115Y-45306536D01*
X152970643Y-45085000D01*
X152957781Y-44946203D01*
X152971196Y-44877637D01*
X152993565Y-44847090D01*
X153288839Y-44551816D01*
X153350161Y-44518334D01*
X153376519Y-44515500D01*
X157138481Y-44515500D01*
X157205520Y-44535185D01*
X157226162Y-44551819D01*
X157767416Y-45093073D01*
X157800901Y-45154396D01*
X157795917Y-45224088D01*
X157754045Y-45280021D01*
X157744834Y-45286291D01*
X157731196Y-45294702D01*
X157607205Y-45418693D01*
X157607202Y-45418697D01*
X157515155Y-45567927D01*
X157515150Y-45567938D01*
X157459995Y-45734387D01*
X157449500Y-45837113D01*
X157449500Y-46069020D01*
X157429815Y-46136059D01*
X157377011Y-46181814D01*
X157307853Y-46191758D01*
X157244297Y-46162733D01*
X157206523Y-46103955D01*
X157205725Y-46101113D01*
X157176269Y-45991182D01*
X157176265Y-45991173D01*
X157080133Y-45785016D01*
X157080131Y-45785012D01*
X157029026Y-45712026D01*
X157029025Y-45712026D01*
X156347953Y-46393098D01*
X156335165Y-46312352D01*
X156277641Y-46199455D01*
X156188045Y-46109859D01*
X156075148Y-46052335D01*
X155994400Y-46039546D01*
X156675472Y-45358474D01*
X156675471Y-45358473D01*
X156602483Y-45307366D01*
X156602481Y-45307365D01*
X156396326Y-45211234D01*
X156396317Y-45211230D01*
X156176610Y-45152360D01*
X156176599Y-45152358D01*
X155950002Y-45132534D01*
X155949998Y-45132534D01*
X155723400Y-45152358D01*
X155723389Y-45152360D01*
X155503682Y-45211230D01*
X155503673Y-45211234D01*
X155297513Y-45307368D01*
X155224527Y-45358472D01*
X155224526Y-45358473D01*
X155905600Y-46039546D01*
X155824852Y-46052335D01*
X155711955Y-46109859D01*
X155622359Y-46199455D01*
X155564835Y-46312352D01*
X155552046Y-46393099D01*
X154870973Y-45712026D01*
X154870972Y-45712027D01*
X154819868Y-45785013D01*
X154723734Y-45991173D01*
X154723730Y-45991182D01*
X154664860Y-46210889D01*
X154664858Y-46210900D01*
X154645034Y-46437497D01*
X154645034Y-46437502D01*
X154664858Y-46664099D01*
X154664860Y-46664110D01*
X154723730Y-46883817D01*
X154723734Y-46883826D01*
X154819865Y-47089981D01*
X154819866Y-47089983D01*
X154870973Y-47162971D01*
X154870974Y-47162972D01*
X155552046Y-46481899D01*
X155564835Y-46562648D01*
X155622359Y-46675545D01*
X155711955Y-46765141D01*
X155824852Y-46822665D01*
X155905599Y-46835453D01*
X155224526Y-47516525D01*
X155224526Y-47516526D01*
X155297512Y-47567631D01*
X155297520Y-47567635D01*
X155355865Y-47594842D01*
X155408305Y-47641014D01*
X155427457Y-47708207D01*
X155407242Y-47775089D01*
X155355867Y-47819605D01*
X155323000Y-47834932D01*
X155297264Y-47846933D01*
X155110858Y-47977454D01*
X154949954Y-48138358D01*
X154819432Y-48324765D01*
X154819431Y-48324767D01*
X154723261Y-48531002D01*
X154723258Y-48531011D01*
X154664366Y-48750802D01*
X154664364Y-48750813D01*
X154644532Y-48977498D01*
X154644532Y-48977501D01*
X154664364Y-49204186D01*
X154664366Y-49204197D01*
X154723258Y-49423988D01*
X154723261Y-49423997D01*
X154819431Y-49630232D01*
X154819432Y-49630234D01*
X154949954Y-49816641D01*
X155110857Y-49977544D01*
X155110860Y-49977546D01*
X155110861Y-49977547D01*
X155196623Y-50037597D01*
X155240248Y-50092173D01*
X155249500Y-50139172D01*
X155249500Y-50516951D01*
X155249387Y-50520696D01*
X155245642Y-50582603D01*
X155245642Y-50582605D01*
X155256821Y-50643612D01*
X155257384Y-50647313D01*
X155264859Y-50708870D01*
X155264860Y-50708874D01*
X155268451Y-50718343D01*
X155274474Y-50739946D01*
X155276304Y-50749930D01*
X155301759Y-50806490D01*
X155303189Y-50809941D01*
X155325182Y-50867930D01*
X155325183Y-50867931D01*
X155330936Y-50876266D01*
X155341961Y-50895813D01*
X155346120Y-50905055D01*
X155346124Y-50905060D01*
X155384371Y-50953878D01*
X155386591Y-50956896D01*
X155421812Y-51007924D01*
X155421816Y-51007928D01*
X155421817Y-51007929D01*
X155468250Y-51049064D01*
X155470941Y-51051598D01*
X157136147Y-52716804D01*
X158791427Y-54372084D01*
X158824912Y-54433407D01*
X158827217Y-54471205D01*
X158814357Y-54609997D01*
X158814357Y-54610002D01*
X158827217Y-54748794D01*
X158813802Y-54817363D01*
X158791427Y-54847915D01*
X154051162Y-59588181D01*
X153989839Y-59621666D01*
X153963481Y-59624500D01*
X135278048Y-59624500D01*
X135274303Y-59624387D01*
X135212396Y-59620642D01*
X135212389Y-59620642D01*
X135151386Y-59631821D01*
X135147685Y-59632384D01*
X135086128Y-59639859D01*
X135086121Y-59639861D01*
X135076647Y-59643454D01*
X135055049Y-59649475D01*
X135045069Y-59651304D01*
X134988519Y-59676755D01*
X134985060Y-59678188D01*
X134927071Y-59700181D01*
X134927066Y-59700184D01*
X134918722Y-59705943D01*
X134899187Y-59716961D01*
X134889947Y-59721120D01*
X134889945Y-59721121D01*
X134841136Y-59759359D01*
X134838122Y-59761576D01*
X134787070Y-59796817D01*
X134787068Y-59796818D01*
X134745942Y-59843240D01*
X134743375Y-59845966D01*
X133680369Y-60908972D01*
X133619046Y-60942457D01*
X133581881Y-60944819D01*
X133576680Y-60944364D01*
X133557171Y-60942657D01*
X133350002Y-60924532D01*
X133349998Y-60924532D01*
X133123313Y-60944364D01*
X133123302Y-60944366D01*
X132903511Y-61003258D01*
X132903502Y-61003261D01*
X132697267Y-61099431D01*
X132697265Y-61099432D01*
X132510858Y-61229954D01*
X132349954Y-61390858D01*
X132219432Y-61577265D01*
X132219431Y-61577267D01*
X132192382Y-61635275D01*
X132146209Y-61687714D01*
X132079016Y-61706866D01*
X132012135Y-61686650D01*
X131967618Y-61635275D01*
X131940568Y-61577267D01*
X131940567Y-61577265D01*
X131810045Y-61390858D01*
X131649141Y-61229954D01*
X131462734Y-61099432D01*
X131462732Y-61099431D01*
X131256497Y-61003261D01*
X131256488Y-61003258D01*
X131036697Y-60944366D01*
X131036693Y-60944365D01*
X131036692Y-60944365D01*
X131036691Y-60944364D01*
X131036686Y-60944364D01*
X130810002Y-60924532D01*
X130809998Y-60924532D01*
X130583313Y-60944364D01*
X130583302Y-60944366D01*
X130363511Y-61003258D01*
X130363502Y-61003261D01*
X130157267Y-61099431D01*
X130157265Y-61099432D01*
X129970858Y-61229954D01*
X129809954Y-61390858D01*
X129679432Y-61577265D01*
X129679431Y-61577267D01*
X129652382Y-61635275D01*
X129606209Y-61687714D01*
X129539016Y-61706866D01*
X129472135Y-61686650D01*
X129427618Y-61635275D01*
X129400568Y-61577267D01*
X129400567Y-61577265D01*
X129270045Y-61390858D01*
X129109141Y-61229954D01*
X128922734Y-61099432D01*
X128922732Y-61099431D01*
X128716497Y-61003261D01*
X128716488Y-61003258D01*
X128496697Y-60944366D01*
X128496693Y-60944365D01*
X128496692Y-60944365D01*
X128496691Y-60944364D01*
X128496686Y-60944364D01*
X128270002Y-60924532D01*
X128269998Y-60924532D01*
X128043313Y-60944364D01*
X128043302Y-60944366D01*
X127823511Y-61003258D01*
X127823502Y-61003261D01*
X127617267Y-61099431D01*
X127617265Y-61099432D01*
X127430858Y-61229954D01*
X127269954Y-61390858D01*
X127139432Y-61577265D01*
X127139431Y-61577267D01*
X127112382Y-61635275D01*
X127066209Y-61687714D01*
X126999016Y-61706866D01*
X126932135Y-61686650D01*
X126887618Y-61635275D01*
X126860568Y-61577267D01*
X126860567Y-61577265D01*
X126730045Y-61390858D01*
X126569141Y-61229954D01*
X126382734Y-61099432D01*
X126382732Y-61099431D01*
X126176497Y-61003261D01*
X126176488Y-61003258D01*
X125956697Y-60944366D01*
X125956693Y-60944365D01*
X125956692Y-60944365D01*
X125956691Y-60944364D01*
X125956686Y-60944364D01*
X125730002Y-60924532D01*
X125729998Y-60924532D01*
X125503313Y-60944364D01*
X125503302Y-60944366D01*
X125283511Y-61003258D01*
X125283502Y-61003261D01*
X125077267Y-61099431D01*
X125077265Y-61099432D01*
X124890858Y-61229954D01*
X124729954Y-61390858D01*
X124712725Y-61415464D01*
X124658147Y-61459088D01*
X124588648Y-61466280D01*
X124526294Y-61434757D01*
X124490882Y-61374526D01*
X124487861Y-61357591D01*
X124484091Y-61322516D01*
X124433797Y-61187671D01*
X124433793Y-61187664D01*
X124347547Y-61072455D01*
X124347544Y-61072452D01*
X124232335Y-60986206D01*
X124232328Y-60986202D01*
X124097482Y-60935908D01*
X124097483Y-60935908D01*
X124037883Y-60929501D01*
X124037881Y-60929500D01*
X124037873Y-60929500D01*
X124037864Y-60929500D01*
X122342129Y-60929500D01*
X122342123Y-60929501D01*
X122282516Y-60935908D01*
X122147671Y-60986202D01*
X122147664Y-60986206D01*
X122032455Y-61072452D01*
X122032452Y-61072455D01*
X121946206Y-61187664D01*
X121946202Y-61187671D01*
X121895908Y-61322517D01*
X121889501Y-61382116D01*
X121889500Y-61382135D01*
X121889500Y-63077870D01*
X102949829Y-63077870D01*
X102934949Y-63059494D01*
X102675506Y-62800051D01*
X102616837Y-62752542D01*
X102390364Y-62569147D01*
X102082656Y-62369320D01*
X101755739Y-62202746D01*
X101413206Y-62071260D01*
X101285201Y-62036961D01*
X101058794Y-61976295D01*
X101058790Y-61976294D01*
X101058789Y-61976294D01*
X100696405Y-61918898D01*
X100330001Y-61899696D01*
X100329999Y-61899696D01*
X99963594Y-61918898D01*
X99601211Y-61976294D01*
X99601209Y-61976294D01*
X99246793Y-62071260D01*
X98904260Y-62202746D01*
X98577343Y-62369320D01*
X98269635Y-62569147D01*
X97984498Y-62800047D01*
X97984490Y-62800054D01*
X97725054Y-63059490D01*
X97725047Y-63059498D01*
X97494147Y-63344635D01*
X97294320Y-63652343D01*
X97127746Y-63979260D01*
X96996260Y-64321793D01*
X96901294Y-64676209D01*
X96901294Y-64676211D01*
X96843898Y-65038594D01*
X96824696Y-65404999D01*
X96824696Y-65405000D01*
X96520500Y-65405000D01*
X96520500Y-47505106D01*
X97720642Y-47505106D01*
X97731821Y-47566112D01*
X97732384Y-47569813D01*
X97739859Y-47631370D01*
X97739860Y-47631374D01*
X97743451Y-47640843D01*
X97749474Y-47662446D01*
X97751304Y-47672430D01*
X97776759Y-47728990D01*
X97778189Y-47732441D01*
X97800182Y-47790430D01*
X97800183Y-47790431D01*
X97805936Y-47798766D01*
X97816961Y-47818313D01*
X97821120Y-47827555D01*
X97821124Y-47827560D01*
X97859371Y-47876378D01*
X97861591Y-47879396D01*
X97896812Y-47930424D01*
X97896816Y-47930428D01*
X97896817Y-47930429D01*
X97943250Y-47971564D01*
X97945941Y-47974098D01*
X98296608Y-48324765D01*
X98618972Y-48647129D01*
X98652457Y-48708452D01*
X98654819Y-48745617D01*
X98634532Y-48977498D01*
X98634532Y-48977501D01*
X98654364Y-49204186D01*
X98654366Y-49204197D01*
X98713258Y-49423988D01*
X98713261Y-49423997D01*
X98809431Y-49630232D01*
X98809432Y-49630234D01*
X98939954Y-49816641D01*
X99100858Y-49977545D01*
X99100861Y-49977547D01*
X99287266Y-50108068D01*
X99493504Y-50204239D01*
X99493509Y-50204240D01*
X99493511Y-50204241D01*
X99546415Y-50218416D01*
X99713308Y-50263135D01*
X99870380Y-50276877D01*
X99939998Y-50282968D01*
X99940000Y-50282968D01*
X99940002Y-50282968D01*
X99996673Y-50278009D01*
X100166692Y-50263135D01*
X100386496Y-50204239D01*
X100592734Y-50108068D01*
X100779139Y-49977547D01*
X100940047Y-49816639D01*
X101070568Y-49630234D01*
X101166739Y-49423996D01*
X101220484Y-49223413D01*
X101256847Y-49163756D01*
X101319694Y-49133226D01*
X101389070Y-49141520D01*
X101442948Y-49186005D01*
X101460033Y-49223415D01*
X101513731Y-49423820D01*
X101513734Y-49423826D01*
X101609865Y-49629981D01*
X101609866Y-49629983D01*
X101660973Y-49702971D01*
X101660974Y-49702972D01*
X102342046Y-49021899D01*
X102354835Y-49102648D01*
X102412359Y-49215545D01*
X102501955Y-49305141D01*
X102614852Y-49362665D01*
X102695599Y-49375453D01*
X102014526Y-50056525D01*
X102014526Y-50056526D01*
X102087512Y-50107631D01*
X102087516Y-50107633D01*
X102257230Y-50186772D01*
X102309669Y-50232944D01*
X102328821Y-50300138D01*
X102308605Y-50367019D01*
X102292506Y-50386835D01*
X101346162Y-51333181D01*
X101284839Y-51366666D01*
X101258481Y-51369500D01*
X100988048Y-51369500D01*
X100984303Y-51369387D01*
X100922396Y-51365642D01*
X100922389Y-51365642D01*
X100861386Y-51376821D01*
X100857685Y-51377384D01*
X100796128Y-51384859D01*
X100796121Y-51384861D01*
X100786647Y-51388454D01*
X100765049Y-51394475D01*
X100755069Y-51396304D01*
X100698519Y-51421755D01*
X100695060Y-51423188D01*
X100637071Y-51445181D01*
X100637066Y-51445184D01*
X100628722Y-51450943D01*
X100609187Y-51461961D01*
X100599947Y-51466120D01*
X100599945Y-51466121D01*
X100551136Y-51504359D01*
X100548122Y-51506576D01*
X100497070Y-51541817D01*
X100497068Y-51541818D01*
X100455942Y-51588240D01*
X100453375Y-51590966D01*
X98580966Y-53463375D01*
X98578240Y-53465942D01*
X98531818Y-53507068D01*
X98531818Y-53507069D01*
X98524875Y-53517127D01*
X98488107Y-53552108D01*
X98333436Y-53647877D01*
X98169020Y-53797761D01*
X98034943Y-53975308D01*
X98034938Y-53975316D01*
X97935775Y-54174461D01*
X97935769Y-54174476D01*
X97874885Y-54388462D01*
X97874884Y-54388464D01*
X97854357Y-54609999D01*
X97854357Y-54610000D01*
X97874884Y-54831535D01*
X97874885Y-54831537D01*
X97935769Y-55045523D01*
X97935775Y-55045538D01*
X98034938Y-55244683D01*
X98034943Y-55244691D01*
X98169020Y-55422238D01*
X98333437Y-55572123D01*
X98333439Y-55572125D01*
X98522595Y-55689245D01*
X98522596Y-55689245D01*
X98522599Y-55689247D01*
X98730060Y-55769618D01*
X98948757Y-55810500D01*
X98948759Y-55810500D01*
X99171241Y-55810500D01*
X99171243Y-55810500D01*
X99389940Y-55769618D01*
X99597401Y-55689247D01*
X99786562Y-55572124D01*
X99950981Y-55422236D01*
X100085058Y-55244689D01*
X100184229Y-55045528D01*
X100245115Y-54831536D01*
X100265643Y-54610000D01*
X100245115Y-54388464D01*
X100184229Y-54174472D01*
X100113287Y-54032002D01*
X100101026Y-53963217D01*
X100127899Y-53898722D01*
X100136596Y-53889059D01*
X101218838Y-52806819D01*
X101280161Y-52773334D01*
X101306519Y-52770500D01*
X101576952Y-52770500D01*
X101580697Y-52770613D01*
X101588042Y-52771057D01*
X101642606Y-52774358D01*
X101680314Y-52767447D01*
X101703621Y-52763177D01*
X101707325Y-52762613D01*
X101725170Y-52760446D01*
X101768872Y-52755140D01*
X101778335Y-52751550D01*
X101799961Y-52745522D01*
X101800893Y-52745351D01*
X101809932Y-52743695D01*
X101866512Y-52718229D01*
X101869942Y-52716809D01*
X101927930Y-52694818D01*
X101936266Y-52689062D01*
X101955821Y-52678034D01*
X101965057Y-52673878D01*
X102013896Y-52635613D01*
X102016876Y-52633421D01*
X102067929Y-52598183D01*
X102109065Y-52551748D01*
X102111599Y-52549056D01*
X105206556Y-49454099D01*
X105209248Y-49451565D01*
X105255683Y-49410429D01*
X105290921Y-49359376D01*
X105293113Y-49356396D01*
X105331378Y-49307557D01*
X105335534Y-49298321D01*
X105346562Y-49278766D01*
X105352318Y-49270430D01*
X105374312Y-49212431D01*
X105375727Y-49209015D01*
X105401195Y-49152431D01*
X105403022Y-49142459D01*
X105409046Y-49120847D01*
X105412640Y-49111372D01*
X105420113Y-49049824D01*
X105420677Y-49046119D01*
X105428142Y-49005382D01*
X105431858Y-48985106D01*
X105428113Y-48923196D01*
X105428000Y-48919451D01*
X105428000Y-46965547D01*
X105428113Y-46961802D01*
X105431858Y-46899894D01*
X105420675Y-46838871D01*
X105420113Y-46835174D01*
X105418118Y-46818751D01*
X105412640Y-46773628D01*
X105409048Y-46764156D01*
X105403021Y-46742534D01*
X105401195Y-46732571D01*
X105401195Y-46732569D01*
X105375724Y-46675976D01*
X105374317Y-46672579D01*
X105352318Y-46614570D01*
X105352316Y-46614568D01*
X105352316Y-46614566D01*
X105346562Y-46606231D01*
X105335534Y-46586677D01*
X105331380Y-46577447D01*
X105319786Y-46562648D01*
X105293121Y-46528612D01*
X105290927Y-46525630D01*
X105255683Y-46474571D01*
X105209250Y-46433435D01*
X105206556Y-46430899D01*
X104734098Y-45958441D01*
X104731564Y-45955750D01*
X104690429Y-45909317D01*
X104690428Y-45909316D01*
X104690424Y-45909312D01*
X104639396Y-45874091D01*
X104636387Y-45871877D01*
X104592032Y-45837128D01*
X104587560Y-45833624D01*
X104587555Y-45833620D01*
X104578313Y-45829461D01*
X104558766Y-45818436D01*
X104550431Y-45812683D01*
X104550432Y-45812683D01*
X104550430Y-45812682D01*
X104492441Y-45790689D01*
X104488990Y-45789259D01*
X104432430Y-45763804D01*
X104422446Y-45761974D01*
X104400843Y-45755951D01*
X104391374Y-45752360D01*
X104391370Y-45752359D01*
X104329813Y-45744884D01*
X104326112Y-45744321D01*
X104265108Y-45733142D01*
X104265103Y-45733142D01*
X104203197Y-45736887D01*
X104199452Y-45737000D01*
X104120412Y-45737000D01*
X104053373Y-45717315D01*
X104007618Y-45664511D01*
X104002706Y-45652004D01*
X103974849Y-45567936D01*
X103974845Y-45567930D01*
X103974844Y-45567927D01*
X103882797Y-45418697D01*
X103882794Y-45418693D01*
X103758806Y-45294705D01*
X103758802Y-45294702D01*
X103609572Y-45202655D01*
X103609566Y-45202652D01*
X103609564Y-45202651D01*
X103443116Y-45147496D01*
X103443113Y-45147495D01*
X103443114Y-45147495D01*
X103340380Y-45137000D01*
X102139628Y-45137000D01*
X102139612Y-45137001D01*
X102036882Y-45147496D01*
X101870438Y-45202650D01*
X101870427Y-45202655D01*
X101721197Y-45294702D01*
X101721193Y-45294705D01*
X101597205Y-45418693D01*
X101597202Y-45418697D01*
X101505155Y-45567927D01*
X101505150Y-45567938D01*
X101449995Y-45734387D01*
X101439500Y-45837113D01*
X101439500Y-46069020D01*
X101419815Y-46136059D01*
X101367011Y-46181814D01*
X101297853Y-46191758D01*
X101234297Y-46162733D01*
X101196523Y-46103955D01*
X101195725Y-46101113D01*
X101166269Y-45991182D01*
X101166265Y-45991173D01*
X101070133Y-45785016D01*
X101070131Y-45785012D01*
X101019026Y-45712026D01*
X101019025Y-45712026D01*
X100337953Y-46393098D01*
X100325165Y-46312352D01*
X100267641Y-46199455D01*
X100178045Y-46109859D01*
X100065148Y-46052335D01*
X99984400Y-46039546D01*
X100665472Y-45358474D01*
X100665471Y-45358473D01*
X100592483Y-45307366D01*
X100592481Y-45307365D01*
X100386326Y-45211234D01*
X100386317Y-45211230D01*
X100166610Y-45152360D01*
X100166599Y-45152358D01*
X99940002Y-45132534D01*
X99939998Y-45132534D01*
X99713400Y-45152358D01*
X99713389Y-45152360D01*
X99493682Y-45211230D01*
X99493673Y-45211234D01*
X99301905Y-45300657D01*
X99232827Y-45311149D01*
X99169043Y-45282629D01*
X99130804Y-45224153D01*
X99125500Y-45188275D01*
X99125500Y-44639500D01*
X99145185Y-44572461D01*
X99197989Y-44526706D01*
X99249500Y-44515500D01*
X105703481Y-44515500D01*
X105770520Y-44535185D01*
X105791162Y-44551819D01*
X106086427Y-44847084D01*
X106119912Y-44908407D01*
X106122217Y-44946205D01*
X106109357Y-45084998D01*
X106109357Y-45085000D01*
X106129884Y-45306535D01*
X106129885Y-45306537D01*
X106190769Y-45520523D01*
X106190775Y-45520538D01*
X106289938Y-45719683D01*
X106289943Y-45719691D01*
X106424020Y-45897238D01*
X106588437Y-46047123D01*
X106588439Y-46047125D01*
X106777595Y-46164245D01*
X106777596Y-46164245D01*
X106777599Y-46164247D01*
X106985060Y-46244618D01*
X107203757Y-46285500D01*
X107203759Y-46285500D01*
X107426241Y-46285500D01*
X107426243Y-46285500D01*
X107644940Y-46244618D01*
X107852401Y-46164247D01*
X108041562Y-46047124D01*
X108205981Y-45897236D01*
X108340058Y-45719689D01*
X108439229Y-45520528D01*
X108500115Y-45306536D01*
X108520643Y-45085000D01*
X108500115Y-44863464D01*
X108439229Y-44649472D01*
X108434264Y-44639500D01*
X108340061Y-44450316D01*
X108340056Y-44450308D01*
X108205979Y-44272761D01*
X108041562Y-44122876D01*
X108041560Y-44122874D01*
X107852404Y-44005754D01*
X107852398Y-44005752D01*
X107644940Y-43925382D01*
X107426243Y-43884500D01*
X107203757Y-43884500D01*
X107203754Y-43884500D01*
X107184926Y-43888019D01*
X107115412Y-43880984D01*
X107074467Y-43853810D01*
X106823233Y-43602576D01*
X106556598Y-43335941D01*
X106554064Y-43333250D01*
X106512929Y-43286817D01*
X106512928Y-43286816D01*
X106512924Y-43286812D01*
X106461896Y-43251591D01*
X106458887Y-43249377D01*
X106431506Y-43227926D01*
X106410060Y-43211124D01*
X106410055Y-43211120D01*
X106400813Y-43206961D01*
X106381266Y-43195936D01*
X106379657Y-43194826D01*
X106372930Y-43190182D01*
X106314941Y-43168189D01*
X106311490Y-43166759D01*
X106254930Y-43141304D01*
X106244946Y-43139474D01*
X106223343Y-43133451D01*
X106213874Y-43129860D01*
X106213870Y-43129859D01*
X106152313Y-43122384D01*
X106148612Y-43121821D01*
X106087608Y-43110642D01*
X106087603Y-43110642D01*
X106025697Y-43114387D01*
X106021952Y-43114500D01*
X98510056Y-43114500D01*
X98339944Y-43114500D01*
X98329363Y-43117107D01*
X98302143Y-43123816D01*
X98294776Y-43125166D01*
X98256126Y-43129860D01*
X98219725Y-43143664D01*
X98212576Y-43145891D01*
X98174775Y-43155210D01*
X98174770Y-43155212D01*
X98140296Y-43173303D01*
X98133467Y-43176377D01*
X98097071Y-43190180D01*
X98097069Y-43190181D01*
X98065027Y-43212299D01*
X98058617Y-43216174D01*
X98024149Y-43234265D01*
X97995005Y-43260082D01*
X97989110Y-43264700D01*
X97957072Y-43286815D01*
X97957071Y-43286816D01*
X97931253Y-43315957D01*
X97925957Y-43321253D01*
X97896816Y-43347071D01*
X97896815Y-43347072D01*
X97874700Y-43379110D01*
X97870082Y-43385005D01*
X97844265Y-43414149D01*
X97826174Y-43448617D01*
X97822299Y-43455027D01*
X97800181Y-43487069D01*
X97800180Y-43487071D01*
X97786377Y-43523467D01*
X97783303Y-43530296D01*
X97765212Y-43564770D01*
X97765210Y-43564775D01*
X97755891Y-43602576D01*
X97753664Y-43609725D01*
X97739860Y-43646126D01*
X97735166Y-43684776D01*
X97733816Y-43692143D01*
X97724500Y-43729945D01*
X97724500Y-47439451D01*
X97724387Y-47443196D01*
X97720642Y-47505106D01*
X96520500Y-47505106D01*
X96520500Y-42669500D01*
X96540185Y-42602461D01*
X96592989Y-42556706D01*
X96644500Y-42545500D01*
X125074480Y-42545500D01*
X125141519Y-42565185D01*
G37*
%TD.AperFunction*%
%TA.AperFunction,Conductor*%
G36*
X129089025Y-47162972D02*
G01*
X129140136Y-47089978D01*
X129236264Y-46883831D01*
X129236269Y-46883817D01*
X129265725Y-46773884D01*
X129302089Y-46714224D01*
X129364936Y-46683694D01*
X129434312Y-46691988D01*
X129488190Y-46736473D01*
X129509465Y-46803025D01*
X129509500Y-46805976D01*
X129509500Y-47037870D01*
X129509501Y-47037887D01*
X129519996Y-47140617D01*
X129575150Y-47307061D01*
X129575155Y-47307072D01*
X129667202Y-47456302D01*
X129667205Y-47456306D01*
X129791193Y-47580294D01*
X129791197Y-47580297D01*
X129940427Y-47672344D01*
X129940430Y-47672345D01*
X129940436Y-47672349D01*
X130023073Y-47699732D01*
X130080517Y-47739503D01*
X130107341Y-47804018D01*
X130095026Y-47872794D01*
X130085841Y-47883451D01*
X130084526Y-47898473D01*
X130765600Y-48579546D01*
X130684852Y-48592335D01*
X130571955Y-48649859D01*
X130482359Y-48739455D01*
X130424835Y-48852352D01*
X130412046Y-48933100D01*
X129730973Y-48252027D01*
X129679868Y-48325013D01*
X129583734Y-48531173D01*
X129583731Y-48531180D01*
X129530033Y-48731584D01*
X129493668Y-48791244D01*
X129430821Y-48821773D01*
X129361445Y-48813478D01*
X129307567Y-48768993D01*
X129290484Y-48731586D01*
X129236739Y-48531004D01*
X129140568Y-48324766D01*
X129010047Y-48138361D01*
X129010045Y-48138358D01*
X128849141Y-47977454D01*
X128706888Y-47877849D01*
X128662734Y-47846932D01*
X128604132Y-47819605D01*
X128551694Y-47773433D01*
X128532543Y-47706239D01*
X128552759Y-47639358D01*
X128604135Y-47594841D01*
X128662482Y-47567633D01*
X128735472Y-47516525D01*
X128054401Y-46835453D01*
X128135148Y-46822665D01*
X128248045Y-46765141D01*
X128337641Y-46675545D01*
X128395165Y-46562648D01*
X128407953Y-46481900D01*
X129089025Y-47162972D01*
G37*
%TD.AperFunction*%
%TD*%
M02*
