%TF.GenerationSoftware,KiCad,Pcbnew,7.0.9*%
%TF.CreationDate,2024-02-01T16:38:21+03:00*%
%TF.ProjectId,line_sensor,6c696e65-5f73-4656-9e73-6f722e6b6963,rev?*%
%TF.SameCoordinates,Original*%
%TF.FileFunction,Legend,Bot*%
%TF.FilePolarity,Positive*%
%FSLAX46Y46*%
G04 Gerber Fmt 4.6, Leading zero omitted, Abs format (unit mm)*
G04 Created by KiCad (PCBNEW 7.0.9) date 2024-02-01 16:38:21*
%MOMM*%
%LPD*%
G01*
G04 APERTURE LIST*
%ADD10C,0.150000*%
%ADD11C,0.120000*%
G04 APERTURE END LIST*
D10*
X158111904Y-42722319D02*
X158111904Y-43531842D01*
X158111904Y-43531842D02*
X158064285Y-43627080D01*
X158064285Y-43627080D02*
X158016666Y-43674700D01*
X158016666Y-43674700D02*
X157921428Y-43722319D01*
X157921428Y-43722319D02*
X157730952Y-43722319D01*
X157730952Y-43722319D02*
X157635714Y-43674700D01*
X157635714Y-43674700D02*
X157588095Y-43627080D01*
X157588095Y-43627080D02*
X157540476Y-43531842D01*
X157540476Y-43531842D02*
X157540476Y-42722319D01*
X157159523Y-42722319D02*
X156540476Y-42722319D01*
X156540476Y-42722319D02*
X156873809Y-43103271D01*
X156873809Y-43103271D02*
X156730952Y-43103271D01*
X156730952Y-43103271D02*
X156635714Y-43150890D01*
X156635714Y-43150890D02*
X156588095Y-43198509D01*
X156588095Y-43198509D02*
X156540476Y-43293747D01*
X156540476Y-43293747D02*
X156540476Y-43531842D01*
X156540476Y-43531842D02*
X156588095Y-43627080D01*
X156588095Y-43627080D02*
X156635714Y-43674700D01*
X156635714Y-43674700D02*
X156730952Y-43722319D01*
X156730952Y-43722319D02*
X157016666Y-43722319D01*
X157016666Y-43722319D02*
X157111904Y-43674700D01*
X157111904Y-43674700D02*
X157159523Y-43627080D01*
X130171904Y-42722319D02*
X130171904Y-43531842D01*
X130171904Y-43531842D02*
X130124285Y-43627080D01*
X130124285Y-43627080D02*
X130076666Y-43674700D01*
X130076666Y-43674700D02*
X129981428Y-43722319D01*
X129981428Y-43722319D02*
X129790952Y-43722319D01*
X129790952Y-43722319D02*
X129695714Y-43674700D01*
X129695714Y-43674700D02*
X129648095Y-43627080D01*
X129648095Y-43627080D02*
X129600476Y-43531842D01*
X129600476Y-43531842D02*
X129600476Y-42722319D01*
X129171904Y-42817557D02*
X129124285Y-42769938D01*
X129124285Y-42769938D02*
X129029047Y-42722319D01*
X129029047Y-42722319D02*
X128790952Y-42722319D01*
X128790952Y-42722319D02*
X128695714Y-42769938D01*
X128695714Y-42769938D02*
X128648095Y-42817557D01*
X128648095Y-42817557D02*
X128600476Y-42912795D01*
X128600476Y-42912795D02*
X128600476Y-43008033D01*
X128600476Y-43008033D02*
X128648095Y-43150890D01*
X128648095Y-43150890D02*
X129219523Y-43722319D01*
X129219523Y-43722319D02*
X128600476Y-43722319D01*
X102101904Y-42722319D02*
X102101904Y-43531842D01*
X102101904Y-43531842D02*
X102054285Y-43627080D01*
X102054285Y-43627080D02*
X102006666Y-43674700D01*
X102006666Y-43674700D02*
X101911428Y-43722319D01*
X101911428Y-43722319D02*
X101720952Y-43722319D01*
X101720952Y-43722319D02*
X101625714Y-43674700D01*
X101625714Y-43674700D02*
X101578095Y-43627080D01*
X101578095Y-43627080D02*
X101530476Y-43531842D01*
X101530476Y-43531842D02*
X101530476Y-42722319D01*
X100530476Y-43722319D02*
X101101904Y-43722319D01*
X100816190Y-43722319D02*
X100816190Y-42722319D01*
X100816190Y-42722319D02*
X100911428Y-42865176D01*
X100911428Y-42865176D02*
X101006666Y-42960414D01*
X101006666Y-42960414D02*
X101101904Y-43008033D01*
D11*
%TO.C,U3*%
X161230000Y-43827500D02*
X161230000Y-45327500D01*
X161230000Y-43827500D02*
X159730000Y-43827500D01*
X160970000Y-44087500D02*
X160970000Y-51327500D01*
X157730000Y-44087500D02*
X160970000Y-44087500D01*
X157730000Y-44087500D02*
X157730000Y-44587500D01*
X157730000Y-44587500D02*
X156970000Y-44587500D01*
X157730000Y-50827500D02*
X157730000Y-51327500D01*
X157730000Y-51327500D02*
X160970000Y-51327500D01*
X156970000Y-44087500D02*
X153730000Y-44087500D01*
X156970000Y-44587500D02*
X156970000Y-44087500D01*
X156970000Y-50827500D02*
X157730000Y-50827500D01*
X156970000Y-51327500D02*
X156970000Y-50827500D01*
X156970000Y-51327500D02*
X153730000Y-51327500D01*
X153730000Y-51327500D02*
X153730000Y-44087500D01*
X153470000Y-44407500D02*
X153470000Y-45727500D01*
X153470000Y-46207500D02*
X153470000Y-47527500D01*
X153470000Y-48007500D02*
X153470000Y-49327500D01*
X153470000Y-49807500D02*
X153470000Y-51007500D01*
%TO.C,U2*%
X133290000Y-43827500D02*
X133290000Y-45327500D01*
X133290000Y-43827500D02*
X131790000Y-43827500D01*
X133030000Y-44087500D02*
X133030000Y-51327500D01*
X129790000Y-44087500D02*
X133030000Y-44087500D01*
X129790000Y-44087500D02*
X129790000Y-44587500D01*
X129790000Y-44587500D02*
X129030000Y-44587500D01*
X129790000Y-50827500D02*
X129790000Y-51327500D01*
X129790000Y-51327500D02*
X133030000Y-51327500D01*
X129030000Y-44087500D02*
X125790000Y-44087500D01*
X129030000Y-44587500D02*
X129030000Y-44087500D01*
X129030000Y-50827500D02*
X129790000Y-50827500D01*
X129030000Y-51327500D02*
X129030000Y-50827500D01*
X129030000Y-51327500D02*
X125790000Y-51327500D01*
X125790000Y-51327500D02*
X125790000Y-44087500D01*
X125530000Y-44407500D02*
X125530000Y-45727500D01*
X125530000Y-46207500D02*
X125530000Y-47527500D01*
X125530000Y-48007500D02*
X125530000Y-49327500D01*
X125530000Y-49807500D02*
X125530000Y-51007500D01*
%TO.C,U1*%
X97460000Y-44407500D02*
X97460000Y-45727500D01*
X97460000Y-46207500D02*
X97460000Y-47527500D01*
X97460000Y-48007500D02*
X97460000Y-49327500D01*
X97460000Y-49807500D02*
X97460000Y-51007500D01*
X97720000Y-51327500D02*
X97720000Y-44087500D01*
X100960000Y-51327500D02*
X97720000Y-51327500D01*
X100960000Y-51327500D02*
X100960000Y-50827500D01*
X100960000Y-50827500D02*
X101720000Y-50827500D01*
X100960000Y-44587500D02*
X100960000Y-44087500D01*
X100960000Y-44087500D02*
X97720000Y-44087500D01*
X101720000Y-51327500D02*
X104960000Y-51327500D01*
X101720000Y-50827500D02*
X101720000Y-51327500D01*
X101720000Y-44587500D02*
X100960000Y-44587500D01*
X101720000Y-44087500D02*
X101720000Y-44587500D01*
X101720000Y-44087500D02*
X104960000Y-44087500D01*
X104960000Y-44087500D02*
X104960000Y-51327500D01*
X105220000Y-43827500D02*
X103720000Y-43827500D01*
X105220000Y-43827500D02*
X105220000Y-45327500D01*
%TD*%
M02*
