%TF.GenerationSoftware,KiCad,Pcbnew,7.0.9*%
%TF.CreationDate,2023-12-20T18:15:34+03:00*%
%TF.ProjectId,FLIP_FLOP,464c4950-5f46-44c4-9f50-2e6b69636164,rev?*%
%TF.SameCoordinates,Original*%
%TF.FileFunction,Legend,Top*%
%TF.FilePolarity,Positive*%
%FSLAX46Y46*%
G04 Gerber Fmt 4.6, Leading zero omitted, Abs format (unit mm)*
G04 Created by KiCad (PCBNEW 7.0.9) date 2023-12-20 18:15:34*
%MOMM*%
%LPD*%
G01*
G04 APERTURE LIST*
%ADD10C,0.150000*%
%ADD11C,0.120000*%
G04 APERTURE END LIST*
D10*
X121738095Y-57454819D02*
X121738095Y-58264342D01*
X121738095Y-58264342D02*
X121785714Y-58359580D01*
X121785714Y-58359580D02*
X121833333Y-58407200D01*
X121833333Y-58407200D02*
X121928571Y-58454819D01*
X121928571Y-58454819D02*
X122119047Y-58454819D01*
X122119047Y-58454819D02*
X122214285Y-58407200D01*
X122214285Y-58407200D02*
X122261904Y-58359580D01*
X122261904Y-58359580D02*
X122309523Y-58264342D01*
X122309523Y-58264342D02*
X122309523Y-57454819D01*
X123309523Y-58454819D02*
X122738095Y-58454819D01*
X123023809Y-58454819D02*
X123023809Y-57454819D01*
X123023809Y-57454819D02*
X122928571Y-57597676D01*
X122928571Y-57597676D02*
X122833333Y-57692914D01*
X122833333Y-57692914D02*
X122738095Y-57740533D01*
X116713333Y-50914819D02*
X116380000Y-50438628D01*
X116141905Y-50914819D02*
X116141905Y-49914819D01*
X116141905Y-49914819D02*
X116522857Y-49914819D01*
X116522857Y-49914819D02*
X116618095Y-49962438D01*
X116618095Y-49962438D02*
X116665714Y-50010057D01*
X116665714Y-50010057D02*
X116713333Y-50105295D01*
X116713333Y-50105295D02*
X116713333Y-50248152D01*
X116713333Y-50248152D02*
X116665714Y-50343390D01*
X116665714Y-50343390D02*
X116618095Y-50391009D01*
X116618095Y-50391009D02*
X116522857Y-50438628D01*
X116522857Y-50438628D02*
X116141905Y-50438628D01*
X117570476Y-50248152D02*
X117570476Y-50914819D01*
X117332381Y-49867200D02*
X117094286Y-50581485D01*
X117094286Y-50581485D02*
X117713333Y-50581485D01*
X124333333Y-50914819D02*
X124000000Y-50438628D01*
X123761905Y-50914819D02*
X123761905Y-49914819D01*
X123761905Y-49914819D02*
X124142857Y-49914819D01*
X124142857Y-49914819D02*
X124238095Y-49962438D01*
X124238095Y-49962438D02*
X124285714Y-50010057D01*
X124285714Y-50010057D02*
X124333333Y-50105295D01*
X124333333Y-50105295D02*
X124333333Y-50248152D01*
X124333333Y-50248152D02*
X124285714Y-50343390D01*
X124285714Y-50343390D02*
X124238095Y-50391009D01*
X124238095Y-50391009D02*
X124142857Y-50438628D01*
X124142857Y-50438628D02*
X123761905Y-50438628D01*
X124666667Y-49914819D02*
X125285714Y-49914819D01*
X125285714Y-49914819D02*
X124952381Y-50295771D01*
X124952381Y-50295771D02*
X125095238Y-50295771D01*
X125095238Y-50295771D02*
X125190476Y-50343390D01*
X125190476Y-50343390D02*
X125238095Y-50391009D01*
X125238095Y-50391009D02*
X125285714Y-50486247D01*
X125285714Y-50486247D02*
X125285714Y-50724342D01*
X125285714Y-50724342D02*
X125238095Y-50819580D01*
X125238095Y-50819580D02*
X125190476Y-50867200D01*
X125190476Y-50867200D02*
X125095238Y-50914819D01*
X125095238Y-50914819D02*
X124809524Y-50914819D01*
X124809524Y-50914819D02*
X124714286Y-50867200D01*
X124714286Y-50867200D02*
X124666667Y-50819580D01*
X131953333Y-63614819D02*
X131620000Y-63138628D01*
X131381905Y-63614819D02*
X131381905Y-62614819D01*
X131381905Y-62614819D02*
X131762857Y-62614819D01*
X131762857Y-62614819D02*
X131858095Y-62662438D01*
X131858095Y-62662438D02*
X131905714Y-62710057D01*
X131905714Y-62710057D02*
X131953333Y-62805295D01*
X131953333Y-62805295D02*
X131953333Y-62948152D01*
X131953333Y-62948152D02*
X131905714Y-63043390D01*
X131905714Y-63043390D02*
X131858095Y-63091009D01*
X131858095Y-63091009D02*
X131762857Y-63138628D01*
X131762857Y-63138628D02*
X131381905Y-63138628D01*
X132334286Y-62710057D02*
X132381905Y-62662438D01*
X132381905Y-62662438D02*
X132477143Y-62614819D01*
X132477143Y-62614819D02*
X132715238Y-62614819D01*
X132715238Y-62614819D02*
X132810476Y-62662438D01*
X132810476Y-62662438D02*
X132858095Y-62710057D01*
X132858095Y-62710057D02*
X132905714Y-62805295D01*
X132905714Y-62805295D02*
X132905714Y-62900533D01*
X132905714Y-62900533D02*
X132858095Y-63043390D01*
X132858095Y-63043390D02*
X132286667Y-63614819D01*
X132286667Y-63614819D02*
X132905714Y-63614819D01*
X131953333Y-58534819D02*
X131620000Y-58058628D01*
X131381905Y-58534819D02*
X131381905Y-57534819D01*
X131381905Y-57534819D02*
X131762857Y-57534819D01*
X131762857Y-57534819D02*
X131858095Y-57582438D01*
X131858095Y-57582438D02*
X131905714Y-57630057D01*
X131905714Y-57630057D02*
X131953333Y-57725295D01*
X131953333Y-57725295D02*
X131953333Y-57868152D01*
X131953333Y-57868152D02*
X131905714Y-57963390D01*
X131905714Y-57963390D02*
X131858095Y-58011009D01*
X131858095Y-58011009D02*
X131762857Y-58058628D01*
X131762857Y-58058628D02*
X131381905Y-58058628D01*
X132905714Y-58534819D02*
X132334286Y-58534819D01*
X132620000Y-58534819D02*
X132620000Y-57534819D01*
X132620000Y-57534819D02*
X132524762Y-57677676D01*
X132524762Y-57677676D02*
X132429524Y-57772914D01*
X132429524Y-57772914D02*
X132334286Y-57820533D01*
X115276666Y-73734819D02*
X115276666Y-74449104D01*
X115276666Y-74449104D02*
X115229047Y-74591961D01*
X115229047Y-74591961D02*
X115133809Y-74687200D01*
X115133809Y-74687200D02*
X114990952Y-74734819D01*
X114990952Y-74734819D02*
X114895714Y-74734819D01*
X115705238Y-73830057D02*
X115752857Y-73782438D01*
X115752857Y-73782438D02*
X115848095Y-73734819D01*
X115848095Y-73734819D02*
X116086190Y-73734819D01*
X116086190Y-73734819D02*
X116181428Y-73782438D01*
X116181428Y-73782438D02*
X116229047Y-73830057D01*
X116229047Y-73830057D02*
X116276666Y-73925295D01*
X116276666Y-73925295D02*
X116276666Y-74020533D01*
X116276666Y-74020533D02*
X116229047Y-74163390D01*
X116229047Y-74163390D02*
X115657619Y-74734819D01*
X115657619Y-74734819D02*
X116276666Y-74734819D01*
X130111905Y-67654819D02*
X130111905Y-66654819D01*
X130111905Y-66654819D02*
X130350000Y-66654819D01*
X130350000Y-66654819D02*
X130492857Y-66702438D01*
X130492857Y-66702438D02*
X130588095Y-66797676D01*
X130588095Y-66797676D02*
X130635714Y-66892914D01*
X130635714Y-66892914D02*
X130683333Y-67083390D01*
X130683333Y-67083390D02*
X130683333Y-67226247D01*
X130683333Y-67226247D02*
X130635714Y-67416723D01*
X130635714Y-67416723D02*
X130588095Y-67511961D01*
X130588095Y-67511961D02*
X130492857Y-67607200D01*
X130492857Y-67607200D02*
X130350000Y-67654819D01*
X130350000Y-67654819D02*
X130111905Y-67654819D01*
X131064286Y-66750057D02*
X131111905Y-66702438D01*
X131111905Y-66702438D02*
X131207143Y-66654819D01*
X131207143Y-66654819D02*
X131445238Y-66654819D01*
X131445238Y-66654819D02*
X131540476Y-66702438D01*
X131540476Y-66702438D02*
X131588095Y-66750057D01*
X131588095Y-66750057D02*
X131635714Y-66845295D01*
X131635714Y-66845295D02*
X131635714Y-66940533D01*
X131635714Y-66940533D02*
X131588095Y-67083390D01*
X131588095Y-67083390D02*
X131016667Y-67654819D01*
X131016667Y-67654819D02*
X131635714Y-67654819D01*
X130111905Y-52414819D02*
X130111905Y-51414819D01*
X130111905Y-51414819D02*
X130350000Y-51414819D01*
X130350000Y-51414819D02*
X130492857Y-51462438D01*
X130492857Y-51462438D02*
X130588095Y-51557676D01*
X130588095Y-51557676D02*
X130635714Y-51652914D01*
X130635714Y-51652914D02*
X130683333Y-51843390D01*
X130683333Y-51843390D02*
X130683333Y-51986247D01*
X130683333Y-51986247D02*
X130635714Y-52176723D01*
X130635714Y-52176723D02*
X130588095Y-52271961D01*
X130588095Y-52271961D02*
X130492857Y-52367200D01*
X130492857Y-52367200D02*
X130350000Y-52414819D01*
X130350000Y-52414819D02*
X130111905Y-52414819D01*
X131635714Y-52414819D02*
X131064286Y-52414819D01*
X131350000Y-52414819D02*
X131350000Y-51414819D01*
X131350000Y-51414819D02*
X131254762Y-51557676D01*
X131254762Y-51557676D02*
X131159524Y-51652914D01*
X131159524Y-51652914D02*
X131064286Y-51700533D01*
X112649580Y-61456666D02*
X112697200Y-61504285D01*
X112697200Y-61504285D02*
X112744819Y-61647142D01*
X112744819Y-61647142D02*
X112744819Y-61742380D01*
X112744819Y-61742380D02*
X112697200Y-61885237D01*
X112697200Y-61885237D02*
X112601961Y-61980475D01*
X112601961Y-61980475D02*
X112506723Y-62028094D01*
X112506723Y-62028094D02*
X112316247Y-62075713D01*
X112316247Y-62075713D02*
X112173390Y-62075713D01*
X112173390Y-62075713D02*
X111982914Y-62028094D01*
X111982914Y-62028094D02*
X111887676Y-61980475D01*
X111887676Y-61980475D02*
X111792438Y-61885237D01*
X111792438Y-61885237D02*
X111744819Y-61742380D01*
X111744819Y-61742380D02*
X111744819Y-61647142D01*
X111744819Y-61647142D02*
X111792438Y-61504285D01*
X111792438Y-61504285D02*
X111840057Y-61456666D01*
X111840057Y-61075713D02*
X111792438Y-61028094D01*
X111792438Y-61028094D02*
X111744819Y-60932856D01*
X111744819Y-60932856D02*
X111744819Y-60694761D01*
X111744819Y-60694761D02*
X111792438Y-60599523D01*
X111792438Y-60599523D02*
X111840057Y-60551904D01*
X111840057Y-60551904D02*
X111935295Y-60504285D01*
X111935295Y-60504285D02*
X112030533Y-60504285D01*
X112030533Y-60504285D02*
X112173390Y-60551904D01*
X112173390Y-60551904D02*
X112744819Y-61123332D01*
X112744819Y-61123332D02*
X112744819Y-60504285D01*
X126333333Y-73359580D02*
X126285714Y-73407200D01*
X126285714Y-73407200D02*
X126142857Y-73454819D01*
X126142857Y-73454819D02*
X126047619Y-73454819D01*
X126047619Y-73454819D02*
X125904762Y-73407200D01*
X125904762Y-73407200D02*
X125809524Y-73311961D01*
X125809524Y-73311961D02*
X125761905Y-73216723D01*
X125761905Y-73216723D02*
X125714286Y-73026247D01*
X125714286Y-73026247D02*
X125714286Y-72883390D01*
X125714286Y-72883390D02*
X125761905Y-72692914D01*
X125761905Y-72692914D02*
X125809524Y-72597676D01*
X125809524Y-72597676D02*
X125904762Y-72502438D01*
X125904762Y-72502438D02*
X126047619Y-72454819D01*
X126047619Y-72454819D02*
X126142857Y-72454819D01*
X126142857Y-72454819D02*
X126285714Y-72502438D01*
X126285714Y-72502438D02*
X126333333Y-72550057D01*
X127285714Y-73454819D02*
X126714286Y-73454819D01*
X127000000Y-73454819D02*
X127000000Y-72454819D01*
X127000000Y-72454819D02*
X126904762Y-72597676D01*
X126904762Y-72597676D02*
X126809524Y-72692914D01*
X126809524Y-72692914D02*
X126714286Y-72740533D01*
D11*
%TO.C,U1*%
X119695000Y-54870000D02*
X119695000Y-65150000D01*
X124195000Y-54870000D02*
X122945000Y-54870000D01*
X119695000Y-65150000D02*
X124195000Y-65150000D01*
X124195000Y-65150000D02*
X124195000Y-54870000D01*
X120945000Y-54870000D02*
X119695000Y-54870000D01*
X120945000Y-54870000D02*
G75*
G03*
X122945000Y-54870000I1000000J0D01*
G01*
%TO.C,R4*%
X114960000Y-51460000D02*
X118800000Y-51460000D01*
X114960000Y-53300000D02*
X118800000Y-53300000D01*
%TO.C,R3*%
X122580000Y-53300000D02*
X126420000Y-53300000D01*
X122580000Y-51460000D02*
X126420000Y-51460000D01*
%TO.C,R2*%
X130200000Y-66000000D02*
X134040000Y-66000000D01*
X130200000Y-64160000D02*
X134040000Y-64160000D01*
%TO.C,R1*%
X130200000Y-60920000D02*
X134040000Y-60920000D01*
X130200000Y-59080000D02*
X134040000Y-59080000D01*
%TO.C,J2*%
X118260000Y-67170000D02*
X112960000Y-67170000D01*
X116080000Y-72590000D02*
X116080000Y-73190000D01*
X118550000Y-72160000D02*
X118550000Y-68160000D01*
X118260000Y-73190000D02*
X118260000Y-67170000D01*
X115140000Y-73190000D02*
X115140000Y-72590000D01*
X114340000Y-68170000D02*
X114340000Y-67170000D01*
X114590000Y-67170000D02*
X114590000Y-68170000D01*
X117680000Y-72590000D02*
X116080000Y-72590000D01*
X115140000Y-72590000D02*
X113540000Y-72590000D01*
X114590000Y-68700000D02*
X114340000Y-68170000D01*
X116880000Y-68170000D02*
X114340000Y-68170000D01*
X116880000Y-67170000D02*
X116880000Y-68170000D01*
X116630000Y-67170000D02*
X116630000Y-68170000D01*
X116880000Y-68170000D02*
X116630000Y-68700000D01*
X112960000Y-73190000D02*
X118260000Y-73190000D01*
X117680000Y-73190000D02*
X117680000Y-72590000D01*
X112960000Y-67170000D02*
X112960000Y-73190000D01*
X113540000Y-72590000D02*
X113540000Y-73190000D01*
X116630000Y-68700000D02*
X114590000Y-68700000D01*
%TO.C,D2*%
X129290000Y-68924000D02*
X129290000Y-69080000D01*
X129290000Y-71240000D02*
X129290000Y-71396000D01*
X131891129Y-69080164D02*
G75*
G03*
X129809040Y-69080001I-1041129J-1079836D01*
G01*
X129290001Y-71395515D02*
G75*
G03*
X132522334Y-71238608I1559999J1235515D01*
G01*
X129809040Y-71239999D02*
G75*
G03*
X131891129Y-71239836I1040960J1079999D01*
G01*
X132522334Y-69081392D02*
G75*
G03*
X129290001Y-68924485I-1672334J-1078608D01*
G01*
%TO.C,D1*%
X129290000Y-53684000D02*
X129290000Y-53840000D01*
X129290000Y-56000000D02*
X129290000Y-56156000D01*
X131891129Y-53840164D02*
G75*
G03*
X129809040Y-53840001I-1041129J-1079836D01*
G01*
X129290001Y-56155515D02*
G75*
G03*
X132522334Y-55998608I1559999J1235515D01*
G01*
X129809040Y-55999999D02*
G75*
G03*
X131891129Y-55999836I1040960J1079999D01*
G01*
X132522334Y-53841392D02*
G75*
G03*
X129290001Y-53684485I-1672334J-1078608D01*
G01*
%TO.C,C2*%
X115260000Y-61919000D02*
X115260000Y-60661000D01*
X113420000Y-61919000D02*
X113420000Y-60661000D01*
%TO.C,C1*%
X125211000Y-71200000D02*
X125211000Y-72708000D01*
X124691000Y-71200000D02*
X124691000Y-73036000D01*
X124291000Y-67113000D02*
X124291000Y-69120000D01*
X125851000Y-68270000D02*
X125851000Y-72050000D01*
X124011000Y-67029000D02*
X124011000Y-69120000D01*
X123290000Y-66930000D02*
X123290000Y-73390000D01*
X124091000Y-71200000D02*
X124091000Y-73270000D01*
X124211000Y-71200000D02*
X124211000Y-73234000D01*
X123250000Y-66930000D02*
X123250000Y-73390000D01*
X125891000Y-68326000D02*
X125891000Y-71994000D01*
X125771000Y-68165000D02*
X125771000Y-72155000D01*
X123770000Y-71200000D02*
X123770000Y-73342000D01*
X124811000Y-71200000D02*
X124811000Y-72972000D01*
X124731000Y-67304000D02*
X124731000Y-69120000D01*
X125491000Y-67855000D02*
X125491000Y-69120000D01*
X123770000Y-66978000D02*
X123770000Y-69120000D01*
X126371000Y-69358000D02*
X126371000Y-70962000D01*
X123330000Y-66932000D02*
X123330000Y-73388000D01*
X124851000Y-71200000D02*
X124851000Y-72950000D01*
X119709759Y-68321000D02*
X120339759Y-68321000D01*
X124931000Y-71200000D02*
X124931000Y-72902000D01*
X126451000Y-69758000D02*
X126451000Y-70562000D01*
X123850000Y-71200000D02*
X123850000Y-73327000D01*
X124451000Y-71200000D02*
X124451000Y-73146000D01*
X124811000Y-67348000D02*
X124811000Y-69120000D01*
X124971000Y-71200000D02*
X124971000Y-72876000D01*
X123730000Y-71200000D02*
X123730000Y-73349000D01*
X126091000Y-68651000D02*
X126091000Y-71669000D01*
X125571000Y-67936000D02*
X125571000Y-72384000D01*
X124371000Y-71200000D02*
X124371000Y-73178000D01*
X125291000Y-67676000D02*
X125291000Y-69120000D01*
X126011000Y-68510000D02*
X126011000Y-71810000D01*
X123810000Y-71200000D02*
X123810000Y-73335000D01*
X123490000Y-71200000D02*
X123490000Y-73378000D01*
X125051000Y-67496000D02*
X125051000Y-69120000D01*
X126131000Y-68728000D02*
X126131000Y-71592000D01*
X123650000Y-66959000D02*
X123650000Y-69120000D01*
X124771000Y-67326000D02*
X124771000Y-69120000D01*
X124011000Y-71200000D02*
X124011000Y-73291000D01*
X123450000Y-66938000D02*
X123450000Y-69120000D01*
X125371000Y-67744000D02*
X125371000Y-69120000D01*
X125011000Y-67470000D02*
X125011000Y-69120000D01*
X125931000Y-68384000D02*
X125931000Y-71936000D01*
X125091000Y-71200000D02*
X125091000Y-72796000D01*
X126411000Y-69527000D02*
X126411000Y-70793000D01*
X125491000Y-71200000D02*
X125491000Y-72465000D01*
X125171000Y-71200000D02*
X125171000Y-72738000D01*
X123530000Y-71200000D02*
X123530000Y-73375000D01*
X124491000Y-67190000D02*
X124491000Y-69120000D01*
X123530000Y-66945000D02*
X123530000Y-69120000D01*
X124851000Y-67370000D02*
X124851000Y-69120000D01*
X124531000Y-67208000D02*
X124531000Y-69120000D01*
X124891000Y-71200000D02*
X124891000Y-72926000D01*
X125651000Y-68023000D02*
X125651000Y-72297000D01*
X125131000Y-67553000D02*
X125131000Y-69120000D01*
X123971000Y-71200000D02*
X123971000Y-73301000D01*
X124491000Y-71200000D02*
X124491000Y-73130000D01*
X124611000Y-71200000D02*
X124611000Y-73076000D01*
X125731000Y-68116000D02*
X125731000Y-72204000D01*
X125691000Y-68068000D02*
X125691000Y-72252000D01*
X124531000Y-71200000D02*
X124531000Y-73112000D01*
X125451000Y-67817000D02*
X125451000Y-69120000D01*
X124171000Y-71200000D02*
X124171000Y-73246000D01*
X126171000Y-68810000D02*
X126171000Y-71510000D01*
X123931000Y-67010000D02*
X123931000Y-69120000D01*
X124571000Y-67226000D02*
X124571000Y-69120000D01*
X125451000Y-71200000D02*
X125451000Y-72503000D01*
X124371000Y-67142000D02*
X124371000Y-69120000D01*
X124731000Y-71200000D02*
X124731000Y-73016000D01*
X123690000Y-71200000D02*
X123690000Y-73355000D01*
X124091000Y-67050000D02*
X124091000Y-69120000D01*
X125131000Y-71200000D02*
X125131000Y-72767000D01*
X125371000Y-71200000D02*
X125371000Y-72576000D01*
X124331000Y-67127000D02*
X124331000Y-69120000D01*
X123931000Y-71200000D02*
X123931000Y-73310000D01*
X120024759Y-68006000D02*
X120024759Y-68636000D01*
X124771000Y-71200000D02*
X124771000Y-72994000D01*
X125971000Y-68446000D02*
X125971000Y-71874000D01*
X125411000Y-67780000D02*
X125411000Y-69120000D01*
X126051000Y-68579000D02*
X126051000Y-71741000D01*
X123810000Y-66985000D02*
X123810000Y-69120000D01*
X126291000Y-69101000D02*
X126291000Y-71219000D01*
X126331000Y-69220000D02*
X126331000Y-71100000D01*
X123650000Y-71200000D02*
X123650000Y-73361000D01*
X124651000Y-67264000D02*
X124651000Y-69120000D01*
X124251000Y-71200000D02*
X124251000Y-73221000D01*
X123730000Y-66971000D02*
X123730000Y-69120000D01*
X123890000Y-67001000D02*
X123890000Y-69120000D01*
X124131000Y-67062000D02*
X124131000Y-69120000D01*
X123210000Y-66930000D02*
X123210000Y-73390000D01*
X124051000Y-71200000D02*
X124051000Y-73281000D01*
X124891000Y-67394000D02*
X124891000Y-69120000D01*
X124051000Y-67039000D02*
X124051000Y-69120000D01*
X124331000Y-71200000D02*
X124331000Y-73193000D01*
X123971000Y-67019000D02*
X123971000Y-69120000D01*
X123490000Y-66942000D02*
X123490000Y-69120000D01*
X125331000Y-67710000D02*
X125331000Y-69120000D01*
X125531000Y-67895000D02*
X125531000Y-72425000D01*
X124651000Y-71200000D02*
X124651000Y-73056000D01*
X125171000Y-67582000D02*
X125171000Y-69120000D01*
X123450000Y-71200000D02*
X123450000Y-73382000D01*
X124171000Y-67074000D02*
X124171000Y-69120000D01*
X124131000Y-71200000D02*
X124131000Y-73258000D01*
X126251000Y-68995000D02*
X126251000Y-71325000D01*
X125091000Y-67524000D02*
X125091000Y-69120000D01*
X125251000Y-71200000D02*
X125251000Y-72676000D01*
X124291000Y-71200000D02*
X124291000Y-73207000D01*
X125611000Y-67978000D02*
X125611000Y-72342000D01*
X125811000Y-68216000D02*
X125811000Y-72104000D01*
X126211000Y-68898000D02*
X126211000Y-71422000D01*
X123610000Y-71200000D02*
X123610000Y-73366000D01*
X125411000Y-71200000D02*
X125411000Y-72540000D01*
X124931000Y-67418000D02*
X124931000Y-69120000D01*
X123850000Y-66993000D02*
X123850000Y-69120000D01*
X124571000Y-71200000D02*
X124571000Y-73094000D01*
X123370000Y-66933000D02*
X123370000Y-73387000D01*
X125291000Y-71200000D02*
X125291000Y-72644000D01*
X125011000Y-71200000D02*
X125011000Y-72850000D01*
X125211000Y-67612000D02*
X125211000Y-69120000D01*
X123570000Y-71200000D02*
X123570000Y-73371000D01*
X124691000Y-67284000D02*
X124691000Y-69120000D01*
X125051000Y-71200000D02*
X125051000Y-72824000D01*
X123610000Y-66954000D02*
X123610000Y-69120000D01*
X125251000Y-67644000D02*
X125251000Y-69120000D01*
X124451000Y-67174000D02*
X124451000Y-69120000D01*
X124211000Y-67086000D02*
X124211000Y-69120000D01*
X124251000Y-67099000D02*
X124251000Y-69120000D01*
X123570000Y-66949000D02*
X123570000Y-69120000D01*
X124411000Y-67158000D02*
X124411000Y-69120000D01*
X124411000Y-71200000D02*
X124411000Y-73162000D01*
X123690000Y-66965000D02*
X123690000Y-69120000D01*
X124611000Y-67244000D02*
X124611000Y-69120000D01*
X123890000Y-71200000D02*
X123890000Y-73319000D01*
X125331000Y-71200000D02*
X125331000Y-72610000D01*
X124971000Y-67444000D02*
X124971000Y-69120000D01*
X123410000Y-66936000D02*
X123410000Y-73384000D01*
X126480000Y-70160000D02*
G75*
G03*
X126480000Y-70160000I-3270000J0D01*
G01*
%TD*%
M02*
