M48
; DRILL file {KiCad 7.0.9} date Wed Dec 20 18:16:13 2023
; FORMAT={-:-/ absolute / inch / decimal}
; #@! TF.CreationDate,2023-12-20T18:16:13+03:00
; #@! TF.GenerationSoftware,Kicad,Pcbnew,7.0.9
; #@! TF.FileFunction,Plated,1,2,PTH
FMAT,2
INCH
; #@! TA.AperFunction,Plated,PTH,ComponentDrill
T1C0.0276
; #@! TA.AperFunction,Plated,PTH,ComponentDrill
T2C0.0315
; #@! TA.AperFunction,Plated,PTH,ComponentDrill
T3C0.0354
; #@! TA.AperFunction,Plated,PTH,ComponentDrill
T4C0.0469
%
G90
G05
T1
X4.5016Y-2.0622
X4.7016Y-2.0622
X4.8016Y-2.0622
X5.0016Y-2.0622
X5.1016Y-2.3622
X5.1016Y-2.5622
X5.3016Y-2.3622
X5.3016Y-2.5622
T2
X4.5016Y-2.3638
X4.5016Y-2.4622
X4.651Y-2.2126
X4.651Y-2.3126
X4.651Y-2.4126
X4.651Y-2.5126
X4.8016Y-2.7622
X4.9Y-2.7622
X4.951Y-2.2126
X4.951Y-2.3126
X4.951Y-2.4126
X4.951Y-2.5126
T3
X5.1016Y-2.1622
X5.1016Y-2.7622
X5.2016Y-2.1622
X5.2016Y-2.7622
T4
X4.5016Y-2.7622
X4.6016Y-2.7622
T0
M30
