M48
; DRILL file {KiCad 7.0.9} date Mon Jan 22 14:46:10 2024
; FORMAT={-:-/ absolute / inch / decimal}
; #@! TF.CreationDate,2024-01-22T14:46:10+03:00
; #@! TF.GenerationSoftware,Kicad,Pcbnew,7.0.9
; #@! TF.FileFunction,Plated,1,2,PTH
FMAT,2
INCH
; #@! TA.AperFunction,Plated,PTH,ViaDrill
T1C0.0157
; #@! TA.AperFunction,Plated,PTH,ComponentDrill
T2C0.0276
; #@! TA.AperFunction,Plated,PTH,ComponentDrill
T3C0.0315
; #@! TA.AperFunction,Plated,PTH,ComponentDrill
T4C0.0354
; #@! TA.AperFunction,Plated,PTH,ComponentDrill
T5C0.0394
; #@! TA.AperFunction,Plated,PTH,ComponentDrill
T6C0.0433
; #@! TA.AperFunction,Plated,PTH,ComponentDrill
T7C0.0469
%
G90
G05
T1
X5.8118Y-3.398
X6.3478Y-3.257
X6.4178Y-3.389
X6.8608Y-3.078
T2
X4.8641Y-3.0432
X4.8641Y-3.2432
X5.3153Y-4.2377
X5.5153Y-4.2377
X5.8159Y-2.7606
X5.8159Y-2.9606
X6.0308Y-3.7661
X6.1027Y-4.2377
X6.2308Y-3.7661
X6.3027Y-4.2377
X6.3458Y-2.7619
X6.3458Y-2.9619
X6.3458Y-3.7661
X6.5458Y-3.7661
X6.7113Y-3.7732
X6.9113Y-3.7732
X7.0938Y-3.0574
X7.2938Y-3.0574
T3
X4.1472Y-3.1432
X4.1472Y-3.2432
X4.4472Y-3.1432
X4.4472Y-3.2432
X4.4704Y-2.773
X4.4704Y-2.8714
X5.179Y-2.7889
X5.179Y-2.8873
X6.0176Y-3.1432
X6.0176Y-3.4432
X6.1176Y-3.1432
X6.1176Y-3.4432
X6.2176Y-3.1432
X6.2176Y-3.4432
X6.3176Y-3.1432
X6.3176Y-3.4432
X6.4176Y-3.1432
X6.4176Y-3.4432
X6.5176Y-3.1432
X6.5176Y-3.4432
X6.6176Y-3.1432
X6.6176Y-3.4432
X6.7176Y-3.1432
X6.7176Y-3.4432
T4
X5.3546Y-4.4635
X5.4546Y-4.4635
X6.1096Y-2.7702
X6.1096Y-2.8702
X6.142Y-4.4635
X6.242Y-4.4635
X6.5607Y-2.8131
X6.6607Y-2.8131
X6.772Y-4.285
X6.872Y-4.285
X7.1855Y-2.8131
X7.2855Y-2.8131
T5
X4.2018Y-3.448
X4.2018Y-4.048
X4.3018Y-3.448
X4.3018Y-4.048
X4.3098Y-4.2673
X4.4018Y-3.448
X4.4018Y-4.048
X4.4098Y-4.2673
X4.5018Y-3.448
X4.5018Y-4.048
X4.5098Y-4.2673
X4.6018Y-3.448
X4.6018Y-4.048
X4.7018Y-3.448
X4.7018Y-4.048
X4.8003Y-4.2653
X4.8018Y-3.448
X4.8018Y-4.048
X4.9003Y-4.2653
X4.9018Y-3.448
X4.9018Y-4.048
X5.0003Y-4.2653
X5.0018Y-3.448
X5.0018Y-4.048
X5.1003Y-4.2653
X5.1018Y-3.448
X5.1018Y-4.048
X5.2018Y-3.448
X5.2018Y-4.048
X5.3018Y-3.448
X5.3018Y-4.048
X5.3523Y-3.0251
X5.4018Y-3.448
X5.4018Y-4.048
X5.5018Y-3.448
X5.5018Y-4.048
X5.6018Y-3.448
X5.6018Y-4.048
X5.6515Y-3.0251
X7.0615Y-3.2543
X7.0615Y-3.4117
X7.0615Y-3.5692
X7.1615Y-3.2543
X7.1615Y-3.4117
X7.1615Y-3.5692
X7.2615Y-3.2543
X7.2615Y-3.4117
X7.2615Y-3.5692
T6
X4.7428Y-2.8655
X4.8428Y-2.8655
X4.9428Y-2.8655
X5.681Y-4.3158
X5.681Y-4.493
X5.9369Y-4.3158
X5.9369Y-4.493
T7
X4.1735Y-2.8663
X4.2735Y-2.8663
X6.457Y-4.3295
X6.557Y-4.3295
X6.8576Y-2.8592
X6.9576Y-2.8592
T0
M30
